STARTFONT 2.1
COMMENT
COMMENT Converted from OpenType font "Roboto-BlackItalic.otf" by "otf2bdf 3.0".
COMMENT
FONT -FreeType-Roboto Black-Medium-I-Normal--17-120-100-100-P-97-ISO10646-1
SIZE 12 100 100
FONTBOUNDINGBOX 32 21 -12 -4
STARTPROPERTIES 19
FOUNDRY "FreeType"
FAMILY_NAME "Roboto Black"
WEIGHT_NAME "Medium"
SLANT "I"
SETWIDTH_NAME "Normal"
ADD_STYLE_NAME ""
PIXEL_SIZE 17
POINT_SIZE 120
RESOLUTION_X 100
RESOLUTION_Y 100
SPACING "P"
AVERAGE_WIDTH 97
CHARSET_REGISTRY "ISO10646"
CHARSET_ENCODING "1"
FONT_ASCENT 15
FONT_DESCENT 4
COPYRIGHT "Copyright 2011 Google Inc. All Rights Reserved."
_OTF_FONTFILE "Roboto-BlackItalic.otf"
_OTF_PSNAME "Roboto-BlackItalic"
ENDPROPERTIES
CHARS 896
STARTCHAR 0000
ENCODING 0
SWIDTH 0 0
DWIDTH 0 0
BBX 0 0 0 0
BITMAP
ENDCHAR
STARTCHAR 0002
ENCODING 2
SWIDTH 0 0
DWIDTH 0 0
BBX 0 0 0 0
BITMAP
ENDCHAR
STARTCHAR 000D
ENCODING 13
SWIDTH 240 0
DWIDTH 4 0
BBX 0 0 0 0
BITMAP
ENDCHAR
STARTCHAR 0020
ENCODING 32
SWIDTH 240 0
DWIDTH 4 0
BBX 0 0 0 0
BITMAP
ENDCHAR
STARTCHAR 0021
ENCODING 33
SWIDTH 300 0
DWIDTH 5 0
BBX 5 12 0 0
BITMAP
38
38
30
30
30
70
70
60
00
40
E0
E0
ENDCHAR
STARTCHAR 0022
ENCODING 34
SWIDTH 300 0
DWIDTH 5 0
BBX 5 5 1 8
BITMAP
D8
D8
D8
D0
90
ENDCHAR
STARTCHAR 0023
ENCODING 35
SWIDTH 540 0
DWIDTH 9 0
BBX 10 12 0 0
BITMAP
0D80
0D80
0900
1B00
7FC0
1200
3600
FF00
FF00
6C00
6C00
4800
ENDCHAR
STARTCHAR 0024
ENCODING 36
SWIDTH 540 0
DWIDTH 9 0
BBX 9 16 0 -2
BITMAP
0200
0200
0F00
3F80
3B80
3180
3800
3C00
0F00
0700
E300
6300
7F00
3E00
1800
1800
ENDCHAR
STARTCHAR 0025
ENCODING 37
SWIDTH 720 0
DWIDTH 12 0
BBX 10 12 1 0
BITMAP
3800
6C80
CD80
CF00
7A00
0600
0C00
1FC0
36C0
26C0
66C0
0780
ENDCHAR
STARTCHAR 0026
ENCODING 38
SWIDTH 660 0
DWIDTH 11 0
BBX 10 12 0 0
BITMAP
0E00
1F00
3B00
3300
3F00
1E00
3CC0
6FC0
E780
E780
FF80
7D80
ENDCHAR
STARTCHAR 0027
ENCODING 39
SWIDTH 180 0
DWIDTH 3 0
BBX 2 5 1 8
BITMAP
40
C0
C0
C0
C0
ENDCHAR
STARTCHAR 0028
ENCODING 40
SWIDTH 360 0
DWIDTH 6 0
BBX 5 17 1 -4
BITMAP
08
18
30
70
60
60
C0
C0
C0
C0
C0
C0
C0
C0
60
60
20
ENDCHAR
STARTCHAR 0029
ENCODING 41
SWIDTH 360 0
DWIDTH 6 0
BBX 6 16 -1 -4
BITMAP
10
18
18
0C
0C
0C
0C
0C
0C
1C
18
18
38
30
60
E0
ENDCHAR
STARTCHAR 002A
ENCODING 42
SWIDTH 480 0
DWIDTH 8 0
BBX 7 7 1 5
BITMAP
18
18
D2
FE
30
78
CC
ENDCHAR
STARTCHAR 002B
ENCODING 43
SWIDTH 540 0
DWIDTH 9 0
BBX 9 9 0 1
BITMAP
0C00
0C00
1C00
7F80
FF00
FF00
1800
1800
3800
ENDCHAR
STARTCHAR 002C
ENCODING 44
SWIDTH 240 0
DWIDTH 4 0
BBX 4 5 -1 -3
BITMAP
30
70
60
60
C0
ENDCHAR
STARTCHAR 002D
ENCODING 45
SWIDTH 420 0
DWIDTH 7 0
BBX 5 2 1 4
BITMAP
F8
F8
ENDCHAR
STARTCHAR 002E
ENCODING 46
SWIDTH 300 0
DWIDTH 5 0
BBX 3 3 0 0
BITMAP
60
E0
60
ENDCHAR
STARTCHAR 002F
ENCODING 47
SWIDTH 360 0
DWIDTH 6 0
BBX 8 13 -1 -1
BITMAP
03
06
06
0C
0C
18
18
30
30
60
60
C0
C0
ENDCHAR
STARTCHAR 0030
ENCODING 48
SWIDTH 540 0
DWIDTH 9 0
BBX 8 12 1 0
BITMAP
1E
7E
77
E7
E7
E7
C7
C7
C6
CE
FC
78
ENDCHAR
STARTCHAR 0031
ENCODING 49
SWIDTH 540 0
DWIDTH 9 0
BBX 6 12 2 0
BITMAP
0C
7C
F8
D8
38
38
38
38
30
30
70
70
ENDCHAR
STARTCHAR 0032
ENCODING 50
SWIDTH 540 0
DWIDTH 9 0
BBX 9 12 0 0
BITMAP
1F00
3F80
7380
7380
0380
0700
0E00
1C00
3800
7000
FF00
FF00
ENDCHAR
STARTCHAR 0033
ENCODING 51
SWIDTH 540 0
DWIDTH 9 0
BBX 9 12 0 0
BITMAP
1F00
3F80
7380
0380
0380
1F00
1F00
0300
0300
E700
7F00
7E00
ENDCHAR
STARTCHAR 0034
ENCODING 52
SWIDTH 540 0
DWIDTH 9 0
BBX 9 12 0 0
BITMAP
0380
0780
0F80
0F00
1B00
3700
7700
7F80
FF80
0600
0E00
0E00
ENDCHAR
STARTCHAR 0035
ENCODING 53
SWIDTH 540 0
DWIDTH 9 0
BBX 9 12 0 0
BITMAP
1F80
3F80
3000
3000
7E00
7F00
2300
0380
0300
E700
7F00
3E00
ENDCHAR
STARTCHAR 0036
ENCODING 54
SWIDTH 540 0
DWIDTH 9 0
BBX 8 12 1 0
BITMAP
0E
3E
78
70
FE
FE
E7
C7
C7
C6
FE
7C
ENDCHAR
STARTCHAR 0037
ENCODING 55
SWIDTH 540 0
DWIDTH 9 0
BBX 9 12 1 0
BITMAP
FF80
FF80
0700
0700
0E00
0C00
1C00
3800
3800
7000
7000
E000
ENDCHAR
STARTCHAR 0038
ENCODING 56
SWIDTH 540 0
DWIDTH 9 0
BBX 9 12 0 0
BITMAP
1F00
3F80
3B80
3380
3380
3F00
3F00
7300
E300
E700
7F00
3E00
ENDCHAR
STARTCHAR 0039
ENCODING 57
SWIDTH 540 0
DWIDTH 9 0
BBX 8 12 1 0
BITMAP
3C
7E
77
E7
E7
E7
FF
7F
0E
1C
7C
70
ENDCHAR
STARTCHAR 003A
ENCODING 58
SWIDTH 300 0
DWIDTH 5 0
BBX 4 9 0 0
BITMAP
30
70
20
00
00
00
60
E0
60
ENDCHAR
STARTCHAR 003B
ENCODING 59
SWIDTH 300 0
DWIDTH 5 0
BBX 5 12 -1 -3
BITMAP
18
38
10
00
00
00
00
30
30
70
60
C0
ENDCHAR
STARTCHAR 003C
ENCODING 60
SWIDTH 480 0
DWIDTH 8 0
BBX 8 8 0 1
BITMAP
01
0F
3F
F8
F0
7E
1E
02
ENDCHAR
STARTCHAR 003D
ENCODING 61
SWIDTH 600 0
DWIDTH 10 0
BBX 8 6 1 2
BITMAP
FF
FF
00
00
FE
FE
ENDCHAR
STARTCHAR 003E
ENCODING 62
SWIDTH 480 0
DWIDTH 8 0
BBX 8 8 0 1
BITMAP
40
78
7E
0F
0F
7E
F0
C0
ENDCHAR
STARTCHAR 003F
ENCODING 63
SWIDTH 480 0
DWIDTH 8 0
BBX 7 12 1 0
BITMAP
3C
7E
E6
06
0E
1C
38
30
00
20
70
60
ENDCHAR
STARTCHAR 0040
ENCODING 64
SWIDTH 900 0
DWIDTH 15 0
BBX 14 15 0 -3
BITMAP
07F0
1C18
3808
33CC
674C
6E4C
CCCC
CCCC
CCC8
CDD8
CEF0
4000
6000
3F80
0F00
ENDCHAR
STARTCHAR 0041
ENCODING 65
SWIDTH 660 0
DWIDTH 11 0
BBX 11 12 -1 0
BITMAP
0380
0380
0780
07C0
0FC0
0DC0
1CC0
38C0
3FE0
7FE0
70E0
E0E0
ENDCHAR
STARTCHAR 0042
ENCODING 66
SWIDTH 660 0
DWIDTH 11 0
BBX 10 12 0 0
BITMAP
3F00
3FC0
31C0
71C0
71C0
7F80
7F80
7180
61C0
E380
FF80
FE00
ENDCHAR
STARTCHAR 0043
ENCODING 67
SWIDTH 660 0
DWIDTH 11 0
BBX 10 12 1 0
BITMAP
1F00
3F80
7380
E1C0
E000
E000
E000
C000
C380
E780
FF00
7E00
ENDCHAR
STARTCHAR 0044
ENCODING 68
SWIDTH 660 0
DWIDTH 11 0
BBX 10 12 0 0
BITMAP
3E00
3F80
33C0
71C0
71C0
71C0
71C0
71C0
6380
E780
FF00
FC00
ENDCHAR
STARTCHAR 0045
ENCODING 69
SWIDTH 540 0
DWIDTH 9 0
BBX 10 12 0 0
BITMAP
3FC0
3FC0
3000
7000
7000
7F00
7F00
7000
6000
E000
FF00
FF00
ENDCHAR
STARTCHAR 0046
ENCODING 70
SWIDTH 540 0
DWIDTH 9 0
BBX 10 12 0 0
BITMAP
3FC0
3FC0
3000
7000
7000
7F00
7F00
7000
6000
E000
E000
E000
ENDCHAR
STARTCHAR 0047
ENCODING 71
SWIDTH 660 0
DWIDTH 11 0
BBX 10 12 1 0
BITMAP
1F00
3F80
71C0
61C0
E000
E000
E780
E780
E380
E380
7F80
3F00
ENDCHAR
STARTCHAR 0048
ENCODING 72
SWIDTH 660 0
DWIDTH 11 0
BBX 12 12 0 0
BITMAP
3870
3860
3060
70E0
70E0
7FE0
7FE0
70C0
61C0
E1C0
E1C0
E1C0
ENDCHAR
STARTCHAR 0049
ENCODING 73
SWIDTH 300 0
DWIDTH 5 0
BBX 5 12 0 0
BITMAP
38
38
38
30
70
70
70
70
70
60
E0
E0
ENDCHAR
STARTCHAR 004A
ENCODING 74
SWIDTH 540 0
DWIDTH 9 0
BBX 9 12 0 0
BITMAP
0180
0380
0380
0380
0380
0380
0300
0700
E700
E700
FE00
7C00
ENDCHAR
STARTCHAR 004B
ENCODING 75
SWIDTH 600 0
DWIDTH 10 0
BBX 11 12 0 0
BITMAP
38E0
39E0
33C0
7780
7700
7E00
7E00
7F00
7700
E780
E380
E380
ENDCHAR
STARTCHAR 004C
ENCODING 76
SWIDTH 540 0
DWIDTH 9 0
BBX 8 12 0 0
BITMAP
38
38
30
70
70
70
70
70
60
E0
FF
FF
ENDCHAR
STARTCHAR 004D
ENCODING 77
SWIDTH 840 0
DWIDTH 14 0
BBX 14 12 0 0
BITMAP
3C1C
3C3C
3C3C
7C7C
7C7C
7CDC
7ED8
7798
67B8
E738
E738
E638
ENDCHAR
STARTCHAR 004E
ENCODING 78
SWIDTH 660 0
DWIDTH 11 0
BBX 12 12 0 0
BITMAP
3870
3860
3CE0
7CE0
7CE0
7EE0
76E0
77C0
63C0
E3C0
E3C0
E1C0
ENDCHAR
STARTCHAR 004F
ENCODING 79
SWIDTH 660 0
DWIDTH 11 0
BBX 10 12 1 0
BITMAP
1F00
3F80
7380
E1C0
E1C0
E1C0
E1C0
C1C0
E380
E780
7F00
3E00
ENDCHAR
STARTCHAR 0050
ENCODING 80
SWIDTH 660 0
DWIDTH 11 0
BBX 10 12 0 0
BITMAP
3F00
3FC0
31C0
70C0
70C0
71C0
7F80
7F00
6000
E000
E000
E000
ENDCHAR
STARTCHAR 0051
ENCODING 81
SWIDTH 660 0
DWIDTH 11 0
BBX 10 14 1 -2
BITMAP
1F00
3F80
7380
E1C0
E1C0
E1C0
E1C0
C1C0
E380
E380
7F00
3E00
0700
0300
ENDCHAR
STARTCHAR 0052
ENCODING 82
SWIDTH 660 0
DWIDTH 11 0
BBX 10 12 0 0
BITMAP
3F00
3FC0
31C0
70C0
71C0
73C0
7F80
7F00
6700
E380
E380
E380
ENDCHAR
STARTCHAR 0053
ENCODING 83
SWIDTH 600 0
DWIDTH 10 0
BBX 10 12 0 0
BITMAP
0F80
3FC0
39C0
31C0
3800
3E00
0F80
0380
E180
E380
7F80
3F00
ENDCHAR
STARTCHAR 0054
ENCODING 84
SWIDTH 600 0
DWIDTH 10 0
BBX 10 12 1 0
BITMAP
FFC0
FFC0
1C00
1C00
1C00
1C00
1C00
1800
3800
3800
3800
3800
ENDCHAR
STARTCHAR 0055
ENCODING 85
SWIDTH 660 0
DWIDTH 11 0
BBX 10 12 1 0
BITMAP
71C0
71C0
61C0
E1C0
E180
E380
E380
E380
E380
E700
FF00
7E00
ENDCHAR
STARTCHAR 0056
ENCODING 86
SWIDTH 660 0
DWIDTH 11 0
BBX 11 12 1 0
BITMAP
E0E0
E1C0
E1C0
6380
7380
7700
7700
7600
7E00
3C00
3C00
3800
ENDCHAR
STARTCHAR 0057
ENCODING 87
SWIDTH 840 0
DWIDTH 14 0
BBX 14 12 1 0
BITMAP
E31C
E718
E738
E738
EFB0
6FF0
6FF0
7BE0
79E0
79E0
71C0
71C0
ENDCHAR
STARTCHAR 0058
ENCODING 88
SWIDTH 600 0
DWIDTH 10 0
BBX 11 12 0 0
BITMAP
70E0
39C0
39C0
1B80
1F00
1F00
1E00
3F00
3F00
7300
E380
E380
ENDCHAR
STARTCHAR 0059
ENCODING 89
SWIDTH 600 0
DWIDTH 10 0
BBX 10 12 1 0
BITMAP
E1C0
61C0
7380
7700
3700
3E00
3C00
1C00
3800
3800
3800
3800
ENDCHAR
STARTCHAR 005A
ENCODING 90
SWIDTH 600 0
DWIDTH 10 0
BBX 11 12 0 0
BITMAP
3FE0
7FC0
01C0
0380
0700
0E00
1C00
3800
3800
7000
FF80
FF80
ENDCHAR
STARTCHAR 005B
ENCODING 91
SWIDTH 300 0
DWIDTH 5 0
BBX 6 17 0 -3
BITMAP
3C
3C
38
30
30
70
70
70
70
60
60
E0
E0
E0
E0
E0
E0
ENDCHAR
STARTCHAR 005C
ENCODING 92
SWIDTH 420 0
DWIDTH 7 0
BBX 5 13 1 -1
BITMAP
E0
E0
60
60
70
70
70
30
30
38
38
38
18
ENDCHAR
STARTCHAR 005D
ENCODING 93
SWIDTH 300 0
DWIDTH 5 0
BBX 6 17 -1 -3
BITMAP
3C
3C
1C
1C
18
18
38
38
38
38
38
30
30
70
70
F0
F0
ENDCHAR
STARTCHAR 005E
ENCODING 94
SWIDTH 420 0
DWIDTH 7 0
BBX 6 6 1 6
BITMAP
18
38
68
6C
CC
CC
ENDCHAR
STARTCHAR 005F
ENCODING 95
SWIDTH 420 0
DWIDTH 7 0
BBX 7 2 -1 -2
BITMAP
FE
FE
ENDCHAR
STARTCHAR 0060
ENCODING 96
SWIDTH 360 0
DWIDTH 6 0
BBX 3 3 2 10
BITMAP
40
E0
60
ENDCHAR
STARTCHAR 0061
ENCODING 97
SWIDTH 540 0
DWIDTH 9 0
BBX 8 9 0 0
BITMAP
1E
7F
77
07
7F
E7
E6
FE
76
ENDCHAR
STARTCHAR 0062
ENCODING 98
SWIDTH 540 0
DWIDTH 9 0
BBX 9 13 0 0
BITMAP
3800
3800
3000
3000
7E00
7F00
7380
7380
6380
6300
E700
FF00
FE00
ENDCHAR
STARTCHAR 0063
ENCODING 99
SWIDTH 480 0
DWIDTH 8 0
BBX 8 9 0 0
BITMAP
1E
3F
73
63
E0
E0
67
7E
3C
ENDCHAR
STARTCHAR 0064
ENCODING 100
SWIDTH 540 0
DWIDTH 9 0
BBX 10 13 0 0
BITMAP
01C0
0180
0180
0380
3F80
7F80
7380
6300
E300
E700
E700
7F00
7F00
ENDCHAR
STARTCHAR 0065
ENCODING 101
SWIDTH 540 0
DWIDTH 9 0
BBX 8 9 0 0
BITMAP
1E
3F
73
63
FF
E0
62
7F
3E
ENDCHAR
STARTCHAR 0066
ENCODING 102
SWIDTH 360 0
DWIDTH 6 0
BBX 6 13 1 0
BITMAP
1C
3C
78
70
F8
F8
60
E0
E0
E0
E0
C0
C0
ENDCHAR
STARTCHAR 0067
ENCODING 103
SWIDTH 540 0
DWIDTH 9 0
BBX 9 12 0 -4
BITMAP
1D80
3F80
7380
6380
E380
E300
E700
7F00
7F00
0700
FE00
FC00
ENDCHAR
STARTCHAR 0068
ENCODING 104
SWIDTH 540 0
DWIDTH 9 0
BBX 8 13 0 0
BITMAP
38
30
30
70
7F
7F
73
63
63
E7
E7
E7
E7
ENDCHAR
STARTCHAR 0069
ENCODING 105
SWIDTH 300 0
DWIDTH 5 0
BBX 5 12 0 0
BITMAP
38
38
00
30
70
70
70
70
60
E0
E0
E0
ENDCHAR
STARTCHAR 006A
ENCODING 106
SWIDTH 240 0
DWIDTH 4 0
BBX 7 16 -2 -4
BITMAP
0E
0E
00
0C
1C
1C
1C
1C
18
18
38
38
38
F0
F0
C0
ENDCHAR
STARTCHAR 006B
ENCODING 107
SWIDTH 540 0
DWIDTH 9 0
BBX 9 13 0 0
BITMAP
3800
3800
3000
3000
7380
7700
7E00
7C00
7C00
7E00
EE00
E700
E700
ENDCHAR
STARTCHAR 006C
ENCODING 108
SWIDTH 300 0
DWIDTH 5 0
BBX 5 13 0 0
BITMAP
38
38
38
30
70
70
70
70
60
60
E0
E0
E0
ENDCHAR
STARTCHAR 006D
ENCODING 109
SWIDTH 840 0
DWIDTH 14 0
BBX 13 9 0 0
BITMAP
7770
7FF8
73B8
7318
6338
6738
E738
E738
E730
ENDCHAR
STARTCHAR 006E
ENCODING 110
SWIDTH 540 0
DWIDTH 9 0
BBX 9 9 0 0
BITMAP
7700
7F00
7380
6300
6300
E700
E700
E700
E700
ENDCHAR
STARTCHAR 006F
ENCODING 111
SWIDTH 540 0
DWIDTH 9 0
BBX 9 9 0 0
BITMAP
1E00
3F00
7300
6380
E380
E300
E700
7F00
3C00
ENDCHAR
STARTCHAR 0070
ENCODING 112
SWIDTH 540 0
DWIDTH 9 0
BBX 10 12 -1 -3
BITMAP
3F00
3F80
39C0
39C0
31C0
3180
7380
7F80
7F00
7000
6000
E000
ENDCHAR
STARTCHAR 0071
ENCODING 113
SWIDTH 540 0
DWIDTH 9 0
BBX 9 12 0 -3
BITMAP
3D80
7F80
7380
6300
E300
E700
E700
7F00
7F00
0600
0600
0E00
ENDCHAR
STARTCHAR 0072
ENCODING 114
SWIDTH 360 0
DWIDTH 6 0
BBX 7 9 0 0
BITMAP
7E
7C
7C
70
60
60
E0
E0
E0
ENDCHAR
STARTCHAR 0073
ENCODING 115
SWIDTH 480 0
DWIDTH 8 0
BBX 8 9 0 0
BITMAP
3E
7F
67
70
7E
1E
C6
FE
7C
ENDCHAR
STARTCHAR 0074
ENCODING 116
SWIDTH 360 0
DWIDTH 6 0
BBX 5 11 1 0
BITMAP
70
70
F8
F8
E0
E0
E0
E0
C0
F0
F0
ENDCHAR
STARTCHAR 0075
ENCODING 117
SWIDTH 540 0
DWIDTH 9 0
BBX 9 9 0 0
BITMAP
7380
7380
7380
7380
6300
6300
E700
7F00
7F00
ENDCHAR
STARTCHAR 0076
ENCODING 118
SWIDTH 480 0
DWIDTH 8 0
BBX 8 9 1 0
BITMAP
C7
E6
EE
EC
FC
78
78
78
70
ENDCHAR
STARTCHAR 0077
ENCODING 119
SWIDTH 720 0
DWIDTH 12 0
BBX 11 9 1 0
BITMAP
CC60
CEE0
CEC0
DEC0
DFC0
F780
F780
E700
E700
ENDCHAR
STARTCHAR 0078
ENCODING 120
SWIDTH 480 0
DWIDTH 8 0
BBX 9 9 0 0
BITMAP
7380
7700
3E00
3E00
3C00
3C00
7E00
EE00
E600
ENDCHAR
STARTCHAR 0079
ENCODING 121
SWIDTH 480 0
DWIDTH 8 0
BBX 9 13 0 -4
BITMAP
6380
7380
7700
7600
7E00
3C00
3C00
3800
3800
3000
F000
E000
C000
ENDCHAR
STARTCHAR 007A
ENCODING 122
SWIDTH 480 0
DWIDTH 8 0
BBX 8 9 0 0
BITMAP
7F
7F
0E
1E
1C
38
70
FE
FE
ENDCHAR
STARTCHAR 007B
ENCODING 123
SWIDTH 300 0
DWIDTH 5 0
BBX 6 16 0 -3
BITMAP
0C
1C
18
38
30
30
30
E0
E0
60
60
60
60
60
70
30
ENDCHAR
STARTCHAR 007C
ENCODING 124
SWIDTH 240 0
DWIDTH 4 0
BBX 4 14 0 -2
BITMAP
30
30
30
20
20
20
60
60
60
40
40
40
40
C0
ENDCHAR
STARTCHAR 007D
ENCODING 125
SWIDTH 300 0
DWIDTH 5 0
BBX 6 16 -1 -3
BITMAP
10
38
18
18
18
18
18
1C
1C
38
30
30
30
70
E0
40
ENDCHAR
STARTCHAR 007E
ENCODING 126
SWIDTH 600 0
DWIDTH 10 0
BBX 9 4 1 3
BITMAP
7180
FB00
DF00
8E00
ENDCHAR
STARTCHAR 00A0
ENCODING 160
SWIDTH 240 0
DWIDTH 4 0
BBX 0 0 0 0
BITMAP
ENDCHAR
STARTCHAR 00A1
ENCODING 161
SWIDTH 300 0
DWIDTH 5 0
BBX 4 12 0 -3
BITMAP
30
70
30
00
60
60
60
60
E0
E0
E0
E0
ENDCHAR
STARTCHAR 00A2
ENCODING 162
SWIDTH 600 0
DWIDTH 10 0
BBX 8 13 1 -2
BITMAP
0C
08
3C
7E
E7
E7
C0
C0
CE
FE
7C
30
30
ENDCHAR
STARTCHAR 00A3
ENCODING 163
SWIDTH 600 0
DWIDTH 10 0
BBX 10 12 0 0
BITMAP
0F80
1FC0
1DC0
1800
3800
7F00
7E00
3800
3800
3000
FF80
FF80
ENDCHAR
STARTCHAR 00A4
ENCODING 164
SWIDTH 660 0
DWIDTH 11 0
BBX 11 10 0 0
BITMAP
2F60
3FE0
30C0
6040
4040
4040
40C0
6180
F380
DE80
ENDCHAR
STARTCHAR 00A5
ENCODING 165
SWIDTH 540 0
DWIDTH 9 0
BBX 10 12 0 0
BITMAP
71C0
3380
3380
3F00
3E00
1E00
7F00
FF00
FF00
FE00
3800
3800
ENDCHAR
STARTCHAR 00A6
ENCODING 166
SWIDTH 240 0
DWIDTH 4 0
BBX 4 14 0 -2
BITMAP
30
30
30
30
70
70
00
00
60
60
E0
C0
C0
C0
ENDCHAR
STARTCHAR 00A7
ENCODING 167
SWIDTH 600 0
DWIDTH 10 0
BBX 10 16 0 -4
BITMAP
0F00
3F80
39C0
3000
3C00
3F00
7F80
6380
7380
7F80
3F00
0700
C300
FF00
7E00
1800
ENDCHAR
STARTCHAR 00A8
ENCODING 168
SWIDTH 480 0
DWIDTH 8 0
BBX 6 2 2 10
BITMAP
CC
CC
ENDCHAR
STARTCHAR 00A9
ENCODING 169
SWIDTH 780 0
DWIDTH 13 0
BBX 11 12 1 0
BITMAP
0F00
30C0
6440
5F20
9120
9020
9020
9120
9A40
4CC0
6180
3E00
ENDCHAR
STARTCHAR 00AA
ENCODING 170
SWIDTH 420 0
DWIDTH 7 0
BBX 5 6 2 6
BITMAP
70
D8
18
F8
90
F0
ENDCHAR
STARTCHAR 00AB
ENCODING 171
SWIDTH 480 0
DWIDTH 8 0
BBX 7 6 1 1
BITMAP
6E
CC
D8
D8
D8
4C
ENDCHAR
STARTCHAR 00AC
ENCODING 172
SWIDTH 540 0
DWIDTH 9 0
BBX 7 4 1 3
BITMAP
FE
FE
06
04
ENDCHAR
STARTCHAR 00AD
ENCODING 173
SWIDTH 420 0
DWIDTH 7 0
BBX 5 2 1 4
BITMAP
F8
F8
ENDCHAR
STARTCHAR 00AE
ENCODING 174
SWIDTH 780 0
DWIDTH 13 0
BBX 11 12 1 0
BITMAP
0F00
30C0
6040
4F20
9920
9320
9E20
9120
9340
40C0
6180
3E00
ENDCHAR
STARTCHAR 00AF
ENCODING 175
SWIDTH 480 0
DWIDTH 8 0
BBX 6 2 2 10
BITMAP
FC
FC
ENDCHAR
STARTCHAR 00B0
ENCODING 176
SWIDTH 420 0
DWIDTH 7 0
BBX 4 4 2 7
BITMAP
70
D0
90
F0
ENDCHAR
STARTCHAR 00B1
ENCODING 177
SWIDTH 540 0
DWIDTH 9 0
BBX 8 11 0 0
BITMAP
0C
0C
0C
7F
7F
1C
18
18
00
FE
FE
ENDCHAR
STARTCHAR 00B2
ENCODING 178
SWIDTH 360 0
DWIDTH 6 0
BBX 5 7 1 5
BITMAP
70
F8
18
38
60
F8
F8
ENDCHAR
STARTCHAR 00B3
ENCODING 179
SWIDTH 360 0
DWIDTH 6 0
BBX 5 7 1 5
BITMAP
78
F8
18
30
18
F8
60
ENDCHAR
STARTCHAR 00B4
ENCODING 180
SWIDTH 360 0
DWIDTH 6 0
BBX 4 3 2 10
BITMAP
70
60
C0
ENDCHAR
STARTCHAR 00B5
ENCODING 181
SWIDTH 600 0
DWIDTH 10 0
BBX 10 12 0 -3
BITMAP
31C0
71C0
7180
7180
7380
7380
7380
FF80
FF00
E000
E000
C000
ENDCHAR
STARTCHAR 00B6
ENCODING 182
SWIDTH 480 0
DWIDTH 8 0
BBX 7 12 1 0
BITMAP
1E
7E
7E
FE
FE
FC
7C
3C
0C
0C
08
18
ENDCHAR
STARTCHAR 00B7
ENCODING 183
SWIDTH 300 0
DWIDTH 5 0
BBX 3 3 1 4
BITMAP
60
E0
60
ENDCHAR
STARTCHAR 00B8
ENCODING 184
SWIDTH 300 0
DWIDTH 5 0
BBX 3 4 0 -4
BITMAP
C0
60
E0
C0
ENDCHAR
STARTCHAR 00B9
ENCODING 185
SWIDTH 360 0
DWIDTH 6 0
BBX 3 7 2 5
BITMAP
20
E0
60
60
60
60
40
ENDCHAR
STARTCHAR 00BA
ENCODING 186
SWIDTH 420 0
DWIDTH 7 0
BBX 5 6 2 6
BITMAP
70
D8
88
88
98
F0
ENDCHAR
STARTCHAR 00BB
ENCODING 187
SWIDTH 480 0
DWIDTH 8 0
BBX 7 6 0 1
BITMAP
64
36
32
36
6C
C8
ENDCHAR
STARTCHAR 00BC
ENCODING 188
SWIDTH 720 0
DWIDTH 12 0
BBX 8 12 2 0
BITMAP
20
E1
63
66
4C
48
DB
37
6F
DF
9F
02
ENDCHAR
STARTCHAR 00BD
ENCODING 189
SWIDTH 720 0
DWIDTH 12 0
BBX 10 12 1 0
BITMAP
1000
7100
B100
2300
2600
6D00
7BC0
1E40
30C0
6180
4700
07C0
ENDCHAR
STARTCHAR 00BE
ENCODING 190
SWIDTH 780 0
DWIDTH 13 0
BBX 11 12 1 0
BITMAP
7800
7C40
08C0
3880
0980
FB00
36E0
0DE0
0940
1BE0
13E0
00C0
ENDCHAR
STARTCHAR 00BF
ENCODING 191
SWIDTH 480 0
DWIDTH 8 0
BBX 7 12 0 -3
BITMAP
0C
0C
0C
00
18
38
78
E0
E0
EE
FE
7C
ENDCHAR
STARTCHAR 00C0
ENCODING 192
SWIDTH 660 0
DWIDTH 11 0
BBX 11 15 -1 0
BITMAP
0300
0380
0180
0380
0380
0780
07C0
0FC0
0DC0
1CC0
38C0
3FE0
7FE0
70E0
E0E0
ENDCHAR
STARTCHAR 00C1
ENCODING 193
SWIDTH 660 0
DWIDTH 11 0
BBX 11 15 -1 0
BITMAP
00E0
01C0
0180
0380
0380
0780
07C0
0FC0
0DC0
1CC0
38C0
3FE0
7FE0
70E0
E0E0
ENDCHAR
STARTCHAR 00C2
ENCODING 194
SWIDTH 660 0
DWIDTH 11 0
BBX 11 15 -1 0
BITMAP
0180
07E0
0000
0380
0380
0780
07C0
0FC0
0DC0
1CC0
38C0
3FE0
7FE0
70E0
E0E0
ENDCHAR
STARTCHAR 00C3
ENCODING 195
SWIDTH 660 0
DWIDTH 11 0
BBX 11 15 -1 0
BITMAP
0360
07E0
0000
0380
0380
0780
07C0
0FC0
0DC0
1CC0
38C0
3FE0
7FE0
70E0
E0E0
ENDCHAR
STARTCHAR 00C4
ENCODING 196
SWIDTH 660 0
DWIDTH 11 0
BBX 11 15 -1 0
BITMAP
0660
0660
0000
0380
0380
0780
07C0
0FC0
0DC0
1CC0
38C0
3FE0
7FE0
70E0
E0E0
ENDCHAR
STARTCHAR 00C5
ENCODING 197
SWIDTH 660 0
DWIDTH 11 0
BBX 11 16 -1 0
BITMAP
0180
0340
0240
0180
0380
0380
0780
07C0
0FC0
0DC0
1CC0
38C0
3FE0
7FE0
70E0
E0E0
ENDCHAR
STARTCHAR 00C6
ENCODING 198
SWIDTH 900 0
DWIDTH 15 0
BBX 15 12 0 0
BITMAP
01FE
03FE
07E0
07C0
0EC0
0CFC
1DFC
3FC0
3FC0
71C0
E1FC
E1FC
ENDCHAR
STARTCHAR 00C7
ENCODING 199
SWIDTH 660 0
DWIDTH 11 0
BBX 10 16 1 -4
BITMAP
1F00
3F80
7380
E1C0
E000
E000
E000
C000
C380
E780
FF00
7E00
3800
1800
3800
3000
ENDCHAR
STARTCHAR 00C8
ENCODING 200
SWIDTH 540 0
DWIDTH 9 0
BBX 10 15 0 0
BITMAP
0E00
0600
0300
3FC0
3FC0
3000
7000
7000
7F00
7F00
7000
6000
E000
FF00
FF00
ENDCHAR
STARTCHAR 00C9
ENCODING 201
SWIDTH 540 0
DWIDTH 9 0
BBX 10 15 0 0
BITMAP
01C0
0300
0600
3FC0
3FC0
3000
7000
7000
7F00
7F00
7000
6000
E000
FF00
FF00
ENDCHAR
STARTCHAR 00CA
ENCODING 202
SWIDTH 540 0
DWIDTH 9 0
BBX 10 15 0 0
BITMAP
0700
0D80
0000
3FC0
3FC0
3000
7000
7000
7F00
7F00
7000
6000
E000
FF00
FF00
ENDCHAR
STARTCHAR 00CB
ENCODING 203
SWIDTH 540 0
DWIDTH 9 0
BBX 10 15 0 0
BITMAP
0880
1DC0
0000
3FC0
3FC0
3000
7000
7000
7F00
7F00
7000
6000
E000
FF00
FF00
ENDCHAR
STARTCHAR 00CC
ENCODING 204
SWIDTH 300 0
DWIDTH 5 0
BBX 5 15 0 0
BITMAP
70
30
18
38
38
38
30
70
70
70
70
70
60
E0
E0
ENDCHAR
STARTCHAR 00CD
ENCODING 205
SWIDTH 300 0
DWIDTH 5 0
BBX 7 15 0 0
BITMAP
0E
1C
38
38
38
38
30
70
70
70
70
70
60
E0
E0
ENDCHAR
STARTCHAR 00CE
ENCODING 206
SWIDTH 300 0
DWIDTH 5 0
BBX 7 15 0 0
BITMAP
18
7C
02
38
38
38
30
70
70
70
70
70
60
E0
E0
ENDCHAR
STARTCHAR 00CF
ENCODING 207
SWIDTH 300 0
DWIDTH 5 0
BBX 7 15 0 0
BITMAP
66
66
00
38
38
38
30
70
70
70
70
70
60
E0
E0
ENDCHAR
STARTCHAR 00D0
ENCODING 208
SWIDTH 660 0
DWIDTH 11 0
BBX 10 12 0 0
BITMAP
3F00
3F80
3BC0
39C0
30C0
FCC0
FDC0
71C0
71C0
6380
7F00
FE00
ENDCHAR
STARTCHAR 00D1
ENCODING 209
SWIDTH 660 0
DWIDTH 11 0
BBX 12 15 0 0
BITMAP
0640
0FC0
0000
3870
3860
3CE0
7CE0
7CE0
7EE0
76E0
77C0
63C0
E3C0
E3C0
E1C0
ENDCHAR
STARTCHAR 00D2
ENCODING 210
SWIDTH 660 0
DWIDTH 11 0
BBX 10 15 1 0
BITMAP
0C00
0E00
0600
1F00
3F80
7380
E1C0
E1C0
E1C0
E1C0
C1C0
E380
E780
7F00
3E00
ENDCHAR
STARTCHAR 00D3
ENCODING 211
SWIDTH 660 0
DWIDTH 11 0
BBX 10 15 1 0
BITMAP
0380
0700
0600
1F00
3F80
7380
E1C0
E1C0
E1C0
E1C0
C1C0
E380
E780
7F00
3E00
ENDCHAR
STARTCHAR 00D4
ENCODING 212
SWIDTH 660 0
DWIDTH 11 0
BBX 10 15 1 0
BITMAP
0700
1F80
0000
1F00
3F80
7380
E1C0
E1C0
E1C0
E1C0
C1C0
E380
E780
7F00
3E00
ENDCHAR
STARTCHAR 00D5
ENCODING 213
SWIDTH 660 0
DWIDTH 11 0
BBX 10 15 1 0
BITMAP
0D80
1F80
0000
1F00
3F80
7380
E1C0
E1C0
E1C0
E1C0
C1C0
E380
E780
7F00
3E00
ENDCHAR
STARTCHAR 00D6
ENCODING 214
SWIDTH 660 0
DWIDTH 11 0
BBX 10 15 1 0
BITMAP
1980
1980
0000
1F00
3F80
7380
E1C0
E1C0
E1C0
E1C0
C1C0
E380
E780
7F00
3E00
ENDCHAR
STARTCHAR 00D7
ENCODING 215
SWIDTH 540 0
DWIDTH 9 0
BBX 8 7 0 3
BITMAP
63
37
3E
1C
3E
F6
46
ENDCHAR
STARTCHAR 00D8
ENCODING 216
SWIDTH 660 0
DWIDTH 11 0
BBX 11 13 0 -1
BITMAP
0FE0
1FC0
38E0
31E0
73E0
76E0
74E0
6CE0
79C0
71C0
7F80
7F00
C000
ENDCHAR
STARTCHAR 00D9
ENCODING 217
SWIDTH 660 0
DWIDTH 11 0
BBX 10 15 1 0
BITMAP
1C00
0C00
0600
71C0
71C0
61C0
E1C0
E180
E380
E380
E380
E380
E700
FF00
7E00
ENDCHAR
STARTCHAR 00DA
ENCODING 218
SWIDTH 660 0
DWIDTH 11 0
BBX 10 15 1 0
BITMAP
0380
0700
0E00
71C0
71C0
61C0
E1C0
E180
E380
E380
E380
E380
E700
FF00
7E00
ENDCHAR
STARTCHAR 00DB
ENCODING 219
SWIDTH 660 0
DWIDTH 11 0
BBX 10 15 1 0
BITMAP
0600
1F00
0080
71C0
71C0
61C0
E1C0
E180
E380
E380
E380
E380
E700
FF00
7E00
ENDCHAR
STARTCHAR 00DC
ENCODING 220
SWIDTH 660 0
DWIDTH 11 0
BBX 10 15 1 0
BITMAP
1980
1980
0000
71C0
71C0
61C0
E1C0
E180
E380
E380
E380
E380
E700
FF00
7E00
ENDCHAR
STARTCHAR 00DD
ENCODING 221
SWIDTH 600 0
DWIDTH 10 0
BBX 10 15 1 0
BITMAP
0380
0600
0C00
E1C0
61C0
7380
7700
3700
3E00
3C00
1C00
3800
3800
3800
3800
ENDCHAR
STARTCHAR 00DE
ENCODING 222
SWIDTH 600 0
DWIDTH 10 0
BBX 10 12 0 0
BITMAP
3800
3800
3E00
3F80
73C0
71C0
71C0
7380
7F80
FE00
E000
E000
ENDCHAR
STARTCHAR 00DF
ENCODING 223
SWIDTH 660 0
DWIDTH 11 0
BBX 10 13 0 0
BITMAP
0700
1F80
3B80
3980
3380
7300
7300
7380
7180
61C0
61C0
EF80
EF00
ENDCHAR
STARTCHAR 00E0
ENCODING 224
SWIDTH 540 0
DWIDTH 9 0
BBX 8 13 0 0
BITMAP
08
1C
0C
00
1E
7F
77
07
7F
E7
E6
FE
76
ENDCHAR
STARTCHAR 00E1
ENCODING 225
SWIDTH 540 0
DWIDTH 9 0
BBX 9 13 0 0
BITMAP
0380
0700
0E00
0000
1E00
7F00
7700
0700
7F00
E700
E600
FE00
7600
ENDCHAR
STARTCHAR 00E2
ENCODING 226
SWIDTH 540 0
DWIDTH 9 0
BBX 8 13 0 0
BITMAP
04
1E
33
00
1E
7F
77
07
7F
E7
E6
FE
76
ENDCHAR
STARTCHAR 00E3
ENCODING 227
SWIDTH 540 0
DWIDTH 9 0
BBX 8 13 0 0
BITMAP
01
3F
33
00
1E
7F
77
07
7F
E7
E6
FE
76
ENDCHAR
STARTCHAR 00E4
ENCODING 228
SWIDTH 540 0
DWIDTH 9 0
BBX 8 12 0 0
BITMAP
33
33
00
1E
7F
77
07
7F
E7
E6
FE
76
ENDCHAR
STARTCHAR 00E5
ENCODING 229
SWIDTH 540 0
DWIDTH 9 0
BBX 8 13 0 0
BITMAP
0E
0A
0E
00
1E
7F
77
07
7F
E7
E6
FE
76
ENDCHAR
STARTCHAR 00E6
ENCODING 230
SWIDTH 840 0
DWIDTH 14 0
BBX 13 9 0 0
BITMAP
1EF0
3FF8
7398
0318
7FF8
F700
E700
FFF0
7DF0
ENDCHAR
STARTCHAR 00E7
ENCODING 231
SWIDTH 480 0
DWIDTH 8 0
BBX 8 13 0 -4
BITMAP
1E
3F
73
63
E0
E0
67
7E
3C
38
1C
38
30
ENDCHAR
STARTCHAR 00E8
ENCODING 232
SWIDTH 540 0
DWIDTH 9 0
BBX 8 13 0 0
BITMAP
38
18
0C
00
1E
3F
73
63
FF
E0
62
7F
3E
ENDCHAR
STARTCHAR 00E9
ENCODING 233
SWIDTH 540 0
DWIDTH 9 0
BBX 9 13 0 0
BITMAP
0380
0700
0E00
0000
1E00
3F00
7300
6300
FF00
E000
6200
7F00
3E00
ENDCHAR
STARTCHAR 00EA
ENCODING 234
SWIDTH 540 0
DWIDTH 9 0
BBX 8 13 0 0
BITMAP
04
1E
33
00
1E
3F
73
63
FF
E0
62
7F
3E
ENDCHAR
STARTCHAR 00EB
ENCODING 235
SWIDTH 540 0
DWIDTH 9 0
BBX 8 12 0 0
BITMAP
33
33
00
1E
3F
73
63
FF
E0
62
7F
3E
ENDCHAR
STARTCHAR 00EC
ENCODING 236
SWIDTH 300 0
DWIDTH 5 0
BBX 4 12 0 0
BITMAP
70
30
00
30
70
70
70
70
60
60
E0
E0
ENDCHAR
STARTCHAR 00ED
ENCODING 237
SWIDTH 300 0
DWIDTH 5 0
BBX 6 12 0 0
BITMAP
1C
38
00
30
70
70
70
70
60
60
E0
E0
ENDCHAR
STARTCHAR 00EE
ENCODING 238
SWIDTH 300 0
DWIDTH 5 0
BBX 6 12 0 0
BITMAP
38
EC
00
30
70
70
70
70
60
60
E0
E0
ENDCHAR
STARTCHAR 00EF
ENCODING 239
SWIDTH 300 0
DWIDTH 5 0
BBX 7 12 0 0
BITMAP
CC
CE
00
30
70
70
70
70
60
60
E0
E0
ENDCHAR
STARTCHAR 00F0
ENCODING 240
SWIDTH 540 0
DWIDTH 9 0
BBX 9 13 0 0
BITMAP
0800
1F80
0F00
0F00
0380
1F80
7F80
7380
E380
E380
E700
7E00
3C00
ENDCHAR
STARTCHAR 00F1
ENCODING 241
SWIDTH 540 0
DWIDTH 9 0
BBX 9 13 0 0
BITMAP
0100
1F80
3300
0000
7700
7F00
7380
6300
6300
E700
E700
E700
E700
ENDCHAR
STARTCHAR 00F2
ENCODING 242
SWIDTH 540 0
DWIDTH 9 0
BBX 9 13 0 0
BITMAP
0800
1C00
0C00
0000
1E00
3F00
7300
6380
E380
E300
E700
7F00
3C00
ENDCHAR
STARTCHAR 00F3
ENCODING 243
SWIDTH 540 0
DWIDTH 9 0
BBX 9 13 0 0
BITMAP
0380
0700
0E00
0000
1E00
3F00
7300
6380
E380
E300
E700
7F00
3C00
ENDCHAR
STARTCHAR 00F4
ENCODING 244
SWIDTH 540 0
DWIDTH 9 0
BBX 9 13 0 0
BITMAP
0400
0E00
3B00
0000
1E00
3F00
7300
6380
E380
E300
E700
7F00
3C00
ENDCHAR
STARTCHAR 00F5
ENCODING 245
SWIDTH 540 0
DWIDTH 9 0
BBX 9 13 0 0
BITMAP
0100
1F80
3300
0000
1E00
3F00
7300
6380
E380
E300
E700
7F00
3C00
ENDCHAR
STARTCHAR 00F6
ENCODING 246
SWIDTH 540 0
DWIDTH 9 0
BBX 9 12 0 0
BITMAP
3B80
3180
0000
1E00
3F00
7300
6380
E380
E300
E700
7F00
3C00
ENDCHAR
STARTCHAR 00F7
ENCODING 247
SWIDTH 540 0
DWIDTH 9 0
BBX 8 9 1 1
BITMAP
1C
1C
00
FF
FF
00
10
38
30
ENDCHAR
STARTCHAR 00F8
ENCODING 248
SWIDTH 540 0
DWIDTH 9 0
BBX 9 11 0 -1
BITMAP
0180
1F00
3F00
7700
6F80
EB80
FB00
F700
7E00
7C00
4000
ENDCHAR
STARTCHAR 00F9
ENCODING 249
SWIDTH 540 0
DWIDTH 9 0
BBX 9 13 0 0
BITMAP
0800
1C00
0C00
0000
7380
7380
7380
7380
6300
6300
E700
7F00
7F00
ENDCHAR
STARTCHAR 00FA
ENCODING 250
SWIDTH 540 0
DWIDTH 9 0
BBX 9 13 0 0
BITMAP
0380
0700
0600
0000
7380
7380
7380
7380
6300
6300
E700
7F00
7F00
ENDCHAR
STARTCHAR 00FB
ENCODING 251
SWIDTH 540 0
DWIDTH 9 0
BBX 9 13 0 0
BITMAP
0600
0F00
3B80
0000
7380
7380
7380
7380
6300
6300
E700
7F00
7F00
ENDCHAR
STARTCHAR 00FC
ENCODING 252
SWIDTH 540 0
DWIDTH 9 0
BBX 9 12 0 0
BITMAP
3980
1B80
0000
7380
7380
7380
7380
6300
6300
E700
7F00
7F00
ENDCHAR
STARTCHAR 00FD
ENCODING 253
SWIDTH 480 0
DWIDTH 8 0
BBX 9 17 0 -4
BITMAP
0380
0700
0E00
0000
6380
7380
7700
7600
7E00
3C00
3C00
3800
3800
3000
F000
E000
C000
ENDCHAR
STARTCHAR 00FE
ENCODING 254
SWIDTH 540 0
DWIDTH 9 0
BBX 10 16 -1 -3
BITMAP
1C00
1C00
1800
1800
3F00
3F80
39C0
39C0
31C0
7180
7380
7F80
7F00
7000
6000
E000
ENDCHAR
STARTCHAR 00FF
ENCODING 255
SWIDTH 480 0
DWIDTH 8 0
BBX 9 16 0 -4
BITMAP
3300
3300
0000
6380
7380
7700
7600
7E00
3C00
3C00
3800
3800
3000
F000
E000
C000
ENDCHAR
STARTCHAR 0100
ENCODING 256
SWIDTH 660 0
DWIDTH 11 0
BBX 11 14 -1 0
BITMAP
07E0
0000
0380
0380
0780
07C0
0FC0
0DC0
1CC0
38C0
3FE0
7FE0
70E0
E0E0
ENDCHAR
STARTCHAR 0101
ENCODING 257
SWIDTH 540 0
DWIDTH 9 0
BBX 8 12 0 0
BITMAP
1F
3F
00
1E
7F
77
07
7F
E7
E6
FE
76
ENDCHAR
STARTCHAR 0102
ENCODING 258
SWIDTH 660 0
DWIDTH 11 0
BBX 11 15 -1 0
BITMAP
0660
03C0
0000
0380
0380
0780
07C0
0FC0
0DC0
1CC0
38C0
3FE0
7FE0
70E0
E0E0
ENDCHAR
STARTCHAR 0103
ENCODING 259
SWIDTH 540 0
DWIDTH 9 0
BBX 8 13 0 0
BITMAP
11
1B
0E
00
1E
7F
77
07
7F
E7
E6
FE
76
ENDCHAR
STARTCHAR 0104
ENCODING 260
SWIDTH 660 0
DWIDTH 11 0
BBX 11 15 -1 -3
BITMAP
0380
0380
0780
07C0
0FC0
0DC0
1CC0
38C0
3FE0
7FE0
70E0
E0E0
01C0
0180
01C0
ENDCHAR
STARTCHAR 0105
ENCODING 261
SWIDTH 540 0
DWIDTH 9 0
BBX 8 12 0 -3
BITMAP
1E
7F
77
07
7F
E7
E6
FE
76
0C
0C
0E
ENDCHAR
STARTCHAR 0106
ENCODING 262
SWIDTH 660 0
DWIDTH 11 0
BBX 10 15 1 0
BITMAP
0380
0700
0600
1F00
3F80
7380
E1C0
E000
E000
E000
C000
C380
E780
FF00
7E00
ENDCHAR
STARTCHAR 0107
ENCODING 263
SWIDTH 480 0
DWIDTH 8 0
BBX 9 13 0 0
BITMAP
0380
0700
0E00
0000
1E00
3F00
7300
6300
E000
E000
6700
7E00
3C00
ENDCHAR
STARTCHAR 0108
ENCODING 264
SWIDTH 660 0
DWIDTH 11 0
BBX 10 15 1 0
BITMAP
0600
1F00
0080
1F00
3F80
7380
E1C0
E000
E000
E000
C000
C380
E780
FF00
7E00
ENDCHAR
STARTCHAR 0109
ENCODING 265
SWIDTH 480 0
DWIDTH 8 0
BBX 8 13 0 0
BITMAP
04
1E
33
00
1E
3F
73
63
E0
E0
67
7E
3C
ENDCHAR
STARTCHAR 010A
ENCODING 266
SWIDTH 660 0
DWIDTH 11 0
BBX 10 15 1 0
BITMAP
0600
0600
0000
1F00
3F80
7380
E1C0
E000
E000
E000
C000
C380
E780
FF00
7E00
ENDCHAR
STARTCHAR 010B
ENCODING 267
SWIDTH 480 0
DWIDTH 8 0
BBX 8 13 0 0
BITMAP
04
0E
0C
00
1E
3F
73
63
E0
E0
67
7E
3C
ENDCHAR
STARTCHAR 010C
ENCODING 268
SWIDTH 660 0
DWIDTH 11 0
BBX 10 15 1 0
BITMAP
1980
0F00
0000
1F00
3F80
7380
E1C0
E000
E000
E000
C000
C380
E780
FF00
7E00
ENDCHAR
STARTCHAR 010D
ENCODING 269
SWIDTH 480 0
DWIDTH 8 0
BBX 9 13 0 0
BITMAP
3380
1F00
0C00
0000
1E00
3F00
7300
6300
E000
E000
6700
7E00
3C00
ENDCHAR
STARTCHAR 010E
ENCODING 270
SWIDTH 660 0
DWIDTH 11 0
BBX 10 15 0 0
BITMAP
3B00
0E00
0000
3E00
3F80
33C0
71C0
71C0
71C0
71C0
71C0
6380
E780
FF00
FC00
ENDCHAR
STARTCHAR 010F
ENCODING 271
SWIDTH 600 0
DWIDTH 10 0
BBX 13 13 0 0
BITMAP
01D8
0198
01B0
03B0
3F80
7F80
7380
6300
E300
E700
E700
7F00
7F00
ENDCHAR
STARTCHAR 0110
ENCODING 272
SWIDTH 660 0
DWIDTH 11 0
BBX 10 12 0 0
BITMAP
3F00
3F80
3BC0
39C0
30C0
FCC0
FDC0
71C0
71C0
6380
7F00
FE00
ENDCHAR
STARTCHAR 0111
ENCODING 273
SWIDTH 660 0
DWIDTH 11 0
BBX 10 13 0 0
BITMAP
01C0
0180
07C0
0380
3F80
7F80
7380
6300
E300
E700
E700
7F00
7F00
ENDCHAR
STARTCHAR 0112
ENCODING 274
SWIDTH 540 0
DWIDTH 9 0
BBX 10 14 0 0
BITMAP
0F80
0000
3FC0
3FC0
3000
7000
7000
7F00
7F00
7000
6000
E000
FF00
FF00
ENDCHAR
STARTCHAR 0113
ENCODING 275
SWIDTH 540 0
DWIDTH 9 0
BBX 8 12 0 0
BITMAP
3F
3F
00
1E
3F
73
63
FF
E0
62
7F
3E
ENDCHAR
STARTCHAR 0114
ENCODING 276
SWIDTH 540 0
DWIDTH 9 0
BBX 10 15 0 0
BITMAP
0CC0
0F80
0000
3FC0
3FC0
3000
7000
7000
7F00
7F00
7000
6000
E000
FF00
FF00
ENDCHAR
STARTCHAR 0115
ENCODING 277
SWIDTH 540 0
DWIDTH 9 0
BBX 8 13 0 0
BITMAP
33
1F
0E
00
1E
3F
73
63
FF
E0
62
7F
3E
ENDCHAR
STARTCHAR 0116
ENCODING 278
SWIDTH 540 0
DWIDTH 9 0
BBX 10 15 0 0
BITMAP
0700
0700
0000
3FC0
3FC0
3000
7000
7000
7F00
7F00
7000
6000
E000
FF00
FF00
ENDCHAR
STARTCHAR 0117
ENCODING 279
SWIDTH 540 0
DWIDTH 9 0
BBX 8 13 0 0
BITMAP
04
0E
0C
00
1E
3F
73
63
FF
E0
62
7F
3E
ENDCHAR
STARTCHAR 0118
ENCODING 280
SWIDTH 540 0
DWIDTH 9 0
BBX 10 15 0 -3
BITMAP
3FC0
3FC0
3000
7000
7000
7F00
7F00
7000
6000
E000
FF00
FF00
0C00
1800
1C00
ENDCHAR
STARTCHAR 0119
ENCODING 281
SWIDTH 540 0
DWIDTH 9 0
BBX 9 12 0 -3
BITMAP
1E00
3F00
7300
6380
FF00
E000
6200
7F00
3E00
1800
1C00
1C00
ENDCHAR
STARTCHAR 011A
ENCODING 282
SWIDTH 540 0
DWIDTH 9 0
BBX 10 15 0 0
BITMAP
0DC0
0700
0000
3FC0
3FC0
3000
7000
7000
7F00
7F00
7000
6000
E000
FF00
FF00
ENDCHAR
STARTCHAR 011B
ENCODING 283
SWIDTH 540 0
DWIDTH 9 0
BBX 9 13 0 0
BITMAP
3380
1F00
0C00
0000
1E00
3F00
7300
6300
FF00
E000
6200
7F00
3E00
ENDCHAR
STARTCHAR 011C
ENCODING 284
SWIDTH 660 0
DWIDTH 11 0
BBX 10 15 1 0
BITMAP
0700
0F80
1000
1F00
3F80
71C0
61C0
E000
E000
E780
E780
E380
E380
7F80
3F00
ENDCHAR
STARTCHAR 011D
ENCODING 285
SWIDTH 540 0
DWIDTH 9 0
BBX 9 16 0 -4
BITMAP
0400
0E00
3B00
0000
1D80
3F80
7380
6380
E380
E300
E700
7F00
7F00
0700
FE00
FC00
ENDCHAR
STARTCHAR 011E
ENCODING 286
SWIDTH 660 0
DWIDTH 11 0
BBX 10 15 1 0
BITMAP
1980
0F80
0000
1F00
3F80
71C0
61C0
E000
E000
E780
E780
E380
E380
7F80
3F00
ENDCHAR
STARTCHAR 011F
ENCODING 287
SWIDTH 540 0
DWIDTH 9 0
BBX 9 16 0 -4
BITMAP
1980
1B00
0E00
0000
1D80
3F80
7380
6380
E380
E300
E700
7F00
7F00
0700
FE00
FC00
ENDCHAR
STARTCHAR 0120
ENCODING 288
SWIDTH 660 0
DWIDTH 11 0
BBX 10 15 1 0
BITMAP
0600
0600
0000
1F00
3F80
71C0
61C0
E000
E000
E780
E780
E380
E380
7F80
3F00
ENDCHAR
STARTCHAR 0121
ENCODING 289
SWIDTH 540 0
DWIDTH 9 0
BBX 9 16 0 -4
BITMAP
0400
0E00
0400
0000
1D80
3F80
7380
6380
E380
E300
E700
7F00
7F00
0700
FE00
FC00
ENDCHAR
STARTCHAR 0122
ENCODING 290
SWIDTH 660 0
DWIDTH 11 0
BBX 10 16 1 -4
BITMAP
1F00
3F80
71C0
61C0
E000
E000
E780
E780
E380
E380
7F80
3F00
0000
1800
3000
3000
ENDCHAR
STARTCHAR 0123
ENCODING 291
SWIDTH 540 0
DWIDTH 9 0
BBX 9 17 0 -4
BITMAP
0600
0600
0C00
0C00
0000
1D80
3F80
7380
6380
E380
E300
E700
7F00
7F00
0700
FE00
FC00
ENDCHAR
STARTCHAR 0124
ENCODING 292
SWIDTH 660 0
DWIDTH 11 0
BBX 12 15 0 0
BITMAP
0380
06C0
0800
3870
3860
3060
70E0
70E0
7FE0
7FE0
70C0
61C0
E1C0
E1C0
E1C0
ENDCHAR
STARTCHAR 0125
ENCODING 293
SWIDTH 540 0
DWIDTH 9 0
BBX 9 16 0 0
BITMAP
0600
0F00
3980
3800
3000
3000
7000
7F00
7F00
7300
6300
6300
E700
E700
E700
E700
ENDCHAR
STARTCHAR 0126
ENCODING 294
SWIDTH 720 0
DWIDTH 12 0
BBX 12 12 0 0
BITMAP
3870
3870
7FF0
3060
30E0
7FE0
7FE0
70E0
70C0
61C0
E1C0
E1C0
ENDCHAR
STARTCHAR 0127
ENCODING 295
SWIDTH 540 0
DWIDTH 9 0
BBX 9 13 0 0
BITMAP
3800
3800
FC00
3000
3700
7F80
7380
7380
7380
6300
E300
E700
E700
ENDCHAR
STARTCHAR 0128
ENCODING 296
SWIDTH 300 0
DWIDTH 5 0
BBX 7 15 0 0
BITMAP
36
7E
00
38
38
38
30
70
70
70
70
70
60
E0
E0
ENDCHAR
STARTCHAR 0129
ENCODING 297
SWIDTH 300 0
DWIDTH 5 0
BBX 6 12 0 0
BITMAP
7C
DC
00
30
70
70
70
70
60
60
E0
E0
ENDCHAR
STARTCHAR 012A
ENCODING 298
SWIDTH 300 0
DWIDTH 5 0
BBX 7 14 0 0
BITMAP
7E
00
38
38
38
30
70
70
70
70
70
60
E0
E0
ENDCHAR
STARTCHAR 012B
ENCODING 299
SWIDTH 300 0
DWIDTH 5 0
BBX 6 12 0 0
BITMAP
7C
7C
00
30
70
70
70
70
60
60
E0
E0
ENDCHAR
STARTCHAR 012C
ENCODING 300
SWIDTH 300 0
DWIDTH 5 0
BBX 7 15 0 0
BITMAP
66
3C
00
38
38
38
30
70
70
70
70
70
60
E0
E0
ENDCHAR
STARTCHAR 012D
ENCODING 301
SWIDTH 300 0
DWIDTH 5 0
BBX 6 12 0 0
BITMAP
6C
78
00
30
70
70
70
70
60
60
E0
E0
ENDCHAR
STARTCHAR 012E
ENCODING 302
SWIDTH 300 0
DWIDTH 5 0
BBX 6 15 -1 -3
BITMAP
1C
1C
1C
18
38
38
38
38
38
30
70
70
60
C0
E0
ENDCHAR
STARTCHAR 012F
ENCODING 303
SWIDTH 300 0
DWIDTH 5 0
BBX 6 15 -1 -3
BITMAP
1C
1C
00
18
38
38
38
38
30
70
70
70
E0
C0
E0
ENDCHAR
STARTCHAR 0130
ENCODING 304
SWIDTH 300 0
DWIDTH 5 0
BBX 5 15 0 0
BITMAP
18
18
00
38
38
38
30
70
70
70
70
70
60
E0
E0
ENDCHAR
STARTCHAR 0131
ENCODING 305
SWIDTH 300 0
DWIDTH 5 0
BBX 4 9 0 0
BITMAP
30
70
70
70
70
60
60
E0
E0
ENDCHAR
STARTCHAR 0132
ENCODING 306
SWIDTH 840 0
DWIDTH 14 0
BBX 14 12 0 0
BITMAP
380C
381C
381C
301C
701C
701C
7018
7038
7738
6738
E7F0
E3E0
ENDCHAR
STARTCHAR 0133
ENCODING 307
SWIDTH 540 0
DWIDTH 9 0
BBX 9 16 0 -4
BITMAP
3B80
3B80
0000
3380
7380
7300
7300
7700
6700
E700
E700
E600
0600
3E00
3C00
1800
ENDCHAR
STARTCHAR 0134
ENCODING 308
SWIDTH 540 0
DWIDTH 9 0
BBX 11 15 0 0
BITMAP
01C0
0360
0400
0180
0380
0380
0380
0380
0380
0300
0700
E700
E700
FE00
7C00
ENDCHAR
STARTCHAR 0135
ENCODING 309
SWIDTH 300 0
DWIDTH 5 0
BBX 8 16 -2 -4
BITMAP
0E
3B
00
0C
0C
1C
1C
1C
1C
18
18
38
38
F8
F0
C0
ENDCHAR
STARTCHAR 0136
ENCODING 310
SWIDTH 600 0
DWIDTH 10 0
BBX 11 16 0 -4
BITMAP
38E0
39E0
33C0
7780
7700
7E00
7E00
7F00
7700
E780
E380
E380
1800
1800
1000
1000
ENDCHAR
STARTCHAR 0137
ENCODING 311
SWIDTH 540 0
DWIDTH 9 0
BBX 9 17 0 -4
BITMAP
3800
3800
3000
3000
7380
7700
7E00
7C00
7C00
7E00
EE00
E700
E700
1000
1000
3000
2000
ENDCHAR
STARTCHAR 0138
ENCODING 312
SWIDTH 600 0
DWIDTH 10 0
BBX 10 9 0 0
BITMAP
33C0
7380
7700
7F00
7E00
7E00
6F00
E700
E700
ENDCHAR
STARTCHAR 0139
ENCODING 313
SWIDTH 540 0
DWIDTH 9 0
BBX 8 15 0 0
BITMAP
0E
1C
38
38
38
30
70
70
70
70
70
60
E0
FF
FF
ENDCHAR
STARTCHAR 013A
ENCODING 314
SWIDTH 300 0
DWIDTH 5 0
BBX 7 16 0 0
BITMAP
0E
1C
18
38
38
38
30
70
70
70
70
60
60
E0
E0
E0
ENDCHAR
STARTCHAR 013B
ENCODING 315
SWIDTH 540 0
DWIDTH 9 0
BBX 8 16 0 -4
BITMAP
38
38
30
70
70
70
70
70
60
E0
FF
FF
00
10
30
30
ENDCHAR
STARTCHAR 013C
ENCODING 316
SWIDTH 300 0
DWIDTH 5 0
BBX 6 17 -1 -4
BITMAP
1C
1C
1C
18
38
38
38
38
30
30
70
70
70
00
60
60
C0
ENDCHAR
STARTCHAR 013D
ENCODING 317
SWIDTH 540 0
DWIDTH 9 0
BBX 9 12 0 0
BITMAP
3980
3900
3300
7000
7000
7000
7000
7000
6000
E000
FF00
FF00
ENDCHAR
STARTCHAR 013E
ENCODING 318
SWIDTH 360 0
DWIDTH 6 0
BBX 8 13 0 0
BITMAP
3B
3B
3E
36
70
70
70
70
60
60
E0
E0
E0
ENDCHAR
STARTCHAR 013F
ENCODING 319
SWIDTH 540 0
DWIDTH 9 0
BBX 8 12 0 0
BITMAP
38
38
30
70
76
77
70
70
60
E0
FF
FF
ENDCHAR
STARTCHAR 0140
ENCODING 320
SWIDTH 360 0
DWIDTH 6 0
BBX 7 13 0 0
BITMAP
38
38
38
30
70
70
76
76
60
60
E0
E0
E0
ENDCHAR
STARTCHAR 0141
ENCODING 321
SWIDTH 540 0
DWIDTH 9 0
BBX 8 12 0 0
BITMAP
38
38
38
38
3C
7C
F0
70
70
70
7F
FF
ENDCHAR
STARTCHAR 0142
ENCODING 322
SWIDTH 300 0
DWIDTH 5 0
BBX 5 13 0 0
BITMAP
18
38
38
38
38
38
78
F0
70
70
60
60
E0
ENDCHAR
STARTCHAR 0143
ENCODING 323
SWIDTH 660 0
DWIDTH 11 0
BBX 12 15 0 0
BITMAP
01C0
0180
0300
3870
3860
3CE0
7CE0
7CE0
7EE0
76E0
77C0
63C0
E3C0
E3C0
E1C0
ENDCHAR
STARTCHAR 0144
ENCODING 324
SWIDTH 540 0
DWIDTH 9 0
BBX 9 13 0 0
BITMAP
0380
0700
0600
0000
7700
7F00
7380
6300
6300
E700
E700
E700
E700
ENDCHAR
STARTCHAR 0145
ENCODING 325
SWIDTH 660 0
DWIDTH 11 0
BBX 12 16 0 -4
BITMAP
3870
3860
3CE0
7CE0
7CE0
7EE0
76E0
77C0
63C0
E3C0
E3C0
E1C0
0000
0C00
1800
1800
ENDCHAR
STARTCHAR 0146
ENCODING 326
SWIDTH 540 0
DWIDTH 9 0
BBX 9 13 0 -4
BITMAP
7700
7F00
7380
6300
6300
E700
E700
E700
E700
0000
1000
3000
2000
ENDCHAR
STARTCHAR 0147
ENCODING 327
SWIDTH 660 0
DWIDTH 11 0
BBX 12 15 0 0
BITMAP
0EC0
0780
0000
3870
3860
3CE0
7CE0
7CE0
7EE0
76E0
77C0
63C0
E3C0
E3C0
E1C0
ENDCHAR
STARTCHAR 0148
ENCODING 328
SWIDTH 540 0
DWIDTH 9 0
BBX 9 13 0 0
BITMAP
3980
1F00
0E00
0000
7700
7F00
7380
6300
6300
E700
E700
E700
E700
ENDCHAR
STARTCHAR 0149
ENCODING 329
SWIDTH 540 0
DWIDTH 9 0
BBX 9 13 0 0
BITMAP
6000
4000
C000
8000
7700
7F00
7380
6300
6300
E700
E700
E700
E700
ENDCHAR
STARTCHAR 014A
ENCODING 330
SWIDTH 720 0
DWIDTH 12 0
BBX 12 16 0 -4
BITMAP
3870
3870
3C60
3CE0
7CE0
7EE0
76E0
77E0
63C0
E3C0
E3C0
E1C0
01C0
0780
0780
0600
ENDCHAR
STARTCHAR 014B
ENCODING 331
SWIDTH 540 0
DWIDTH 9 0
BBX 8 13 0 -4
BITMAP
77
7F
73
73
63
E7
E7
E7
E7
07
1E
1E
18
ENDCHAR
STARTCHAR 014C
ENCODING 332
SWIDTH 660 0
DWIDTH 11 0
BBX 10 14 1 0
BITMAP
1F80
0000
1F00
3F80
7380
E1C0
E1C0
E1C0
E1C0
C1C0
E380
E780
7F00
3E00
ENDCHAR
STARTCHAR 014D
ENCODING 333
SWIDTH 540 0
DWIDTH 9 0
BBX 9 12 0 0
BITMAP
1F00
1F00
0000
1E00
3F00
7300
6380
E380
E300
E700
7F00
3C00
ENDCHAR
STARTCHAR 014E
ENCODING 334
SWIDTH 660 0
DWIDTH 11 0
BBX 10 15 1 0
BITMAP
1980
0F80
0000
1F00
3F80
7380
E1C0
E1C0
E1C0
E1C0
C1C0
E380
E780
7F00
3E00
ENDCHAR
STARTCHAR 014F
ENCODING 335
SWIDTH 540 0
DWIDTH 9 0
BBX 9 13 0 0
BITMAP
1980
1B00
0E00
0000
1E00
3F00
7300
6380
E380
E300
E700
7F00
3C00
ENDCHAR
STARTCHAR 0150
ENCODING 336
SWIDTH 660 0
DWIDTH 11 0
BBX 10 15 1 0
BITMAP
06C0
0D80
0000
1F00
3F80
7380
E1C0
E1C0
E1C0
E1C0
C1C0
E380
E780
7F00
3E00
ENDCHAR
STARTCHAR 0151
ENCODING 337
SWIDTH 540 0
DWIDTH 9 0
BBX 10 13 0 0
BITMAP
06C0
0D80
1B00
0000
1E00
3F00
7300
6380
E380
E300
E700
7F00
3C00
ENDCHAR
STARTCHAR 0152
ENCODING 338
SWIDTH 960 0
DWIDTH 16 0
BBX 15 12 1 0
BITMAP
1FFE
3FFE
71C0
E1C0
E1C0
E1FC
E3FC
C380
C380
E380
7FFC
3FF8
ENDCHAR
STARTCHAR 0153
ENCODING 339
SWIDTH 900 0
DWIDTH 15 0
BBX 13 9 1 0
BITMAP
3CF0
7FF8
E7B8
C738
C7F8
C700
C700
FFF0
7DF0
ENDCHAR
STARTCHAR 0154
ENCODING 340
SWIDTH 660 0
DWIDTH 11 0
BBX 10 15 0 0
BITMAP
0380
0700
0600
3F00
3FC0
31C0
70C0
71C0
73C0
7F80
7F00
6700
E380
E380
E380
ENDCHAR
STARTCHAR 0155
ENCODING 341
SWIDTH 360 0
DWIDTH 6 0
BBX 8 13 0 0
BITMAP
07
0E
1C
00
7E
7C
7C
70
60
60
E0
E0
E0
ENDCHAR
STARTCHAR 0156
ENCODING 342
SWIDTH 660 0
DWIDTH 11 0
BBX 10 16 0 -4
BITMAP
3F00
3FC0
31C0
70C0
71C0
73C0
7F80
7F00
6700
E380
E380
E380
0000
1800
1000
3000
ENDCHAR
STARTCHAR 0157
ENCODING 343
SWIDTH 360 0
DWIDTH 6 0
BBX 8 13 -1 -4
BITMAP
3F
3E
3E
38
30
30
70
70
70
00
60
60
C0
ENDCHAR
STARTCHAR 0158
ENCODING 344
SWIDTH 660 0
DWIDTH 11 0
BBX 10 15 0 0
BITMAP
1D80
0F00
0000
3F00
3FC0
31C0
70C0
71C0
73C0
7F80
7F00
6700
E380
E380
E380
ENDCHAR
STARTCHAR 0159
ENCODING 345
SWIDTH 360 0
DWIDTH 6 0
BBX 8 13 0 0
BITMAP
63
3E
1C
00
7E
7C
7C
70
60
60
E0
E0
E0
ENDCHAR
STARTCHAR 015A
ENCODING 346
SWIDTH 600 0
DWIDTH 10 0
BBX 10 15 0 0
BITMAP
01C0
0380
0700
0F80
3FC0
39C0
31C0
3800
3E00
0F80
0380
E180
E380
7F80
3F00
ENDCHAR
STARTCHAR 015B
ENCODING 347
SWIDTH 480 0
DWIDTH 8 0
BBX 8 13 0 0
BITMAP
07
06
0C
00
3E
7F
67
70
7E
1E
C6
FE
7C
ENDCHAR
STARTCHAR 015C
ENCODING 348
SWIDTH 600 0
DWIDTH 10 0
BBX 10 15 0 0
BITMAP
0700
0F80
0000
0F80
3FC0
39C0
31C0
3800
3E00
0F80
0380
E180
E380
7F80
3F00
ENDCHAR
STARTCHAR 015D
ENCODING 349
SWIDTH 480 0
DWIDTH 8 0
BBX 8 13 0 0
BITMAP
0C
1E
33
00
3E
7F
67
70
7E
1E
C6
FE
7C
ENDCHAR
STARTCHAR 015E
ENCODING 350
SWIDTH 600 0
DWIDTH 10 0
BBX 10 16 0 -4
BITMAP
0F80
3FC0
39C0
31C0
3800
3E00
0F80
0380
E180
E380
7F80
3F00
1800
0C00
1C00
1800
ENDCHAR
STARTCHAR 015F
ENCODING 351
SWIDTH 480 0
DWIDTH 8 0
BBX 8 13 0 -4
BITMAP
3E
7F
67
70
7E
1E
C6
FE
7C
30
18
38
30
ENDCHAR
STARTCHAR 0160
ENCODING 352
SWIDTH 600 0
DWIDTH 10 0
BBX 10 15 0 0
BITMAP
0DC0
0780
0000
0F80
3FC0
39C0
31C0
3800
3E00
0F80
0380
E180
E380
7F80
3F00
ENDCHAR
STARTCHAR 0161
ENCODING 353
SWIDTH 480 0
DWIDTH 8 0
BBX 9 13 0 0
BITMAP
3380
1F00
0C00
0000
3E00
7F00
6700
7000
7E00
1E00
C600
FE00
7C00
ENDCHAR
STARTCHAR 0162
ENCODING 354
SWIDTH 600 0
DWIDTH 10 0
BBX 10 16 1 -4
BITMAP
FFC0
FFC0
1C00
1C00
1C00
1C00
1C00
1800
3800
3800
3800
3800
3000
1800
3800
3000
ENDCHAR
STARTCHAR 0163
ENCODING 355
SWIDTH 360 0
DWIDTH 6 0
BBX 5 15 1 -4
BITMAP
70
70
F8
F8
E0
E0
E0
E0
C0
F0
F0
C0
60
E0
C0
ENDCHAR
STARTCHAR 0164
ENCODING 356
SWIDTH 600 0
DWIDTH 10 0
BBX 10 15 1 0
BITMAP
1B80
0E00
0000
FFC0
FFC0
1C00
1C00
1C00
1C00
1C00
1800
3800
3800
3800
3800
ENDCHAR
STARTCHAR 0165
ENCODING 357
SWIDTH 360 0
DWIDTH 6 0
BBX 7 14 1 0
BITMAP
02
02
06
74
70
F8
F8
E0
E0
E0
E0
C0
F0
F0
ENDCHAR
STARTCHAR 0166
ENCODING 358
SWIDTH 600 0
DWIDTH 10 0
BBX 10 12 1 0
BITMAP
FFC0
FFC0
1C00
1C00
1C00
7E00
1C00
1800
3800
3800
3800
3800
ENDCHAR
STARTCHAR 0167
ENCODING 359
SWIDTH 360 0
DWIDTH 6 0
BBX 6 11 0 0
BITMAP
38
38
7C
7C
70
FC
F8
70
60
78
78
ENDCHAR
STARTCHAR 0168
ENCODING 360
SWIDTH 660 0
DWIDTH 11 0
BBX 10 15 1 0
BITMAP
1D80
1F80
0000
71C0
71C0
61C0
E1C0
E180
E380
E380
E380
E380
E700
FF00
7E00
ENDCHAR
STARTCHAR 0169
ENCODING 361
SWIDTH 540 0
DWIDTH 9 0
BBX 9 13 0 0
BITMAP
0100
1F80
3300
0000
7380
7380
7380
7380
6300
6300
E700
7F00
7F00
ENDCHAR
STARTCHAR 016A
ENCODING 362
SWIDTH 660 0
DWIDTH 11 0
BBX 10 14 1 0
BITMAP
1F80
0000
71C0
71C0
61C0
E1C0
E180
E380
E380
E380
E380
E700
FF00
7E00
ENDCHAR
STARTCHAR 016B
ENCODING 363
SWIDTH 540 0
DWIDTH 9 0
BBX 9 12 0 0
BITMAP
1F00
1F00
0000
7380
7380
7380
7380
6300
6300
E700
7F00
7F00
ENDCHAR
STARTCHAR 016C
ENCODING 364
SWIDTH 660 0
DWIDTH 11 0
BBX 10 15 1 0
BITMAP
1980
0F00
0000
71C0
71C0
61C0
E1C0
E180
E380
E380
E380
E380
E700
FF00
7E00
ENDCHAR
STARTCHAR 016D
ENCODING 365
SWIDTH 540 0
DWIDTH 9 0
BBX 9 13 0 0
BITMAP
1980
1B00
0F00
0000
7380
7380
7380
7380
6300
6300
E700
7F00
7F00
ENDCHAR
STARTCHAR 016E
ENCODING 366
SWIDTH 660 0
DWIDTH 11 0
BBX 10 16 1 0
BITMAP
0600
0900
0B00
0400
71C0
71C0
61C0
E1C0
E180
E380
E380
E380
E380
E700
FF00
7E00
ENDCHAR
STARTCHAR 016F
ENCODING 367
SWIDTH 540 0
DWIDTH 9 0
BBX 9 13 0 0
BITMAP
0E00
0900
0E00
0000
7380
7380
7380
7380
6300
6300
E700
7F00
7F00
ENDCHAR
STARTCHAR 0170
ENCODING 368
SWIDTH 660 0
DWIDTH 11 0
BBX 10 15 1 0
BITMAP
06C0
0D80
1200
71C0
71C0
61C0
E1C0
E180
E380
E380
E380
E380
E700
FF00
7E00
ENDCHAR
STARTCHAR 0171
ENCODING 369
SWIDTH 540 0
DWIDTH 9 0
BBX 10 13 0 0
BITMAP
06C0
0D80
1B00
0000
7380
7380
7380
7380
6300
6300
E700
7F00
7F00
ENDCHAR
STARTCHAR 0172
ENCODING 370
SWIDTH 660 0
DWIDTH 11 0
BBX 10 15 1 -3
BITMAP
71C0
71C0
61C0
E1C0
E180
E380
E380
E380
E380
E700
FF00
7E00
1800
1C00
0C00
ENDCHAR
STARTCHAR 0173
ENCODING 371
SWIDTH 540 0
DWIDTH 9 0
BBX 9 12 0 -3
BITMAP
7380
7380
7380
7380
6300
6300
E700
7F00
7F00
0E00
0C00
0E00
ENDCHAR
STARTCHAR 0174
ENCODING 372
SWIDTH 840 0
DWIDTH 14 0
BBX 14 15 1 0
BITMAP
0380
06C0
0800
E31C
E718
E738
E738
EFB0
6FF0
6FF0
7BE0
79E0
79E0
71C0
71C0
ENDCHAR
STARTCHAR 0175
ENCODING 373
SWIDTH 720 0
DWIDTH 12 0
BBX 11 13 1 0
BITMAP
0600
0F00
1980
0000
CC60
CEE0
CEC0
DEC0
DFC0
F780
F780
E700
E700
ENDCHAR
STARTCHAR 0176
ENCODING 374
SWIDTH 600 0
DWIDTH 10 0
BBX 10 15 1 0
BITMAP
0E00
1B00
0000
E1C0
61C0
7380
7700
3700
3E00
3C00
1C00
3800
3800
3800
3800
ENDCHAR
STARTCHAR 0177
ENCODING 375
SWIDTH 480 0
DWIDTH 8 0
BBX 9 17 0 -4
BITMAP
0400
1E00
3300
0000
6380
7380
7700
7600
7E00
3C00
3C00
3800
3800
3000
F000
E000
C000
ENDCHAR
STARTCHAR 0178
ENCODING 376
SWIDTH 600 0
DWIDTH 10 0
BBX 10 15 1 0
BITMAP
1100
3B80
0000
E1C0
61C0
7380
7700
3700
3E00
3C00
1C00
3800
3800
3800
3800
ENDCHAR
STARTCHAR 0179
ENCODING 377
SWIDTH 600 0
DWIDTH 10 0
BBX 11 15 0 0
BITMAP
0180
0300
0600
3FE0
7FC0
01C0
0380
0700
0E00
1C00
3800
3800
7000
FF80
FF80
ENDCHAR
STARTCHAR 017A
ENCODING 378
SWIDTH 480 0
DWIDTH 8 0
BBX 9 13 0 0
BITMAP
0380
0700
0E00
0000
7F00
7F00
0E00
1E00
1C00
3800
7000
FE00
FE00
ENDCHAR
STARTCHAR 017B
ENCODING 379
SWIDTH 600 0
DWIDTH 10 0
BBX 11 15 0 0
BITMAP
0700
0700
0000
3FE0
7FC0
01C0
0380
0700
0E00
1C00
3800
3800
7000
FF80
FF80
ENDCHAR
STARTCHAR 017C
ENCODING 380
SWIDTH 480 0
DWIDTH 8 0
BBX 8 13 0 0
BITMAP
04
0E
0C
00
7F
7F
0E
1E
1C
38
70
FE
FE
ENDCHAR
STARTCHAR 017D
ENCODING 381
SWIDTH 600 0
DWIDTH 10 0
BBX 11 15 0 0
BITMAP
0DC0
0700
0000
3FE0
7FC0
01C0
0380
0700
0E00
1C00
3800
3800
7000
FF80
FF80
ENDCHAR
STARTCHAR 017E
ENCODING 382
SWIDTH 480 0
DWIDTH 8 0
BBX 9 13 0 0
BITMAP
3180
1F00
0E00
0000
7F00
7F00
0E00
1E00
1C00
3800
7000
FE00
FE00
ENDCHAR
STARTCHAR 017F
ENCODING 383
SWIDTH 240 0
DWIDTH 4 0
BBX 7 13 0 0
BITMAP
0E
3C
38
70
70
70
70
70
60
E0
E0
E0
E0
ENDCHAR
STARTCHAR 018F
ENCODING 399
SWIDTH 660 0
DWIDTH 11 0
BBX 10 12 1 0
BITMAP
7F00
7F80
23C0
01C0
01C0
FFC0
FFC0
C1C0
C380
E780
FF00
7E00
ENDCHAR
STARTCHAR 0192
ENCODING 402
SWIDTH 360 0
DWIDTH 6 0
BBX 8 17 -1 -4
BITMAP
07
0F
1C
1C
3E
7E
18
38
38
38
38
30
30
70
F0
E0
C0
ENDCHAR
STARTCHAR 01A0
ENCODING 416
SWIDTH 720 0
DWIDTH 12 0
BBX 12 13 1 0
BITMAP
0030
1F30
3FE0
73E0
E1C0
E1C0
E1C0
E1C0
C1C0
E380
E780
7F00
3E00
ENDCHAR
STARTCHAR 01A1
ENCODING 417
SWIDTH 600 0
DWIDTH 10 0
BBX 10 10 0 0
BITMAP
0040
1E40
3FC0
7380
6380
E380
E300
E700
7E00
3C00
ENDCHAR
STARTCHAR 01AF
ENCODING 431
SWIDTH 720 0
DWIDTH 12 0
BBX 13 13 1 0
BITMAP
0008
71C8
71D8
71F0
61C0
E1C0
E180
E380
E380
E380
E700
FF00
7E00
ENDCHAR
STARTCHAR 01B0
ENCODING 432
SWIDTH 600 0
DWIDTH 10 0
BBX 11 10 0 0
BITMAP
0020
73A0
73E0
7380
7380
6300
6300
E700
7F00
7F00
ENDCHAR
STARTCHAR 01F0
ENCODING 496
SWIDTH 300 0
DWIDTH 5 0
BBX 8 16 -2 -4
BITMAP
3F
0E
00
0C
0C
1C
1C
1C
1C
18
18
38
38
F8
F0
C0
ENDCHAR
STARTCHAR 01FA
ENCODING 506
SWIDTH 660 0
DWIDTH 11 0
BBX 11 16 -1 0
BITMAP
00E0
0000
0380
02C0
0380
0380
0780
07C0
0FC0
0DC0
1CC0
38C0
3FE0
7FE0
70E0
E0E0
ENDCHAR
STARTCHAR 01FB
ENCODING 507
SWIDTH 540 0
DWIDTH 9 0
BBX 9 14 0 0
BITMAP
0380
0600
0C00
1A00
0E00
1E00
7F00
7700
0700
7F00
E700
E600
FE00
7600
ENDCHAR
STARTCHAR 01FC
ENCODING 508
SWIDTH 900 0
DWIDTH 15 0
BBX 15 15 0 0
BITMAP
0070
00E0
0000
01FE
03FE
07E0
07C0
0EC0
0CFC
1DFC
3FC0
3FC0
71C0
E1FC
E1FC
ENDCHAR
STARTCHAR 01FD
ENCODING 509
SWIDTH 840 0
DWIDTH 14 0
BBX 13 13 0 0
BITMAP
00E0
00C0
0180
0000
1EF0
3FF8
7398
0318
7FF8
F700
E700
FFF0
7DF0
ENDCHAR
STARTCHAR 01FE
ENCODING 510
SWIDTH 660 0
DWIDTH 11 0
BBX 11 17 0 -1
BITMAP
00E0
01C0
0380
0000
0FE0
1FC0
38E0
31E0
73E0
76E0
74E0
6CE0
79C0
71C0
7F80
7F00
C000
ENDCHAR
STARTCHAR 01FF
ENCODING 511
SWIDTH 540 0
DWIDTH 9 0
BBX 9 13 0 -1
BITMAP
0700
0E00
0180
1F00
3F00
7700
6F80
EB80
FB00
F700
7E00
7C00
4000
ENDCHAR
STARTCHAR 0218
ENCODING 536
SWIDTH 600 0
DWIDTH 10 0
BBX 10 16 0 -4
BITMAP
0F80
3FC0
39C0
31C0
3800
3E00
0F80
0380
E180
E380
7F80
3F00
0000
1800
1800
3000
ENDCHAR
STARTCHAR 0219
ENCODING 537
SWIDTH 480 0
DWIDTH 8 0
BBX 8 13 0 -4
BITMAP
3E
7F
67
70
7E
1E
C6
FE
7C
00
30
30
60
ENDCHAR
STARTCHAR 021A
ENCODING 538
SWIDTH 600 0
DWIDTH 10 0
BBX 10 16 1 -4
BITMAP
FFC0
FFC0
1C00
1C00
1C00
1C00
1C00
1800
3800
3800
3800
3800
0000
3000
3000
6000
ENDCHAR
STARTCHAR 021B
ENCODING 539
SWIDTH 360 0
DWIDTH 6 0
BBX 6 15 0 -4
BITMAP
38
38
7C
7C
70
70
70
70
60
78
78
00
60
60
C0
ENDCHAR
STARTCHAR 0237
ENCODING 567
SWIDTH 300 0
DWIDTH 5 0
BBX 6 13 -2 -4
BITMAP
0C
0C
1C
1C
1C
1C
18
18
38
38
F8
F0
C0
ENDCHAR
STARTCHAR 0259
ENCODING 601
SWIDTH 540 0
DWIDTH 9 0
BBX 8 9 0 0
BITMAP
3C
7F
07
03
7F
E7
E7
7E
3C
ENDCHAR
STARTCHAR 02BC
ENCODING 700
SWIDTH 240 0
DWIDTH 4 0
BBX 2 5 2 8
BITMAP
C0
C0
C0
C0
80
ENDCHAR
STARTCHAR 02C6
ENCODING 710
SWIDTH 480 0
DWIDTH 8 0
BBX 6 3 2 10
BITMAP
30
78
CC
ENDCHAR
STARTCHAR 02C7
ENCODING 711
SWIDTH 480 0
DWIDTH 8 0
BBX 7 3 2 10
BITMAP
CE
7C
30
ENDCHAR
STARTCHAR 02C9
ENCODING 713
SWIDTH 540 0
DWIDTH 9 0
BBX 6 2 2 10
BITMAP
FC
FC
ENDCHAR
STARTCHAR 02D8
ENCODING 728
SWIDTH 420 0
DWIDTH 7 0
BBX 6 3 2 10
BITMAP
CC
D8
78
ENDCHAR
STARTCHAR 02D9
ENCODING 729
SWIDTH 300 0
DWIDTH 5 0
BBX 3 2 2 10
BITMAP
E0
C0
ENDCHAR
STARTCHAR 02DA
ENCODING 730
SWIDTH 300 0
DWIDTH 5 0
BBX 3 3 2 9
BITMAP
E0
A0
E0
ENDCHAR
STARTCHAR 02DB
ENCODING 731
SWIDTH 300 0
DWIDTH 5 0
BBX 3 3 -1 -3
BITMAP
60
C0
E0
ENDCHAR
STARTCHAR 02DC
ENCODING 732
SWIDTH 480 0
DWIDTH 8 0
BBX 6 3 2 10
BITMAP
44
FC
98
ENDCHAR
STARTCHAR 02DD
ENCODING 733
SWIDTH 420 0
DWIDTH 7 0
BBX 8 3 1 10
BITMAP
3F
7E
EC
ENDCHAR
STARTCHAR 02F3
ENCODING 755
SWIDTH 300 0
DWIDTH 5 0
BBX 3 3 0 -3
BITMAP
40
A0
E0
ENDCHAR
STARTCHAR 0300
ENCODING 768
SWIDTH 0 0
DWIDTH 0 0
BBX 3 3 -5 10
BITMAP
C0
C0
60
ENDCHAR
STARTCHAR 0301
ENCODING 769
SWIDTH 0 0
DWIDTH 0 0
BBX 4 3 -4 10
BITMAP
70
60
C0
ENDCHAR
STARTCHAR 0303
ENCODING 771
SWIDTH 0 0
DWIDTH 0 0
BBX 7 3 -7 10
BITMAP
24
7E
CC
ENDCHAR
STARTCHAR 0309
ENCODING 777
SWIDTH 0 0
DWIDTH 0 0
BBX 3 4 -5 10
BITMAP
C0
E0
60
C0
ENDCHAR
STARTCHAR 030F
ENCODING 783
SWIDTH 0 0
DWIDTH 0 0
BBX 7 2 -7 10
BITMAP
EC
7E
ENDCHAR
STARTCHAR 0323
ENCODING 803
SWIDTH 0 0
DWIDTH 0 0
BBX 3 2 -7 -3
BITMAP
E0
C0
ENDCHAR
STARTCHAR 0384
ENCODING 900
SWIDTH 360 0
DWIDTH 6 0
BBX 3 3 3 10
BITMAP
60
C0
C0
ENDCHAR
STARTCHAR 0385
ENCODING 901
SWIDTH 540 0
DWIDTH 9 0
BBX 7 5 2 10
BITMAP
0C
1C
18
C6
C6
ENDCHAR
STARTCHAR 0386
ENCODING 902
SWIDTH 660 0
DWIDTH 11 0
BBX 11 13 -1 0
BITMAP
1800
3B80
3380
0780
07C0
0FC0
0DC0
1CC0
38C0
3FE0
7FE0
70E0
E0E0
ENDCHAR
STARTCHAR 0387
ENCODING 903
SWIDTH 300 0
DWIDTH 5 0
BBX 3 3 1 4
BITMAP
60
E0
60
ENDCHAR
STARTCHAR 0388
ENCODING 904
SWIDTH 540 0
DWIDTH 9 0
BBX 12 13 -2 0
BITMAP
6000
CFF0
8FF0
0C00
1C00
1C00
1FC0
1FC0
1C00
1800
3800
3FC0
3FC0
ENDCHAR
STARTCHAR 0389
ENCODING 905
SWIDTH 660 0
DWIDTH 11 0
BBX 14 13 -2 0
BITMAP
6000
CE1C
8E18
0C18
1C38
1C38
1FF8
1FF8
1C30
1870
3870
3870
3870
ENDCHAR
STARTCHAR 038A
ENCODING 906
SWIDTH 300 0
DWIDTH 5 0
BBX 7 13 -2 0
BITMAP
60
CE
8E
0E
0C
1C
1C
1C
1C
1C
18
38
38
ENDCHAR
STARTCHAR 038C
ENCODING 908
SWIDTH 660 0
DWIDTH 11 0
BBX 12 13 -1 0
BITMAP
6000
67C0
CFE0
1C70
1C70
3870
3870
3870
3870
38E0
38E0
1FC0
0F80
ENDCHAR
STARTCHAR 038E
ENCODING 910
SWIDTH 660 0
DWIDTH 11 0
BBX 14 13 -2 0
BITMAP
6000
CE1C
CE38
0638
0770
0760
03E0
03C0
0380
0380
0380
0380
0380
ENDCHAR
STARTCHAR 038F
ENCODING 911
SWIDTH 660 0
DWIDTH 11 0
BBX 11 13 0 0
BITMAP
E000
CF80
9FC0
39C0
39E0
79E0
71C0
71C0
71C0
3180
3B00
7F80
F780
ENDCHAR
STARTCHAR 0390
ENCODING 912
SWIDTH 360 0
DWIDTH 6 0
BBX 7 14 0 0
BITMAP
1C
18
D6
C6
00
30
70
70
70
70
60
60
70
70
ENDCHAR
STARTCHAR 0391
ENCODING 913
SWIDTH 660 0
DWIDTH 11 0
BBX 11 12 -1 0
BITMAP
0380
0380
0780
07C0
0FC0
0DC0
1CC0
38C0
3FE0
7FE0
70E0
E0E0
ENDCHAR
STARTCHAR 0392
ENCODING 914
SWIDTH 660 0
DWIDTH 11 0
BBX 10 12 0 0
BITMAP
3F00
3FC0
31C0
71C0
71C0
7F80
7F80
7180
61C0
E380
FF80
FE00
ENDCHAR
STARTCHAR 0393
ENCODING 915
SWIDTH 540 0
DWIDTH 9 0
BBX 10 12 0 0
BITMAP
3FC0
3FC0
3000
7000
7000
7000
7000
7000
6000
E000
E000
E000
ENDCHAR
STARTCHAR 0394
ENCODING 916
SWIDTH 720 0
DWIDTH 12 0
BBX 12 12 -1 0
BITMAP
03C0
03C0
07C0
07C0
0EE0
0EE0
1CE0
1C60
3860
3870
7FF0
FFF0
ENDCHAR
STARTCHAR 0395
ENCODING 917
SWIDTH 540 0
DWIDTH 9 0
BBX 10 12 0 0
BITMAP
3FC0
3FC0
3000
7000
7000
7F00
7F00
7000
6000
E000
FF00
FF00
ENDCHAR
STARTCHAR 0396
ENCODING 918
SWIDTH 600 0
DWIDTH 10 0
BBX 11 12 0 0
BITMAP
3FE0
7FC0
01C0
0380
0700
0E00
1C00
3800
3800
7000
FF80
FF80
ENDCHAR
STARTCHAR 0397
ENCODING 919
SWIDTH 660 0
DWIDTH 11 0
BBX 12 12 0 0
BITMAP
3870
3860
3060
70E0
70E0
7FE0
7FE0
70C0
61C0
E1C0
E1C0
E1C0
ENDCHAR
STARTCHAR 0398
ENCODING 920
SWIDTH 660 0
DWIDTH 11 0
BBX 10 12 1 0
BITMAP
1F00
3F80
7380
E1C0
E1C0
EDC0
FDC0
C1C0
E380
E380
7F00
3E00
ENDCHAR
STARTCHAR 0399
ENCODING 921
SWIDTH 300 0
DWIDTH 5 0
BBX 5 12 0 0
BITMAP
38
38
38
30
70
70
70
70
70
60
E0
E0
ENDCHAR
STARTCHAR 039A
ENCODING 922
SWIDTH 600 0
DWIDTH 10 0
BBX 11 12 0 0
BITMAP
38E0
39E0
33C0
7780
7700
7E00
7E00
7F00
7700
E780
E380
E380
ENDCHAR
STARTCHAR 039B
ENCODING 923
SWIDTH 600 0
DWIDTH 10 0
BBX 10 12 -1 0
BITMAP
0380
0780
0780
0F80
0D80
1DC0
1DC0
39C0
39C0
71C0
71C0
E0C0
ENDCHAR
STARTCHAR 039C
ENCODING 924
SWIDTH 840 0
DWIDTH 14 0
BBX 14 12 0 0
BITMAP
3C1C
3C3C
3C3C
7C7C
7C7C
7CDC
7ED8
7798
67B8
E738
E738
E638
ENDCHAR
STARTCHAR 039D
ENCODING 925
SWIDTH 660 0
DWIDTH 11 0
BBX 12 12 0 0
BITMAP
3870
3860
3CE0
7CE0
7CE0
7EE0
76E0
77C0
63C0
E3C0
E3C0
E1C0
ENDCHAR
STARTCHAR 039E
ENCODING 926
SWIDTH 540 0
DWIDTH 9 0
BBX 9 12 0 0
BITMAP
3F80
3F80
0000
0000
0000
3F00
3F00
0000
0000
0000
FF00
FF00
ENDCHAR
STARTCHAR 039F
ENCODING 927
SWIDTH 660 0
DWIDTH 11 0
BBX 10 12 1 0
BITMAP
1F00
3F80
7380
E1C0
E1C0
E1C0
E1C0
C1C0
E380
E780
7F00
3E00
ENDCHAR
STARTCHAR 03A0
ENCODING 928
SWIDTH 660 0
DWIDTH 11 0
BBX 12 12 0 0
BITMAP
3FF0
3FF0
3060
70E0
70E0
70E0
70E0
70C0
60C0
E1C0
E1C0
E1C0
ENDCHAR
STARTCHAR 03A1
ENCODING 929
SWIDTH 660 0
DWIDTH 11 0
BBX 10 12 0 0
BITMAP
3F00
3FC0
31C0
70C0
70C0
71C0
7F80
7F00
6000
E000
E000
E000
ENDCHAR
STARTCHAR 03A3
ENCODING 931
SWIDTH 540 0
DWIDTH 9 0
BBX 10 12 0 0
BITMAP
3FC0
3FC0
3800
1C00
1C00
0E00
0E00
1C00
3800
7000
FF00
FF00
ENDCHAR
STARTCHAR 03A4
ENCODING 932
SWIDTH 600 0
DWIDTH 10 0
BBX 10 12 1 0
BITMAP
FFC0
FFC0
1C00
1C00
1C00
1C00
1C00
1800
3800
3800
3800
3800
ENDCHAR
STARTCHAR 03A5
ENCODING 933
SWIDTH 600 0
DWIDTH 10 0
BBX 10 12 1 0
BITMAP
E1C0
61C0
7380
7700
3700
3E00
3C00
1C00
3800
3800
3800
3800
ENDCHAR
STARTCHAR 03A6
ENCODING 934
SWIDTH 780 0
DWIDTH 13 0
BBX 12 12 1 0
BITMAP
0700
0700
3FC0
7FE0
E670
EE70
CE70
EEE0
FFE0
7FC0
1F00
1C00
ENDCHAR
STARTCHAR 03A7
ENCODING 935
SWIDTH 600 0
DWIDTH 10 0
BBX 11 12 0 0
BITMAP
70E0
39C0
39C0
1B80
1F00
1F00
1E00
3F00
3F00
7300
E380
E380
ENDCHAR
STARTCHAR 03A8
ENCODING 936
SWIDTH 720 0
DWIDTH 12 0
BBX 12 12 1 0
BITMAP
6770
E770
E670
EE70
EE60
EEE0
FFE0
7FC0
1F00
0C00
1C00
1C00
ENDCHAR
STARTCHAR 03A9
ENCODING 937
SWIDTH 660 0
DWIDTH 11 0
BBX 10 12 0 0
BITMAP
0F00
1FC0
39C0
79C0
71C0
71C0
71C0
71C0
3380
3300
F780
F780
ENDCHAR
STARTCHAR 03AA
ENCODING 938
SWIDTH 300 0
DWIDTH 5 0
BBX 7 15 0 0
BITMAP
66
66
00
38
38
38
30
70
70
70
70
70
60
E0
E0
ENDCHAR
STARTCHAR 03AB
ENCODING 939
SWIDTH 600 0
DWIDTH 10 0
BBX 10 15 1 0
BITMAP
1100
3B80
0000
E1C0
61C0
7380
7700
3700
3E00
3C00
1C00
3800
3800
3800
3800
ENDCHAR
STARTCHAR 03AC
ENCODING 940
SWIDTH 540 0
DWIDTH 9 0
BBX 9 13 0 0
BITMAP
0300
0600
0600
0000
1F80
7F80
7380
6300
E700
E700
E700
7F00
7B00
ENDCHAR
STARTCHAR 03AD
ENCODING 941
SWIDTH 540 0
DWIDTH 9 0
BBX 9 13 0 0
BITMAP
0300
0600
0600
0000
1E00
7F80
7380
7000
3C00
7000
E300
7F00
7E00
ENDCHAR
STARTCHAR 03AE
ENCODING 942
SWIDTH 540 0
DWIDTH 9 0
BBX 9 16 0 -3
BITMAP
0700
0600
0400
0000
7700
7F00
7380
7300
6300
E700
E700
E700
E700
0600
0600
0E00
ENDCHAR
STARTCHAR 03AF
ENCODING 943
SWIDTH 360 0
DWIDTH 6 0
BBX 5 13 1 0
BITMAP
38
30
60
00
60
E0
E0
E0
E0
C0
C0
E0
E0
ENDCHAR
STARTCHAR 03B0
ENCODING 944
SWIDTH 540 0
DWIDTH 9 0
BBX 8 15 1 0
BITMAP
06
06
0C
63
63
00
E6
E6
E6
E6
E6
CE
CE
FC
78
ENDCHAR
STARTCHAR 03B1
ENCODING 945
SWIDTH 540 0
DWIDTH 9 0
BBX 9 9 0 0
BITMAP
1F80
7F80
7380
6300
E700
E700
E700
7F00
7B00
ENDCHAR
STARTCHAR 03B2
ENCODING 946
SWIDTH 600 0
DWIDTH 10 0
BBX 10 15 0 -3
BITMAP
0F00
1F80
39C0
31C0
7380
7700
7700
7380
6380
6380
FF80
FF00
E000
E000
C000
ENDCHAR
STARTCHAR 03B3
ENCODING 947
SWIDTH 480 0
DWIDTH 8 0
BBX 8 12 1 -3
BITMAP
C7
E6
EE
EC
FC
F8
78
70
70
70
60
60
ENDCHAR
STARTCHAR 03B4
ENCODING 948
SWIDTH 540 0
DWIDTH 9 0
BBX 9 13 0 0
BITMAP
0F00
1F00
3800
3800
1E00
3F00
7300
6380
E380
E380
E700
7F00
3C00
ENDCHAR
STARTCHAR 03B5
ENCODING 949
SWIDTH 540 0
DWIDTH 9 0
BBX 9 9 0 0
BITMAP
1E00
7F80
7380
7000
3C00
7000
E300
7F00
7E00
ENDCHAR
STARTCHAR 03B6
ENCODING 950
SWIDTH 480 0
DWIDTH 8 0
BBX 9 15 0 -3
BITMAP
3F80
3F80
0700
0E00
1C00
3800
7000
6000
6000
E000
7C00
3E00
0E00
0C00
1800
ENDCHAR
STARTCHAR 03B7
ENCODING 951
SWIDTH 540 0
DWIDTH 9 0
BBX 9 12 0 -3
BITMAP
7700
7F00
7380
7300
6300
E700
E700
E700
E700
0600
0600
0E00
ENDCHAR
STARTCHAR 03B8
ENCODING 952
SWIDTH 600 0
DWIDTH 10 0
BBX 8 12 1 0
BITMAP
1E
3F
77
63
E3
FF
FF
E7
C7
E6
FE
7C
ENDCHAR
STARTCHAR 03B9
ENCODING 953
SWIDTH 360 0
DWIDTH 6 0
BBX 3 9 1 0
BITMAP
60
E0
E0
E0
E0
C0
C0
E0
E0
ENDCHAR
STARTCHAR 03BA
ENCODING 954
SWIDTH 600 0
DWIDTH 10 0
BBX 10 9 0 0
BITMAP
33C0
7380
7700
7F00
7E00
7E00
6F00
E700
E700
ENDCHAR
STARTCHAR 03BB
ENCODING 955
SWIDTH 540 0
DWIDTH 9 0
BBX 9 13 -1 0
BITMAP
1800
1E00
0E00
0E00
0E00
0E00
1F00
1F00
3F00
3B00
7380
7380
E180
ENDCHAR
STARTCHAR 03BC
ENCODING 956
SWIDTH 600 0
DWIDTH 10 0
BBX 10 12 0 -3
BITMAP
31C0
71C0
7180
7180
7380
7380
7380
FF80
FF00
E000
E000
C000
ENDCHAR
STARTCHAR 03BD
ENCODING 957
SWIDTH 480 0
DWIDTH 8 0
BBX 8 9 1 0
BITMAP
C7
E6
EE
EC
FC
78
78
78
70
ENDCHAR
STARTCHAR 03BE
ENCODING 958
SWIDTH 540 0
DWIDTH 9 0
BBX 8 15 1 -3
BITMAP
1F
3F
70
70
3C
3C
F0
E0
C0
E0
F8
3C
0C
1C
18
ENDCHAR
STARTCHAR 03BF
ENCODING 959
SWIDTH 540 0
DWIDTH 9 0
BBX 9 9 0 0
BITMAP
1E00
3F00
7300
6380
E380
E300
E700
7F00
3C00
ENDCHAR
STARTCHAR 03C0
ENCODING 960
SWIDTH 660 0
DWIDTH 11 0
BBX 10 9 1 0
BITMAP
FFC0
FFC0
7300
7700
7700
6700
E700
E780
E380
ENDCHAR
STARTCHAR 03C1
ENCODING 961
SWIDTH 540 0
DWIDTH 9 0
BBX 10 12 -1 -3
BITMAP
0F00
1F80
3980
39C0
31C0
7180
7380
7F80
7F00
7000
6000
E000
ENDCHAR
STARTCHAR 03C2
ENCODING 962
SWIDTH 480 0
DWIDTH 8 0
BBX 8 12 0 -3
BITMAP
1E
3F
77
E3
E0
E0
E0
78
3C
1C
1C
18
ENDCHAR
STARTCHAR 03C3
ENCODING 963
SWIDTH 540 0
DWIDTH 9 0
BBX 10 9 0 0
BITMAP
1FC0
3FC0
7700
6300
E300
E300
E700
7E00
3C00
ENDCHAR
STARTCHAR 03C4
ENCODING 964
SWIDTH 480 0
DWIDTH 8 0
BBX 8 9 1 0
BITMAP
FF
FF
38
38
30
30
70
38
38
ENDCHAR
STARTCHAR 03C5
ENCODING 965
SWIDTH 540 0
DWIDTH 9 0
BBX 7 9 1 0
BITMAP
E6
E6
E6
E6
E6
CE
CE
FC
78
ENDCHAR
STARTCHAR 03C6
ENCODING 966
SWIDTH 720 0
DWIDTH 12 0
BBX 12 13 0 -4
BITMAP
23C0
77E0
7770
6770
E670
E670
7EE0
7FE0
3F80
0E00
0E00
0C00
1C00
ENDCHAR
STARTCHAR 03C7
ENCODING 967
SWIDTH 480 0
DWIDTH 8 0
BBX 10 12 0 -4
BITMAP
71C0
7B80
3B00
1F00
1E00
1C00
1C00
3C00
3C00
7E00
EF00
E700
ENDCHAR
STARTCHAR 03C8
ENCODING 968
SWIDTH 720 0
DWIDTH 12 0
BBX 11 13 1 -4
BITMAP
E6E0
EEE0
EE60
CEE0
CCE0
CCE0
FDC0
FF80
7F00
1C00
1C00
1800
3800
ENDCHAR
STARTCHAR 03C9
ENCODING 969
SWIDTH 780 0
DWIDTH 13 0
BBX 13 9 0 0
BITMAP
3830
7038
7338
6738
E738
E738
E730
7FF0
79E0
ENDCHAR
STARTCHAR 03CA
ENCODING 970
SWIDTH 360 0
DWIDTH 6 0
BBX 7 12 0 0
BITMAP
CC
CE
00
30
70
70
70
70
60
60
70
70
ENDCHAR
STARTCHAR 03CB
ENCODING 971
SWIDTH 540 0
DWIDTH 9 0
BBX 8 12 1 0
BITMAP
73
37
00
E6
E6
E6
E6
E6
CE
CE
FC
78
ENDCHAR
STARTCHAR 03CC
ENCODING 972
SWIDTH 540 0
DWIDTH 9 0
BBX 9 13 0 0
BITMAP
0700
0600
0C00
0000
1E00
3F00
7300
6380
E380
E300
E700
7F00
3C00
ENDCHAR
STARTCHAR 03CD
ENCODING 973
SWIDTH 540 0
DWIDTH 9 0
BBX 7 13 1 0
BITMAP
0E
0C
08
00
E6
E6
E6
E6
E6
CE
CE
FC
78
ENDCHAR
STARTCHAR 03CE
ENCODING 974
SWIDTH 780 0
DWIDTH 13 0
BBX 13 13 0 0
BITMAP
01C0
0180
0100
0000
3830
7038
7338
6738
E738
E738
E730
7FF0
79E0
ENDCHAR
STARTCHAR 03D1
ENCODING 977
SWIDTH 600 0
DWIDTH 10 0
BBX 9 12 1 0
BITMAP
0F00
1F00
1B80
3B80
3B00
1F80
FF80
C780
C700
E700
FE00
7C00
ENDCHAR
STARTCHAR 03D2
ENCODING 978
SWIDTH 600 0
DWIDTH 10 0
BBX 10 12 1 0
BITMAP
E1C0
E3C0
7380
7700
3600
3E00
3C00
3C00
3800
3800
3800
3800
ENDCHAR
STARTCHAR 03D6
ENCODING 982
SWIDTH 840 0
DWIDTH 14 0
BBX 15 9 0 0
BITMAP
7FFE
FFFC
7018
6318
E718
E738
6738
7FF0
3DE0
ENDCHAR
STARTCHAR 0400
ENCODING 1024
SWIDTH 540 0
DWIDTH 9 0
BBX 10 15 0 0
BITMAP
0E00
0600
0300
3FC0
3FC0
3000
7000
7000
7F00
7F00
7000
6000
E000
FF00
FF00
ENDCHAR
STARTCHAR 0401
ENCODING 1025
SWIDTH 540 0
DWIDTH 9 0
BBX 10 15 0 0
BITMAP
0880
1DC0
0000
3FC0
3FC0
3000
7000
7000
7F00
7F00
7000
6000
E000
FF00
FF00
ENDCHAR
STARTCHAR 0402
ENCODING 1026
SWIDTH 720 0
DWIDTH 12 0
BBX 10 12 1 0
BITMAP
FF80
FF80
1800
3800
3800
3F80
3FC0
38C0
30C0
71C0
77C0
7700
ENDCHAR
STARTCHAR 0403
ENCODING 1027
SWIDTH 540 0
DWIDTH 9 0
BBX 10 15 0 0
BITMAP
0380
0300
0600
3FC0
3FC0
3000
7000
7000
7000
7000
7000
6000
E000
E000
E000
ENDCHAR
STARTCHAR 0404
ENCODING 1028
SWIDTH 660 0
DWIDTH 11 0
BBX 10 12 1 0
BITMAP
1F00
3F80
7380
E1C0
E000
FC00
F800
C000
C380
E780
FF00
7E00
ENDCHAR
STARTCHAR 0405
ENCODING 1029
SWIDTH 600 0
DWIDTH 10 0
BBX 10 12 0 0
BITMAP
0F80
3FC0
39C0
31C0
3800
3E00
0F80
0380
E180
E380
7F80
3F00
ENDCHAR
STARTCHAR 0406
ENCODING 1030
SWIDTH 300 0
DWIDTH 5 0
BBX 5 12 0 0
BITMAP
38
38
38
30
70
70
70
70
70
60
E0
E0
ENDCHAR
STARTCHAR 0407
ENCODING 1031
SWIDTH 300 0
DWIDTH 5 0
BBX 7 15 0 0
BITMAP
66
66
00
38
38
38
30
70
70
70
70
70
60
E0
E0
ENDCHAR
STARTCHAR 0408
ENCODING 1032
SWIDTH 540 0
DWIDTH 9 0
BBX 9 12 0 0
BITMAP
0180
0380
0380
0380
0380
0380
0300
0700
E700
E700
FE00
7C00
ENDCHAR
STARTCHAR 0409
ENCODING 1033
SWIDTH 1020 0
DWIDTH 17 0
BBX 17 12 -1 0
BITMAP
07F800
0FF800
0E3000
0E7000
0E7F00
0C7F80
1C7380
1C6180
1C6380
38E380
78FF00
E0FE00
ENDCHAR
STARTCHAR 040A
ENCODING 1034
SWIDTH 1020 0
DWIDTH 17 0
BBX 16 12 0 0
BITMAP
3870
3860
3060
70E0
70FE
7FFF
7FE7
70C3
61C7
E1C7
E1FE
E1FC
ENDCHAR
STARTCHAR 040B
ENCODING 1035
SWIDTH 720 0
DWIDTH 12 0
BBX 10 12 1 0
BITMAP
FF80
FF80
3800
3800
3E00
3F80
3FC0
31C0
71C0
71C0
71C0
71C0
ENDCHAR
STARTCHAR 040C
ENCODING 1036
SWIDTH 600 0
DWIDTH 10 0
BBX 11 15 0 0
BITMAP
0380
0700
0600
38E0
39E0
33C0
7780
7700
7E00
7E00
7F00
7700
E780
E380
E380
ENDCHAR
STARTCHAR 040D
ENCODING 1037
SWIDTH 660 0
DWIDTH 11 0
BBX 12 15 0 0
BITMAP
0600
0700
0300
38F0
30E0
71E0
73E0
73E0
76E0
7EE0
7CC0
F9C0
F9C0
F1C0
E1C0
ENDCHAR
STARTCHAR 040E
ENCODING 1038
SWIDTH 600 0
DWIDTH 10 0
BBX 10 15 1 0
BITMAP
1980
0F00
0000
E1C0
61C0
7380
7300
3700
3E00
3E00
1C00
1C00
3800
F000
E000
ENDCHAR
STARTCHAR 040F
ENCODING 1039
SWIDTH 660 0
DWIDTH 11 0
BBX 12 15 0 -3
BITMAP
3870
3060
70E0
70E0
70E0
70E0
70C0
61C0
E1C0
E1C0
FFC0
FFC0
1C00
1C00
1C00
ENDCHAR
STARTCHAR 0410
ENCODING 1040
SWIDTH 660 0
DWIDTH 11 0
BBX 11 12 -1 0
BITMAP
0380
0380
0780
07C0
0FC0
0DC0
1CC0
38C0
3FE0
7FE0
70E0
E0E0
ENDCHAR
STARTCHAR 0411
ENCODING 1041
SWIDTH 600 0
DWIDTH 10 0
BBX 10 12 0 0
BITMAP
3FC0
3FC0
3000
7000
7E00
7F80
7380
71C0
6180
E380
FF00
FE00
ENDCHAR
STARTCHAR 0412
ENCODING 1042
SWIDTH 660 0
DWIDTH 11 0
BBX 10 12 0 0
BITMAP
3F00
3FC0
31C0
71C0
71C0
7F80
7F80
7180
61C0
E380
FF80
FE00
ENDCHAR
STARTCHAR 0413
ENCODING 1043
SWIDTH 540 0
DWIDTH 9 0
BBX 10 12 0 0
BITMAP
3FC0
3FC0
3000
7000
7000
7000
7000
7000
6000
E000
E000
E000
ENDCHAR
STARTCHAR 0414
ENCODING 1044
SWIDTH 720 0
DWIDTH 12 0
BBX 13 15 -1 -3
BITMAP
07F8
07F8
0E30
0E30
0E70
0E70
0C70
1C70
1C60
3860
7FF0
FFF0
E070
E070
E060
ENDCHAR
STARTCHAR 0415
ENCODING 1045
SWIDTH 540 0
DWIDTH 9 0
BBX 10 12 0 0
BITMAP
3FC0
3FC0
3000
7000
7000
7F00
7F00
7000
6000
E000
FF00
FF00
ENDCHAR
STARTCHAR 0416
ENCODING 1046
SWIDTH 1020 0
DWIDTH 17 0
BBX 18 12 0 0
BITMAP
38E3C0
38E380
1CE700
1CEE00
1CCE00
0FFC00
1FFC00
3DDC00
39CE00
71CE00
F18F00
E38700
ENDCHAR
STARTCHAR 0417
ENCODING 1047
SWIDTH 600 0
DWIDTH 10 0
BBX 10 12 0 0
BITMAP
1F00
3FC0
39C0
01C0
03C0
0F80
0F00
0380
0380
E380
7F00
3E00
ENDCHAR
STARTCHAR 0418
ENCODING 1048
SWIDTH 660 0
DWIDTH 11 0
BBX 12 12 0 0
BITMAP
38F0
30E0
71E0
73E0
73E0
76E0
7EE0
7CC0
F9C0
F9C0
F1C0
E1C0
ENDCHAR
STARTCHAR 0419
ENCODING 1049
SWIDTH 660 0
DWIDTH 11 0
BBX 12 15 0 0
BITMAP
0CC0
07C0
0000
38F0
30E0
71E0
73E0
73E0
76E0
7EE0
7CC0
F9C0
F9C0
F1C0
E1C0
ENDCHAR
STARTCHAR 041A
ENCODING 1050
SWIDTH 660 0
DWIDTH 11 0
BBX 11 12 0 0
BITMAP
38E0
39E0
33C0
7380
7700
7F00
7F00
7700
6700
E380
E380
E3C0
ENDCHAR
STARTCHAR 041B
ENCODING 1051
SWIDTH 660 0
DWIDTH 11 0
BBX 13 12 -1 0
BITMAP
07F8
0FF8
0E30
0E70
0E70
0C70
1C70
1C60
1C60
38E0
78E0
E0E0
ENDCHAR
STARTCHAR 041C
ENCODING 1052
SWIDTH 840 0
DWIDTH 14 0
BBX 14 12 0 0
BITMAP
3C1C
3C3C
3C3C
7C7C
7C7C
7CDC
7ED8
7798
67B8
E738
E738
E638
ENDCHAR
STARTCHAR 041D
ENCODING 1053
SWIDTH 660 0
DWIDTH 11 0
BBX 12 12 0 0
BITMAP
3870
3860
3060
70E0
70E0
7FE0
7FE0
70C0
61C0
E1C0
E1C0
E1C0
ENDCHAR
STARTCHAR 041E
ENCODING 1054
SWIDTH 660 0
DWIDTH 11 0
BBX 10 12 1 0
BITMAP
1F00
3F80
7380
E1C0
E1C0
E1C0
E1C0
C1C0
E380
E780
7F00
3E00
ENDCHAR
STARTCHAR 041F
ENCODING 1055
SWIDTH 660 0
DWIDTH 11 0
BBX 12 12 0 0
BITMAP
3FF0
3FF0
3060
70E0
70E0
70E0
70E0
70C0
60C0
E1C0
E1C0
E1C0
ENDCHAR
STARTCHAR 0420
ENCODING 1056
SWIDTH 660 0
DWIDTH 11 0
BBX 10 12 0 0
BITMAP
3F00
3FC0
31C0
70C0
70C0
71C0
7F80
7F00
6000
E000
E000
E000
ENDCHAR
STARTCHAR 0421
ENCODING 1057
SWIDTH 660 0
DWIDTH 11 0
BBX 10 12 1 0
BITMAP
1F00
3F80
7380
E1C0
E000
E000
E000
C000
C380
E780
FF00
7E00
ENDCHAR
STARTCHAR 0422
ENCODING 1058
SWIDTH 600 0
DWIDTH 10 0
BBX 10 12 1 0
BITMAP
FFC0
FFC0
1C00
1C00
1C00
1C00
1C00
1800
3800
3800
3800
3800
ENDCHAR
STARTCHAR 0423
ENCODING 1059
SWIDTH 600 0
DWIDTH 10 0
BBX 10 12 1 0
BITMAP
E1C0
61C0
7380
7300
3700
3E00
3E00
1C00
1C00
3800
F000
E000
ENDCHAR
STARTCHAR 0424
ENCODING 1060
SWIDTH 840 0
DWIDTH 14 0
BBX 12 13 1 -1
BITMAP
0300
1FC0
3FE0
7FF0
E730
E630
C630
CE70
EEE0
7FE0
3F80
0C00
0C00
ENDCHAR
STARTCHAR 0425
ENCODING 1061
SWIDTH 600 0
DWIDTH 10 0
BBX 11 12 0 0
BITMAP
70E0
39C0
39C0
1B80
1F00
1F00
1E00
3F00
3F00
7300
E380
E380
ENDCHAR
STARTCHAR 0426
ENCODING 1062
SWIDTH 780 0
DWIDTH 13 0
BBX 12 15 0 -3
BITMAP
3870
3060
70E0
70E0
70E0
70E0
70C0
61C0
E1C0
E1C0
FFF0
FFE0
00E0
00E0
00E0
ENDCHAR
STARTCHAR 0427
ENCODING 1063
SWIDTH 660 0
DWIDTH 11 0
BBX 10 12 2 0
BITMAP
E1C0
E180
E380
C380
C380
E780
FF80
3F00
0300
0700
0700
0700
ENDCHAR
STARTCHAR 0428
ENCODING 1064
SWIDTH 960 0
DWIDTH 16 0
BBX 16 12 0 0
BITMAP
38C7
39C7
31C7
71C6
71CE
71CE
718E
738E
638E
E38C
FFFC
FFFC
ENDCHAR
STARTCHAR 0429
ENCODING 1065
SWIDTH 1020 0
DWIDTH 17 0
BBX 16 15 0 -3
BITMAP
38C7
39C7
31C7
71C6
71CE
71CE
718E
738E
638E
E38C
FFFF
FFFF
0007
0006
0006
ENDCHAR
STARTCHAR 042A
ENCODING 1066
SWIDTH 780 0
DWIDTH 13 0
BBX 11 12 1 0
BITMAP
FC00
FC00
1C00
1C00
1F80
1FC0
39E0
38E0
38E0
39E0
3FC0
3F00
ENDCHAR
STARTCHAR 042B
ENCODING 1067
SWIDTH 840 0
DWIDTH 14 0
BBX 14 12 0 0
BITMAP
380C
381C
301C
701C
7E1C
7F9C
7398
71F8
61B8
E3B8
FF38
FE38
ENDCHAR
STARTCHAR 042C
ENCODING 1068
SWIDTH 600 0
DWIDTH 10 0
BBX 10 12 0 0
BITMAP
3800
3800
3000
7000
7E00
7F80
7380
71C0
6180
E380
FF00
FE00
ENDCHAR
STARTCHAR 042D
ENCODING 1069
SWIDTH 600 0
DWIDTH 10 0
BBX 10 12 0 0
BITMAP
1F00
3F80
71C0
71C0
01C0
0FC0
0FC0
01C0
E180
E380
7F00
3E00
ENDCHAR
STARTCHAR 042E
ENCODING 1070
SWIDTH 960 0
DWIDTH 16 0
BBX 15 12 0 0
BITMAP
3878
39FC
3BCE
338E
770E
7F0E
7F0E
770E
770C
671C
E3F8
E1F0
ENDCHAR
STARTCHAR 042F
ENCODING 1071
SWIDTH 540 0
DWIDTH 9 0
BBX 11 12 -1 0
BITMAP
0FE0
1FE0
3CC0
39C0
31C0
39C0
3FC0
3FC0
3980
7380
E380
E380
ENDCHAR
STARTCHAR 0430
ENCODING 1072
SWIDTH 540 0
DWIDTH 9 0
BBX 8 9 0 0
BITMAP
1E
7F
77
07
7F
E7
E6
FE
76
ENDCHAR
STARTCHAR 0431
ENCODING 1073
SWIDTH 540 0
DWIDTH 9 0
BBX 8 13 1 0
BITMAP
03
0F
3E
70
60
FE
FE
E7
C7
C7
C6
FE
7C
ENDCHAR
STARTCHAR 0432
ENCODING 1074
SWIDTH 540 0
DWIDTH 9 0
BBX 8 9 0 0
BITMAP
3E
7F
73
77
7E
67
E3
FF
FE
ENDCHAR
STARTCHAR 0433
ENCODING 1075
SWIDTH 420 0
DWIDTH 7 0
BBX 7 9 0 0
BITMAP
7E
7E
70
60
60
E0
E0
E0
E0
ENDCHAR
STARTCHAR 0434
ENCODING 1076
SWIDTH 600 0
DWIDTH 10 0
BBX 11 12 -1 -3
BITMAP
0FE0
0FC0
0CC0
1DC0
1DC0
19C0
39C0
7FE0
FFC0
E0C0
E1C0
E1C0
ENDCHAR
STARTCHAR 0435
ENCODING 1077
SWIDTH 540 0
DWIDTH 9 0
BBX 8 9 0 0
BITMAP
1E
3F
73
63
FF
E0
62
7F
3E
ENDCHAR
STARTCHAR 0436
ENCODING 1078
SWIDTH 900 0
DWIDTH 15 0
BBX 15 9 0 0
BITMAP
719E
3B9C
3BB8
1FF0
1FF0
3FF0
7338
7738
E738
ENDCHAR
STARTCHAR 0437
ENCODING 1079
SWIDTH 480 0
DWIDTH 8 0
BBX 8 9 0 0
BITMAP
3E
7F
77
07
1E
06
E7
FE
7C
ENDCHAR
STARTCHAR 0438
ENCODING 1080
SWIDTH 540 0
DWIDTH 9 0
BBX 9 9 0 0
BITMAP
7380
7780
7780
6F80
6B00
FF00
F700
F700
E700
ENDCHAR
STARTCHAR 0439
ENCODING 1081
SWIDTH 540 0
DWIDTH 9 0
BBX 9 13 0 0
BITMAP
1980
1F00
0F00
0000
7380
7780
7780
6F80
6B00
FF00
F700
F700
E700
ENDCHAR
STARTCHAR 043A
ENCODING 1082
SWIDTH 540 0
DWIDTH 9 0
BBX 10 9 0 0
BITMAP
33C0
7380
7700
7E00
7E00
7E00
EE00
E700
E700
ENDCHAR
STARTCHAR 043B
ENCODING 1083
SWIDTH 540 0
DWIDTH 9 0
BBX 10 9 -1 0
BITMAP
1FC0
1FC0
19C0
1980
3980
3B80
3380
F380
E380
ENDCHAR
STARTCHAR 043C
ENCODING 1084
SWIDTH 780 0
DWIDTH 13 0
BBX 12 9 0 0
BITMAP
38F0
78F0
79F0
79F0
7FE0
6FE0
EFE0
EEE0
ECE0
ENDCHAR
STARTCHAR 043D
ENCODING 1085
SWIDTH 540 0
DWIDTH 9 0
BBX 9 9 0 0
BITMAP
7380
7380
7380
6300
7F00
FF00
E700
E700
E700
ENDCHAR
STARTCHAR 043E
ENCODING 1086
SWIDTH 540 0
DWIDTH 9 0
BBX 9 9 0 0
BITMAP
1E00
3F00
7300
6380
E380
E300
E700
7F00
3C00
ENDCHAR
STARTCHAR 043F
ENCODING 1087
SWIDTH 540 0
DWIDTH 9 0
BBX 9 9 0 0
BITMAP
7F80
7F80
7380
6380
6300
E700
E700
E700
E700
ENDCHAR
STARTCHAR 0440
ENCODING 1088
SWIDTH 540 0
DWIDTH 9 0
BBX 10 12 -1 -3
BITMAP
3F00
3F80
39C0
39C0
31C0
3180
7380
7F80
7F00
7000
6000
E000
ENDCHAR
STARTCHAR 0441
ENCODING 1089
SWIDTH 480 0
DWIDTH 8 0
BBX 8 9 0 0
BITMAP
1E
3F
73
63
E0
E0
67
7E
3C
ENDCHAR
STARTCHAR 0442
ENCODING 1090
SWIDTH 540 0
DWIDTH 9 0
BBX 8 9 1 0
BITMAP
FF
FF
38
38
30
30
70
70
70
ENDCHAR
STARTCHAR 0443
ENCODING 1091
SWIDTH 480 0
DWIDTH 8 0
BBX 9 13 0 -4
BITMAP
6380
7380
7700
7600
7E00
3C00
3C00
3800
3800
3000
F000
E000
C000
ENDCHAR
STARTCHAR 0444
ENCODING 1092
SWIDTH 720 0
DWIDTH 12 0
BBX 11 16 0 -3
BITMAP
0380
0300
0300
0700
3FC0
7FE0
7760
6660
E660
EE60
EEE0
7FC0
7FC0
0C00
0C00
1C00
ENDCHAR
STARTCHAR 0445
ENCODING 1093
SWIDTH 480 0
DWIDTH 8 0
BBX 9 9 0 0
BITMAP
7380
7700
3E00
3E00
3C00
3C00
7E00
EE00
E600
ENDCHAR
STARTCHAR 0446
ENCODING 1094
SWIDTH 600 0
DWIDTH 10 0
BBX 9 12 0 -3
BITMAP
7380
7380
7380
6380
6300
E700
E700
FF80
FF80
0380
0380
0300
ENDCHAR
STARTCHAR 0447
ENCODING 1095
SWIDTH 540 0
DWIDTH 9 0
BBX 8 9 1 0
BITMAP
E7
E7
E7
E7
FE
7E
0E
0E
0E
ENDCHAR
STARTCHAR 0448
ENCODING 1096
SWIDTH 840 0
DWIDTH 14 0
BBX 13 9 0 0
BITMAP
7398
73B8
7338
6738
6738
E730
E730
FFF0
FFF0
ENDCHAR
STARTCHAR 0449
ENCODING 1097
SWIDTH 900 0
DWIDTH 15 0
BBX 14 12 0 -3
BITMAP
7398
73B8
7338
6738
6738
E730
E730
FFFC
FFFC
001C
0018
0018
ENDCHAR
STARTCHAR 044A
ENCODING 1098
SWIDTH 660 0
DWIDTH 11 0
BBX 9 9 1 0
BITMAP
F800
F800
3800
3F00
3F80
7180
7380
7F80
7E00
ENDCHAR
STARTCHAR 044B
ENCODING 1099
SWIDTH 840 0
DWIDTH 14 0
BBX 13 9 0 0
BITMAP
3018
7018
7038
7F38
7F38
63B8
E330
FF30
FE70
ENDCHAR
STARTCHAR 044C
ENCODING 1100
SWIDTH 540 0
DWIDTH 9 0
BBX 9 9 0 0
BITMAP
3000
7000
7000
7F00
7F00
6380
E300
FF00
FE00
ENDCHAR
STARTCHAR 044D
ENCODING 1101
SWIDTH 480 0
DWIDTH 8 0
BBX 8 9 0 0
BITMAP
3C
7E
67
07
1F
07
E6
FE
7C
ENDCHAR
STARTCHAR 044E
ENCODING 1102
SWIDTH 780 0
DWIDTH 13 0
BBX 13 9 0 0
BITMAP
31E0
73F0
7730
7E38
7E38
7E30
6E70
E7E0
E3C0
ENDCHAR
STARTCHAR 044F
ENCODING 1103
SWIDTH 540 0
DWIDTH 9 0
BBX 9 9 0 0
BITMAP
1F80
7F80
7300
6300
7F00
3F00
7700
E700
E600
ENDCHAR
STARTCHAR 0450
ENCODING 1104
SWIDTH 540 0
DWIDTH 9 0
BBX 8 13 0 0
BITMAP
38
18
0C
00
1E
3F
73
63
FF
E0
62
7F
3E
ENDCHAR
STARTCHAR 0451
ENCODING 1105
SWIDTH 540 0
DWIDTH 9 0
BBX 8 12 0 0
BITMAP
33
33
00
1E
3F
73
63
FF
E0
62
7F
3E
ENDCHAR
STARTCHAR 0452
ENCODING 1106
SWIDTH 540 0
DWIDTH 9 0
BBX 8 17 0 -4
BITMAP
38
38
FC
70
7F
7F
73
63
63
E7
E7
E7
E7
07
1E
1E
18
ENDCHAR
STARTCHAR 0453
ENCODING 1107
SWIDTH 420 0
DWIDTH 7 0
BBX 8 13 0 0
BITMAP
07
0E
1C
00
7E
7E
70
60
60
E0
E0
E0
E0
ENDCHAR
STARTCHAR 0454
ENCODING 1108
SWIDTH 480 0
DWIDTH 8 0
BBX 8 9 0 0
BITMAP
1E
3F
77
63
F8
E0
E7
7E
3C
ENDCHAR
STARTCHAR 0455
ENCODING 1109
SWIDTH 480 0
DWIDTH 8 0
BBX 8 9 0 0
BITMAP
3E
7F
67
70
7E
1E
C6
FE
7C
ENDCHAR
STARTCHAR 0456
ENCODING 1110
SWIDTH 300 0
DWIDTH 5 0
BBX 5 12 0 0
BITMAP
38
38
00
30
70
70
70
70
60
E0
E0
E0
ENDCHAR
STARTCHAR 0457
ENCODING 1111
SWIDTH 300 0
DWIDTH 5 0
BBX 7 12 0 0
BITMAP
CC
CE
00
30
70
70
70
70
60
60
E0
E0
ENDCHAR
STARTCHAR 0458
ENCODING 1112
SWIDTH 240 0
DWIDTH 4 0
BBX 7 16 -2 -4
BITMAP
0E
0E
00
0C
1C
1C
1C
1C
18
18
38
38
38
F0
F0
C0
ENDCHAR
STARTCHAR 0459
ENCODING 1113
SWIDTH 840 0
DWIDTH 14 0
BBX 14 9 -1 0
BITMAP
1FC0
1FC0
19C0
19F8
39FC
398C
339C
F3FC
E3F8
ENDCHAR
STARTCHAR 045A
ENCODING 1114
SWIDTH 840 0
DWIDTH 14 0
BBX 13 9 0 0
BITMAP
7380
7380
7380
63F0
7FF8
FF18
E738
E7F8
E7E0
ENDCHAR
STARTCHAR 045B
ENCODING 1115
SWIDTH 540 0
DWIDTH 9 0
BBX 8 13 0 0
BITMAP
38
30
FC
70
7F
7F
73
63
63
E7
E7
E7
E7
ENDCHAR
STARTCHAR 045C
ENCODING 1116
SWIDTH 540 0
DWIDTH 9 0
BBX 10 13 0 0
BITMAP
0380
0300
0600
0000
33C0
7380
7700
7E00
7E00
7E00
EE00
E700
E700
ENDCHAR
STARTCHAR 045D
ENCODING 1117
SWIDTH 540 0
DWIDTH 9 0
BBX 9 13 0 0
BITMAP
0C00
1C00
0C00
0000
7380
7780
7780
6F80
6B00
FF00
F700
F700
E700
ENDCHAR
STARTCHAR 045E
ENCODING 1118
SWIDTH 480 0
DWIDTH 8 0
BBX 9 17 0 -4
BITMAP
3300
1B00
0E00
0000
6380
7380
7700
7600
7E00
3C00
3C00
3800
3800
3000
F000
E000
C000
ENDCHAR
STARTCHAR 045F
ENCODING 1119
SWIDTH 540 0
DWIDTH 9 0
BBX 9 12 0 -3
BITMAP
7380
7380
7380
6380
6300
E700
E700
FF00
FF00
3800
3800
3800
ENDCHAR
STARTCHAR 0460
ENCODING 1120
SWIDTH 960 0
DWIDTH 16 0
BBX 15 12 1 0
BITMAP
718E
718E
638E
E38E
E38C
E38C
E31C
E71C
C71C
E738
FFF8
7DF0
ENDCHAR
STARTCHAR 0461
ENCODING 1121
SWIDTH 840 0
DWIDTH 14 0
BBX 13 9 1 0
BITMAP
E738
E738
E738
E730
C630
C670
CE70
FFE0
7BC0
ENDCHAR
STARTCHAR 0462
ENCODING 1122
SWIDTH 600 0
DWIDTH 10 0
BBX 10 12 0 0
BITMAP
3800
3800
7C00
7000
7E00
7F80
7380
71C0
6180
E380
FF00
FE00
ENDCHAR
STARTCHAR 0463
ENCODING 1123
SWIDTH 540 0
DWIDTH 9 0
BBX 9 13 0 0
BITMAP
3800
3800
3800
7C00
3000
7000
7C00
7F00
7F00
6380
6700
FF00
FE00
ENDCHAR
STARTCHAR 0464
ENCODING 1124
SWIDTH 840 0
DWIDTH 14 0
BBX 15 12 0 0
BITMAP
38F8
31FC
338E
738E
7700
7FE0
7FE0
6700
671C
E71C
E3F8
E1F0
ENDCHAR
STARTCHAR 0465
ENCODING 1125
SWIDTH 720 0
DWIDTH 12 0
BBX 12 9 0 0
BITMAP
71E0
77F0
7770
7E30
7F80
6E00
EE60
E7E0
E7C0
ENDCHAR
STARTCHAR 0466
ENCODING 1126
SWIDTH 660 0
DWIDTH 11 0
BBX 11 12 -1 0
BITMAP
0380
0780
07C0
0FC0
0FC0
1DC0
1CC0
3FC0
3FE0
76E0
76E0
E6E0
ENDCHAR
STARTCHAR 0467
ENCODING 1127
SWIDTH 540 0
DWIDTH 9 0
BBX 9 9 -1 0
BITMAP
0700
0F00
0F00
1F00
3B00
3F80
7F80
7F80
E980
ENDCHAR
STARTCHAR 0468
ENCODING 1128
SWIDTH 960 0
DWIDTH 16 0
BBX 14 12 0 0
BITMAP
3878
3878
38F8
30F8
71D8
71D8
739C
7FFC
7FFC
67FC
EEDC
EECC
ENDCHAR
STARTCHAR 0469
ENCODING 1129
SWIDTH 780 0
DWIDTH 13 0
BBX 12 9 0 0
BITMAP
70E0
71E0
71E0
73E0
6360
FFF0
FFF0
EFF0
FDB0
ENDCHAR
STARTCHAR 046A
ENCODING 1130
SWIDTH 840 0
DWIDTH 14 0
BBX 14 12 0 0
BITMAP
1FFC
0FF8
0E70
0E60
06E0
07C0
3FF0
7FF8
E338
E738
E738
E738
ENDCHAR
STARTCHAR 046B
ENCODING 1131
SWIDTH 720 0
DWIDTH 12 0
BBX 11 9 0 0
BITMAP
3FE0
1FC0
1D80
0F80
3F80
7FC0
EEC0
EEC0
EEC0
ENDCHAR
STARTCHAR 046C
ENCODING 1132
SWIDTH 1140 0
DWIDTH 19 0
BBX 18 12 0 0
BITMAP
38FFC0
387FC0
387380
307700
703600
7FFE00
7FFF80
7FFFC0
7739C0
6739C0
E739C0
E739C0
ENDCHAR
STARTCHAR 046D
ENCODING 1133
SWIDTH 1020 0
DWIDTH 17 0
BBX 16 9 0 0
BITMAP
31FF
71FE
70DC
70F8
7FFC
7FFE
677E
E66E
E6EE
ENDCHAR
STARTCHAR 046E
ENCODING 1134
SWIDTH 480 0
DWIDTH 8 0
BBX 10 19 -1 -4
BITMAP
19C0
0F80
0600
0000
1E00
1F00
0380
0380
0700
1E00
1E00
0700
0300
0700
7F00
FE00
C000
C000
E000
ENDCHAR
STARTCHAR 046F
ENCODING 1135
SWIDTH 480 0
DWIDTH 8 0
BBX 9 15 -1 -3
BITMAP
1F80
0E00
0000
1E00
3F00
0700
0700
1E00
0700
0700
3F00
FE00
E000
C000
6000
ENDCHAR
STARTCHAR 0470
ENCODING 1136
SWIDTH 720 0
DWIDTH 12 0
BBX 12 12 1 0
BITMAP
6770
E770
E670
EE70
EE60
EEE0
FFE0
7FC0
1F00
0C00
1C00
1C00
ENDCHAR
STARTCHAR 0471
ENCODING 1137
SWIDTH 720 0
DWIDTH 12 0
BBX 11 13 1 -4
BITMAP
E6E0
EEE0
EE60
CEE0
CCE0
CCE0
FDC0
FF80
7F00
1C00
1C00
1800
3800
ENDCHAR
STARTCHAR 0472
ENCODING 1138
SWIDTH 660 0
DWIDTH 11 0
BBX 10 12 1 0
BITMAP
1F00
3F80
73C0
61C0
E1C0
FFC0
FFC0
E1C0
E380
E380
7F00
3E00
ENDCHAR
STARTCHAR 0473
ENCODING 1139
SWIDTH 540 0
DWIDTH 9 0
BBX 9 9 0 0
BITMAP
1E00
3F00
7300
6380
FF80
E300
E700
7E00
3C00
ENDCHAR
STARTCHAR 0474
ENCODING 1140
SWIDTH 660 0
DWIDTH 11 0
BBX 10 12 1 0
BITMAP
E0C0
E1C0
6180
6380
6300
7700
7600
7600
7E00
3C00
3C00
3800
ENDCHAR
STARTCHAR 0475
ENCODING 1141
SWIDTH 480 0
DWIDTH 8 0
BBX 8 9 1 0
BITMAP
C7
CF
EE
EC
FC
F8
F8
70
70
ENDCHAR
STARTCHAR 0476
ENCODING 1142
SWIDTH 660 0
DWIDTH 11 0
BBX 10 15 1 0
BITMAP
7600
3F00
0000
E0C0
E1C0
6180
6380
6300
7700
7600
7600
7E00
3C00
3C00
3800
ENDCHAR
STARTCHAR 0477
ENCODING 1143
SWIDTH 480 0
DWIDTH 8 0
BBX 8 12 1 0
BITMAP
EC
36
00
C7
CF
EE
EC
FC
F8
F8
70
70
ENDCHAR
STARTCHAR 0478
ENCODING 1144
SWIDTH 1200 0
DWIDTH 20 0
BBX 19 16 1 -4
BITMAP
1F0000
3F8000
738000
E1DCE0
E1DCE0
E1DDC0
E1DDC0
C1CF80
E38F80
E78F00
7F0F00
3E0E00
000E00
003C00
003C00
003000
ENDCHAR
STARTCHAR 0479
ENCODING 1145
SWIDTH 1080 0
DWIDTH 18 0
BBX 18 13 0 -4
BITMAP
1E39C0
3F39C0
733B80
63BB80
E39F00
E31F00
E71E00
7F1E00
3C1C00
001C00
007800
007000
006000
ENDCHAR
STARTCHAR 047A
ENCODING 1146
SWIDTH 660 0
DWIDTH 11 0
BBX 10 14 1 -1
BITMAP
0600
1F00
3F80
75C0
61C0
E1C0
E1C0
E1C0
E1C0
E380
FF80
7F00
3E00
1000
ENDCHAR
STARTCHAR 047B
ENCODING 1147
SWIDTH 540 0
DWIDTH 9 0
BBX 9 11 0 -1
BITMAP
0400
1E00
3F00
7F80
6380
E380
E380
EF00
7F00
3C00
1000
ENDCHAR
STARTCHAR 047C
ENCODING 1148
SWIDTH 960 0
DWIDTH 16 0
BBX 14 15 1 0
BITMAP
0180
0270
0080
1990
393C
701C
E00C
E01C
E31C
E31C
E71C
C71C
E738
FFF8
7DF0
ENDCHAR
STARTCHAR 047D
ENCODING 1149
SWIDTH 840 0
DWIDTH 14 0
BBX 12 12 1 0
BITMAP
0780
0CC0
0200
32C0
70E0
E070
E070
CE70
CE60
CEE0
FFE0
7BC0
ENDCHAR
STARTCHAR 047E
ENCODING 1150
SWIDTH 960 0
DWIDTH 16 0
BBX 15 15 1 0
BITMAP
07F0
0080
0000
718E
718E
638E
E38E
E38C
E38C
E31C
E71C
C71C
E738
FFF8
7DF0
ENDCHAR
STARTCHAR 047F
ENCODING 1151
SWIDTH 840 0
DWIDTH 14 0
BBX 13 12 1 0
BITMAP
0FC0
0300
0000
E738
E738
E738
E730
C630
C670
CE70
FFE0
7BC0
ENDCHAR
STARTCHAR 0480
ENCODING 1152
SWIDTH 600 0
DWIDTH 10 0
BBX 9 15 1 -3
BITMAP
1E00
3F00
7380
E380
E000
E000
E000
C000
C000
E000
F800
7800
3800
3800
3800
ENDCHAR
STARTCHAR 0481
ENCODING 1153
SWIDTH 540 0
DWIDTH 9 0
BBX 8 12 1 -3
BITMAP
3C
7E
E6
E7
C0
C0
C0
F8
78
38
30
30
ENDCHAR
STARTCHAR 0482
ENCODING 1154
SWIDTH 600 0
DWIDTH 10 0
BBX 9 11 1 0
BITMAP
0180
1300
1A00
0C00
0F00
9900
D000
3000
7800
C000
8000
ENDCHAR
STARTCHAR 0483
ENCODING 1155
SWIDTH 0 0
DWIDTH 0 0
BBX 6 2 -6 10
BITMAP
FC
80
ENDCHAR
STARTCHAR 0484
ENCODING 1156
SWIDTH 0 0
DWIDTH 0 0
BBX 6 2 -6 11
BITMAP
18
E4
ENDCHAR
STARTCHAR 0485
ENCODING 1157
SWIDTH 0 0
DWIDTH 0 0
BBX 1 2 -3 11
BITMAP
80
80
ENDCHAR
STARTCHAR 0486
ENCODING 1158
SWIDTH 0 0
DWIDTH 0 0
BBX 3 2 -4 11
BITMAP
60
C0
ENDCHAR
STARTCHAR 0488
ENCODING 1160
SWIDTH 0 0
DWIDTH 0 0
BBX 15 15 -12 -3
BITMAP
00C0
0120
1804
240A
0000
0000
0000
E00E
0000
0000
0000
7038
0000
0700
0500
ENDCHAR
STARTCHAR 0489
ENCODING 1161
SWIDTH 0 0
DWIDTH 0 0
BBX 14 15 -11 -3
BITMAP
0080
0080
1180
1018
0810
0000
0000
E00C
2000
0000
0000
3020
6220
0200
0400
ENDCHAR
STARTCHAR 048A
ENCODING 1162
SWIDTH 780 0
DWIDTH 13 0
BBX 12 18 0 -3
BITMAP
0CC0
0780
0000
38F0
30E0
71E0
73E0
73E0
76E0
7EE0
7CC0
F9C0
F9C0
F1F0
E1F0
0060
0060
00C0
ENDCHAR
STARTCHAR 048B
ENCODING 1163
SWIDTH 660 0
DWIDTH 11 0
BBX 10 16 0 -3
BITMAP
1980
1B00
0E00
0000
7380
7780
7780
6F80
6B00
FF00
F700
F7C0
E7C0
0180
0180
0300
ENDCHAR
STARTCHAR 048C
ENCODING 1164
SWIDTH 600 0
DWIDTH 10 0
BBX 10 12 0 0
BITMAP
3800
3800
7C00
7000
7E00
7F80
7380
71C0
6180
E380
FF00
FE00
ENDCHAR
STARTCHAR 048D
ENCODING 1165
SWIDTH 540 0
DWIDTH 9 0
BBX 9 13 0 0
BITMAP
3800
7E00
7C00
3000
3000
7000
7C00
7F00
7F00
6380
6700
FF00
FE00
ENDCHAR
STARTCHAR 048E
ENCODING 1166
SWIDTH 600 0
DWIDTH 10 0
BBX 10 12 0 0
BITMAP
3F00
3FC0
31C0
70C0
73C0
73C0
7F80
7F80
6080
E000
E000
E000
ENDCHAR
STARTCHAR 048F
ENCODING 1167
SWIDTH 540 0
DWIDTH 9 0
BBX 10 12 -1 -3
BITMAP
3F00
3F80
39C0
39C0
31C0
3580
7380
7F80
7F00
7000
6000
E000
ENDCHAR
STARTCHAR 0490
ENCODING 1168
SWIDTH 540 0
DWIDTH 9 0
BBX 10 15 0 0
BITMAP
00C0
00C0
01C0
3FC0
3FC0
3000
7000
7000
7000
7000
7000
6000
E000
E000
E000
ENDCHAR
STARTCHAR 0491
ENCODING 1169
SWIDTH 480 0
DWIDTH 8 0
BBX 8 11 0 0
BITMAP
07
07
7F
7F
70
60
60
E0
E0
E0
E0
ENDCHAR
STARTCHAR 0492
ENCODING 1170
SWIDTH 540 0
DWIDTH 9 0
BBX 10 12 0 0
BITMAP
3FC0
3FC0
3000
7000
7000
FC00
FC00
7000
6000
E000
E000
E000
ENDCHAR
STARTCHAR 0493
ENCODING 1171
SWIDTH 420 0
DWIDTH 7 0
BBX 8 9 -1 0
BITMAP
3F
3F
38
30
FC
70
70
70
70
ENDCHAR
STARTCHAR 0494
ENCODING 1172
SWIDTH 600 0
DWIDTH 10 0
BBX 10 15 0 -3
BITMAP
3FC0
3FC0
3000
7000
7000
7E00
7F00
7380
6380
E180
E380
E380
0700
0F00
0C00
ENDCHAR
STARTCHAR 0495
ENCODING 1173
SWIDTH 540 0
DWIDTH 9 0
BBX 8 11 0 -2
BITMAP
7E
7E
70
60
7E
FE
E7
E7
EE
1E
0C
ENDCHAR
STARTCHAR 0496
ENCODING 1174
SWIDTH 1080 0
DWIDTH 18 0
BBX 18 15 0 -3
BITMAP
38E3C0
38E380
1CE700
1CEE00
1CCE00
0FFC00
1FFC00
3DDC00
39CE00
71CE00
F18FC0
E38780
000180
000380
000380
ENDCHAR
STARTCHAR 0497
ENCODING 1175
SWIDTH 960 0
DWIDTH 16 0
BBX 15 12 0 -3
BITMAP
719E
3B9C
3BB8
1FF0
1FF0
3FF0
7338
773E
E73E
000E
000C
000C
ENDCHAR
STARTCHAR 0498
ENCODING 1176
SWIDTH 600 0
DWIDTH 10 0
BBX 10 16 0 -4
BITMAP
1F00
3FC0
39C0
01C0
03C0
0F80
0F00
0380
0380
E380
7F00
3E00
1800
1800
3800
3800
ENDCHAR
STARTCHAR 0499
ENCODING 1177
SWIDTH 480 0
DWIDTH 8 0
BBX 8 13 0 -4
BITMAP
3E
7F
77
07
1E
06
E7
FE
7C
38
30
30
70
ENDCHAR
STARTCHAR 049A
ENCODING 1178
SWIDTH 720 0
DWIDTH 12 0
BBX 11 15 0 -3
BITMAP
38E0
39E0
33C0
7380
7700
7F00
7F00
7700
6700
E380
E3E0
E3E0
00E0
00E0
00E0
ENDCHAR
STARTCHAR 049B
ENCODING 1179
SWIDTH 660 0
DWIDTH 11 0
BBX 10 12 0 -3
BITMAP
33C0
7380
7700
7E00
7E00
7E00
EE00
E7C0
E7C0
01C0
0180
0180
ENDCHAR
STARTCHAR 049C
ENCODING 1180
SWIDTH 660 0
DWIDTH 11 0
BBX 12 12 0 0
BITMAP
38F0
38E0
31E0
75C0
7780
7F00
7F80
7F80
6B80
E3C0
E1C0
E1C0
ENDCHAR
STARTCHAR 049D
ENCODING 1181
SWIDTH 600 0
DWIDTH 10 0
BBX 11 9 0 0
BITMAP
31E0
71C0
7F80
7F00
7F00
7F00
6F00
E380
E380
ENDCHAR
STARTCHAR 049E
ENCODING 1182
SWIDTH 660 0
DWIDTH 11 0
BBX 11 12 0 0
BITMAP
38E0
FDE0
FDC0
3380
7700
7F00
7F00
7700
7380
6380
E380
E1C0
ENDCHAR
STARTCHAR 049F
ENCODING 1183
SWIDTH 540 0
DWIDTH 9 0
BBX 9 13 0 0
BITMAP
3800
3800
FC00
3000
3380
7780
7700
7E00
7C00
6E00
EE00
E700
E700
ENDCHAR
STARTCHAR 04A0
ENCODING 1184
SWIDTH 780 0
DWIDTH 13 0
BBX 13 12 1 0
BITMAP
FE38
FE78
0C70
0CE0
1DC0
1FC0
1FC0
1DC0
19C0
38E0
38E0
38F0
ENDCHAR
STARTCHAR 04A1
ENCODING 1185
SWIDTH 720 0
DWIDTH 12 0
BBX 11 9 1 0
BITMAP
FCE0
FDC0
1BC0
1F80
3F00
3F80
3B80
3B80
33C0
ENDCHAR
STARTCHAR 04A2
ENCODING 1186
SWIDTH 780 0
DWIDTH 13 0
BBX 12 15 0 -3
BITMAP
3870
3860
3060
70E0
70E0
7FE0
7FE0
70C0
61C0
E1C0
E1F0
E1F0
0060
0060
00E0
ENDCHAR
STARTCHAR 04A3
ENCODING 1187
SWIDTH 660 0
DWIDTH 11 0
BBX 10 12 0 -3
BITMAP
7380
7380
7380
6300
7F00
FF00
E700
E7C0
E7C0
0180
0180
0380
ENDCHAR
STARTCHAR 04A4
ENCODING 1188
SWIDTH 960 0
DWIDTH 16 0
BBX 17 12 0 0
BITMAP
387F80
387F00
306000
70E000
70E000
7FE000
7FE000
70C000
61C000
E1C000
E1C000
E1C000
ENDCHAR
STARTCHAR 04A5
ENCODING 1189
SWIDTH 660 0
DWIDTH 11 0
BBX 12 9 0 0
BITMAP
73F0
73E0
7380
6300
7F00
FF00
E700
E700
E700
ENDCHAR
STARTCHAR 04A6
ENCODING 1190
SWIDTH 1020 0
DWIDTH 17 0
BBX 16 15 0 -3
BITMAP
3FF0
3FF0
3060
70E0
70E0
70FC
70FE
70C7
60C7
E1C7
E1C7
E1C7
000E
001E
0018
ENDCHAR
STARTCHAR 04A7
ENCODING 1191
SWIDTH 840 0
DWIDTH 14 0
BBX 13 11 0 -2
BITMAP
7F80
7F80
7380
6380
63F0
E7F8
E738
E738
E738
0070
0060
ENDCHAR
STARTCHAR 04A8
ENCODING 1192
SWIDTH 840 0
DWIDTH 14 0
BBX 12 12 1 0
BITMAP
19E0
3BE0
7770
E770
E670
E670
E670
E670
E7E0
F7C0
7FE0
3FE0
ENDCHAR
STARTCHAR 04A9
ENCODING 1193
SWIDTH 660 0
DWIDTH 11 0
BBX 10 9 0 0
BITMAP
1B80
3FC0
76C0
74C0
6CC0
EDC0
7DC0
7F80
3FC0
ENDCHAR
STARTCHAR 04AA
ENCODING 1194
SWIDTH 660 0
DWIDTH 11 0
BBX 10 16 1 -4
BITMAP
1F00
3F80
7380
E1C0
E000
E000
E000
C000
C380
E780
FF00
7E00
3800
3800
3000
3000
ENDCHAR
STARTCHAR 04AB
ENCODING 1195
SWIDTH 480 0
DWIDTH 8 0
BBX 8 13 0 -4
BITMAP
1E
3F
73
63
E0
E0
67
7E
3C
38
38
38
30
ENDCHAR
STARTCHAR 04AC
ENCODING 1196
SWIDTH 600 0
DWIDTH 10 0
BBX 10 15 1 -3
BITMAP
FFC0
FFC0
1C00
1C00
1C00
1C00
1C00
1800
3800
3800
3C00
3C00
1C00
1C00
1C00
ENDCHAR
STARTCHAR 04AD
ENCODING 1197
SWIDTH 540 0
DWIDTH 9 0
BBX 8 12 1 -3
BITMAP
FF
FF
38
38
30
30
70
7C
7C
1C
18
18
ENDCHAR
STARTCHAR 04AE
ENCODING 1198
SWIDTH 600 0
DWIDTH 10 0
BBX 10 12 1 0
BITMAP
E1C0
61C0
7380
7700
3700
3E00
3C00
1C00
3800
3800
3800
3800
ENDCHAR
STARTCHAR 04AF
ENCODING 1199
SWIDTH 480 0
DWIDTH 8 0
BBX 8 12 1 -3
BITMAP
C7
E6
EE
EC
FC
F8
78
70
70
70
60
60
ENDCHAR
STARTCHAR 04B0
ENCODING 1200
SWIDTH 600 0
DWIDTH 10 0
BBX 10 12 1 0
BITMAP
E1C0
61C0
7380
7700
3700
3E00
7E00
7E00
3800
3800
3800
3800
ENDCHAR
STARTCHAR 04B1
ENCODING 1201
SWIDTH 480 0
DWIDTH 8 0
BBX 8 12 1 -3
BITMAP
C7
E6
EE
EC
FC
F8
78
FC
F8
70
60
60
ENDCHAR
STARTCHAR 04B2
ENCODING 1202
SWIDTH 660 0
DWIDTH 11 0
BBX 11 15 0 -3
BITMAP
70E0
39C0
39C0
1B80
1F00
1F00
1E00
3F00
3F00
7300
E3C0
E3C0
01C0
01C0
01C0
ENDCHAR
STARTCHAR 04B3
ENCODING 1203
SWIDTH 540 0
DWIDTH 9 0
BBX 9 12 0 -3
BITMAP
7380
7700
3E00
3E00
3C00
3C00
7E00
EF00
E700
0700
0700
0700
ENDCHAR
STARTCHAR 04B4
ENCODING 1204
SWIDTH 840 0
DWIDTH 14 0
BBX 12 15 1 -3
BITMAP
FF30
FF70
3870
3870
3870
3870
3860
30E0
70E0
70E0
7FF0
7FF0
0070
0070
0070
ENDCHAR
STARTCHAR 04B5
ENCODING 1205
SWIDTH 660 0
DWIDTH 11 0
BBX 9 12 1 -3
BITMAP
FD80
FB80
7380
7380
7380
6300
6300
FF80
FF80
0380
0380
0380
ENDCHAR
STARTCHAR 04B6
ENCODING 1206
SWIDTH 780 0
DWIDTH 13 0
BBX 10 15 2 -3
BITMAP
E1C0
E180
E380
C380
C380
E780
FF80
3F00
0300
0700
07C0
07C0
0180
0180
0380
ENDCHAR
STARTCHAR 04B7
ENCODING 1207
SWIDTH 660 0
DWIDTH 11 0
BBX 9 12 1 -3
BITMAP
E700
E700
E700
E700
FE00
7E00
0E00
0F80
0F80
0300
0300
0700
ENDCHAR
STARTCHAR 04B8
ENCODING 1208
SWIDTH 660 0
DWIDTH 11 0
BBX 10 12 1 0
BITMAP
70C0
71C0
61C0
EDC0
EDC0
7B80
7F80
1F80
0B80
1B80
0380
0300
ENDCHAR
STARTCHAR 04B9
ENCODING 1209
SWIDTH 540 0
DWIDTH 9 0
BBX 8 9 1 0
BITMAP
E7
E7
FF
F7
FE
7E
1E
3E
0E
ENDCHAR
STARTCHAR 04BA
ENCODING 1210
SWIDTH 720 0
DWIDTH 12 0
BBX 10 12 0 0
BITMAP
3800
3800
3800
3000
3E00
7F80
7FC0
71C0
71C0
61C0
E1C0
E1C0
ENDCHAR
STARTCHAR 04BB
ENCODING 1211
SWIDTH 540 0
DWIDTH 9 0
BBX 8 13 0 0
BITMAP
38
30
30
70
7F
7F
73
63
63
E7
E7
E7
E7
ENDCHAR
STARTCHAR 04BC
ENCODING 1212
SWIDTH 720 0
DWIDTH 12 0
BBX 12 12 0 0
BITMAP
07C0
0FE0
1EE0
DC70
F870
FFF0
7FF0
3800
3800
3C40
1FC0
0FC0
ENDCHAR
STARTCHAR 04BD
ENCODING 1213
SWIDTH 600 0
DWIDTH 10 0
BBX 10 9 0 0
BITMAP
0F00
1F80
B9C0
F9C0
FFC0
3000
3800
3F80
1F00
ENDCHAR
STARTCHAR 04BE
ENCODING 1214
SWIDTH 720 0
DWIDTH 12 0
BBX 12 16 0 -4
BITMAP
07C0
0FE0
1EE0
DC70
F870
FFF0
7FF0
3800
3800
3C40
1FC0
0FC0
0700
0700
0600
0600
ENDCHAR
STARTCHAR 04BF
ENCODING 1215
SWIDTH 600 0
DWIDTH 10 0
BBX 10 13 0 -4
BITMAP
0F00
1F80
B9C0
F9C0
FFC0
3000
3800
3F80
1F00
1C00
1C00
1C00
1C00
ENDCHAR
STARTCHAR 04C0
ENCODING 1216
SWIDTH 300 0
DWIDTH 5 0
BBX 5 12 0 0
BITMAP
38
38
38
30
70
70
70
70
70
60
E0
E0
ENDCHAR
STARTCHAR 04C1
ENCODING 1217
SWIDTH 1020 0
DWIDTH 17 0
BBX 18 15 0 0
BITMAP
019800
00F000
000000
38E3C0
38E380
1CE700
1CEE00
1CCE00
0FFC00
1FFC00
3DDC00
39CE00
71CE00
F18F00
E38700
ENDCHAR
STARTCHAR 04C2
ENCODING 1218
SWIDTH 900 0
DWIDTH 15 0
BBX 15 13 0 0
BITMAP
0330
0360
01C0
0000
719E
3B9C
3BB8
1FF0
1FF0
3FF0
7338
7738
E738
ENDCHAR
STARTCHAR 04C3
ENCODING 1219
SWIDTH 660 0
DWIDTH 11 0
BBX 11 15 0 -3
BITMAP
39E0
39C0
3380
7380
7700
7F00
7F80
73C0
61C0
E1C0
E1C0
E1C0
0380
0700
0600
ENDCHAR
STARTCHAR 04C4
ENCODING 1220
SWIDTH 600 0
DWIDTH 10 0
BBX 10 11 0 -3
BITMAP
33C0
7380
7700
7E00
7E00
7F00
6300
E300
E700
0700
0E00
ENDCHAR
STARTCHAR 04C5
ENCODING 1221
SWIDTH 780 0
DWIDTH 13 0
BBX 13 15 -1 -3
BITMAP
07F8
0FF8
0E30
0E70
0E70
0C70
1C70
1C60
1C60
38E0
78F8
E0F8
0030
0030
0060
ENDCHAR
STARTCHAR 04C6
ENCODING 1222
SWIDTH 660 0
DWIDTH 11 0
BBX 11 12 -1 -3
BITMAP
1FC0
1FC0
19C0
1980
3980
3B80
3380
F3E0
E3E0
00C0
00C0
0180
ENDCHAR
STARTCHAR 04C7
ENCODING 1223
SWIDTH 660 0
DWIDTH 11 0
BBX 12 16 0 -4
BITMAP
3870
3870
3060
70E0
70E0
7FE0
7FE0
70C0
60C0
E1C0
E1C0
E1C0
01C0
0780
0780
0600
ENDCHAR
STARTCHAR 04C8
ENCODING 1224
SWIDTH 540 0
DWIDTH 9 0
BBX 9 13 0 -4
BITMAP
7380
7380
7380
6380
7F00
FF00
E700
E700
E700
0600
1E00
1E00
1800
ENDCHAR
STARTCHAR 04C9
ENCODING 1225
SWIDTH 780 0
DWIDTH 13 0
BBX 12 15 0 -3
BITMAP
3870
3860
3060
70E0
70E0
7FE0
7FE0
70C0
61C0
E1C0
E1F0
E1F0
0060
0060
00C0
ENDCHAR
STARTCHAR 04CA
ENCODING 1226
SWIDTH 660 0
DWIDTH 11 0
BBX 10 12 0 -3
BITMAP
7380
7380
7380
6300
7F00
FF00
E700
E7C0
E7C0
0180
0180
0300
ENDCHAR
STARTCHAR 04CB
ENCODING 1227
SWIDTH 660 0
DWIDTH 11 0
BBX 10 15 2 -3
BITMAP
E1C0
E180
E380
C380
C380
E780
FF80
3F00
0300
0700
1F00
1F00
1800
1800
3800
ENDCHAR
STARTCHAR 04CC
ENCODING 1228
SWIDTH 540 0
DWIDTH 9 0
BBX 8 12 1 -3
BITMAP
E7
E7
E7
E7
FE
7E
0E
3E
3E
30
30
70
ENDCHAR
STARTCHAR 04CD
ENCODING 1229
SWIDTH 960 0
DWIDTH 16 0
BBX 15 15 0 -3
BITMAP
3C1C
3C3C
3C3C
7C7C
7C7C
7CDC
7ED8
7798
67B8
E738
E73E
E63C
000C
000C
0018
ENDCHAR
STARTCHAR 04CE
ENCODING 1230
SWIDTH 840 0
DWIDTH 14 0
BBX 13 12 0 -3
BITMAP
38F0
78F0
79F0
79F0
7FE0
6FE0
EFE0
EEF8
ECF8
0030
0030
0060
ENDCHAR
STARTCHAR 04CF
ENCODING 1231
SWIDTH 300 0
DWIDTH 5 0
BBX 5 12 0 0
BITMAP
38
38
38
30
70
70
70
70
70
60
E0
E0
ENDCHAR
STARTCHAR 04D0
ENCODING 1232
SWIDTH 660 0
DWIDTH 11 0
BBX 11 15 -1 0
BITMAP
0660
03C0
0000
0380
0380
0780
07C0
0FC0
0DC0
1CC0
38C0
3FE0
7FE0
70E0
E0E0
ENDCHAR
STARTCHAR 04D1
ENCODING 1233
SWIDTH 540 0
DWIDTH 9 0
BBX 8 13 0 0
BITMAP
11
1B
0E
00
1E
7F
77
07
7F
E7
E6
FE
76
ENDCHAR
STARTCHAR 04D2
ENCODING 1234
SWIDTH 660 0
DWIDTH 11 0
BBX 11 15 -1 0
BITMAP
0660
0660
0000
0380
0380
0780
07C0
0FC0
0DC0
1CC0
38C0
3FE0
7FE0
70E0
E0E0
ENDCHAR
STARTCHAR 04D3
ENCODING 1235
SWIDTH 540 0
DWIDTH 9 0
BBX 8 12 0 0
BITMAP
33
33
00
1E
7F
77
07
7F
E7
E6
FE
76
ENDCHAR
STARTCHAR 04D4
ENCODING 1236
SWIDTH 900 0
DWIDTH 15 0
BBX 15 12 0 0
BITMAP
01FE
03FE
07E0
07C0
0EC0
0CFC
1DFC
3FC0
3FC0
71C0
E1FC
E1FC
ENDCHAR
STARTCHAR 04D5
ENCODING 1237
SWIDTH 840 0
DWIDTH 14 0
BBX 13 9 0 0
BITMAP
1EF0
3FF8
7398
0318
7FF8
F700
E700
FFF0
7DF0
ENDCHAR
STARTCHAR 04D6
ENCODING 1238
SWIDTH 540 0
DWIDTH 9 0
BBX 10 15 0 0
BITMAP
0CC0
0F80
0000
3FC0
3FC0
3000
7000
7000
7F00
7F00
7000
6000
E000
FF00
FF00
ENDCHAR
STARTCHAR 04D7
ENCODING 1239
SWIDTH 540 0
DWIDTH 9 0
BBX 8 13 0 0
BITMAP
33
1F
0E
00
1E
3F
73
63
FF
E0
62
7F
3E
ENDCHAR
STARTCHAR 04D8
ENCODING 1240
SWIDTH 660 0
DWIDTH 11 0
BBX 10 12 1 0
BITMAP
7E00
7F80
23C0
01C0
01C0
FFC0
FFC0
C1C0
C380
E780
FF00
3E00
ENDCHAR
STARTCHAR 04D9
ENCODING 1241
SWIDTH 540 0
DWIDTH 9 0
BBX 8 9 0 0
BITMAP
3C
7F
07
03
7F
E7
E7
7E
3C
ENDCHAR
STARTCHAR 04DA
ENCODING 1242
SWIDTH 660 0
DWIDTH 11 0
BBX 10 14 1 0
BITMAP
1980
3980
7E00
7F80
23C0
01C0
01C0
FFC0
FFC0
C1C0
C380
E780
FF00
3E00
ENDCHAR
STARTCHAR 04DB
ENCODING 1243
SWIDTH 540 0
DWIDTH 9 0
BBX 8 12 0 0
BITMAP
33
33
00
3C
7F
07
03
7F
E7
E7
7E
3C
ENDCHAR
STARTCHAR 04DC
ENCODING 1244
SWIDTH 1020 0
DWIDTH 17 0
BBX 18 15 0 0
BITMAP
019800
019800
000000
38E3C0
38E380
1CE700
1CEE00
1CCE00
0FFC00
1FFC00
3DDC00
39CE00
71CE00
F18F00
E38700
ENDCHAR
STARTCHAR 04DD
ENCODING 1245
SWIDTH 900 0
DWIDTH 15 0
BBX 15 12 0 0
BITMAP
0770
0630
0000
719E
3B9C
3BB8
1FF0
1FF0
3FF0
7338
7738
E738
ENDCHAR
STARTCHAR 04DE
ENCODING 1246
SWIDTH 600 0
DWIDTH 10 0
BBX 10 15 0 0
BITMAP
0880
1DC0
0000
1F00
3FC0
39C0
01C0
03C0
0F80
0F00
0380
0380
E380
7F00
3E00
ENDCHAR
STARTCHAR 04DF
ENCODING 1247
SWIDTH 480 0
DWIDTH 8 0
BBX 8 12 0 0
BITMAP
33
33
00
3E
7F
77
07
1E
06
E7
FE
7C
ENDCHAR
STARTCHAR 04E0
ENCODING 1248
SWIDTH 540 0
DWIDTH 9 0
BBX 10 12 0 0
BITMAP
3FC0
3FC0
0380
0700
0E00
0F00
0780
0380
0380
E380
7F00
3E00
ENDCHAR
STARTCHAR 04E1
ENCODING 1249
SWIDTH 540 0
DWIDTH 9 0
BBX 10 12 0 -3
BITMAP
3FC0
7F80
0380
0700
0E00
1E00
1F00
0300
0300
E700
FF00
7C00
ENDCHAR
STARTCHAR 04E2
ENCODING 1250
SWIDTH 660 0
DWIDTH 11 0
BBX 12 14 0 0
BITMAP
0FC0
0000
38F0
30E0
71E0
73E0
73E0
76E0
7EE0
7CC0
F9C0
F9C0
F1C0
E1C0
ENDCHAR
STARTCHAR 04E3
ENCODING 1251
SWIDTH 540 0
DWIDTH 9 0
BBX 9 12 0 0
BITMAP
1F00
1F00
0000
7380
7780
7780
6F80
6B00
FF00
F700
F700
E700
ENDCHAR
STARTCHAR 04E4
ENCODING 1252
SWIDTH 660 0
DWIDTH 11 0
BBX 12 15 0 0
BITMAP
0CC0
0CC0
0000
38F0
30E0
71E0
73E0
73E0
76E0
7EE0
7CC0
F9C0
F9C0
F1C0
E1C0
ENDCHAR
STARTCHAR 04E5
ENCODING 1253
SWIDTH 540 0
DWIDTH 9 0
BBX 9 12 0 0
BITMAP
3980
1980
0000
7380
7780
7780
6F80
6B00
FF00
F700
F700
E700
ENDCHAR
STARTCHAR 04E6
ENCODING 1254
SWIDTH 660 0
DWIDTH 11 0
BBX 10 15 1 0
BITMAP
1980
1980
0000
1F00
3F80
7380
E1C0
E1C0
E1C0
E1C0
C1C0
E380
E780
7F00
3E00
ENDCHAR
STARTCHAR 04E7
ENCODING 1255
SWIDTH 540 0
DWIDTH 9 0
BBX 9 12 0 0
BITMAP
3B80
3180
0000
1E00
3F00
7300
6380
E380
E300
E700
7F00
3C00
ENDCHAR
STARTCHAR 04E8
ENCODING 1256
SWIDTH 660 0
DWIDTH 11 0
BBX 10 12 1 0
BITMAP
1F00
3F80
73C0
61C0
E1C0
FFC0
FFC0
E1C0
E380
E380
7F00
3E00
ENDCHAR
STARTCHAR 04E9
ENCODING 1257
SWIDTH 540 0
DWIDTH 9 0
BBX 9 9 0 0
BITMAP
1E00
3F00
7300
6380
FF80
E300
E700
7E00
3C00
ENDCHAR
STARTCHAR 04EA
ENCODING 1258
SWIDTH 660 0
DWIDTH 11 0
BBX 10 15 1 0
BITMAP
1880
1980
0000
1F00
3F80
73C0
61C0
E1C0
FFC0
FFC0
E1C0
E380
E380
7F00
3E00
ENDCHAR
STARTCHAR 04EB
ENCODING 1259
SWIDTH 540 0
DWIDTH 9 0
BBX 9 12 0 0
BITMAP
3980
1980
0000
1E00
3F00
7300
6380
FF80
E300
E700
7E00
3C00
ENDCHAR
STARTCHAR 04EC
ENCODING 1260
SWIDTH 600 0
DWIDTH 10 0
BBX 10 15 0 0
BITMAP
0880
1DC0
0000
1F00
3F80
71C0
71C0
01C0
0FC0
0FC0
01C0
E180
E380
7F00
3E00
ENDCHAR
STARTCHAR 04ED
ENCODING 1261
SWIDTH 480 0
DWIDTH 8 0
BBX 8 12 0 0
BITMAP
33
33
00
3C
7E
67
07
1F
07
E6
FE
7C
ENDCHAR
STARTCHAR 04EE
ENCODING 1262
SWIDTH 600 0
DWIDTH 10 0
BBX 10 14 1 0
BITMAP
1F80
0000
E1C0
61C0
7380
7300
3700
3E00
3E00
1C00
1C00
3800
F000
E000
ENDCHAR
STARTCHAR 04EF
ENCODING 1263
SWIDTH 480 0
DWIDTH 8 0
BBX 9 16 0 -4
BITMAP
1F00
3F00
0000
6380
7380
7700
7600
7E00
3C00
3C00
3800
3800
3000
F000
E000
C000
ENDCHAR
STARTCHAR 04F0
ENCODING 1264
SWIDTH 600 0
DWIDTH 10 0
BBX 10 15 1 0
BITMAP
1980
1980
0000
E1C0
61C0
7380
7300
3700
3E00
3E00
1C00
1C00
3800
F000
E000
ENDCHAR
STARTCHAR 04F1
ENCODING 1265
SWIDTH 480 0
DWIDTH 8 0
BBX 9 16 0 -4
BITMAP
3300
3300
0000
6380
7380
7700
7600
7E00
3C00
3C00
3800
3800
3000
F000
E000
C000
ENDCHAR
STARTCHAR 04F2
ENCODING 1266
SWIDTH 600 0
DWIDTH 10 0
BBX 10 15 1 0
BITMAP
06C0
0D80
1000
E1C0
61C0
7380
7300
3700
3E00
3E00
1C00
1C00
3800
F000
E000
ENDCHAR
STARTCHAR 04F3
ENCODING 1267
SWIDTH 480 0
DWIDTH 8 0
BBX 10 17 0 -4
BITMAP
0EC0
0D80
1B00
0000
6380
7380
7700
7600
7E00
3C00
3C00
3800
3800
3000
F000
E000
C000
ENDCHAR
STARTCHAR 04F4
ENCODING 1268
SWIDTH 660 0
DWIDTH 11 0
BBX 10 15 2 0
BITMAP
1100
3980
0000
E1C0
E180
E380
C380
C380
E780
FF80
3F00
0300
0700
0700
0700
ENDCHAR
STARTCHAR 04F5
ENCODING 1269
SWIDTH 540 0
DWIDTH 9 0
BBX 8 12 1 0
BITMAP
33
33
00
E7
E7
E7
E7
FE
7E
0E
0E
0E
ENDCHAR
STARTCHAR 04F6
ENCODING 1270
SWIDTH 540 0
DWIDTH 9 0
BBX 10 15 0 -3
BITMAP
3FC0
3FC0
3000
7000
7000
7000
7000
7000
6000
E000
F800
F800
3800
3000
3000
ENDCHAR
STARTCHAR 04F7
ENCODING 1271
SWIDTH 420 0
DWIDTH 7 0
BBX 7 12 0 -3
BITMAP
7E
7E
70
60
60
E0
E0
F8
F8
30
30
70
ENDCHAR
STARTCHAR 04F8
ENCODING 1272
SWIDTH 840 0
DWIDTH 14 0
BBX 14 15 0 0
BITMAP
0220
0730
0000
380C
381C
301C
701C
7E1C
7F9C
7398
71F8
61B8
E3B8
FF38
FE38
ENDCHAR
STARTCHAR 04F9
ENCODING 1273
SWIDTH 840 0
DWIDTH 14 0
BBX 13 12 0 0
BITMAP
0660
0660
0000
3018
7018
7038
7F38
7F38
63B8
E330
FF30
FE70
ENDCHAR
STARTCHAR 04FA
ENCODING 1274
SWIDTH 600 0
DWIDTH 10 0
BBX 11 16 0 -4
BITMAP
1FE0
1FC0
3800
3800
3800
FC00
FC00
3000
7000
7000
7C00
7C00
1C00
7C00
7800
6000
ENDCHAR
STARTCHAR 04FB
ENCODING 1275
SWIDTH 420 0
DWIDTH 7 0
BBX 8 13 0 -4
BITMAP
3F
3F
30
70
FC
70
70
7C
78
38
B8
F0
E0
ENDCHAR
STARTCHAR 04FC
ENCODING 1276
SWIDTH 720 0
DWIDTH 12 0
BBX 11 16 0 -4
BITMAP
70E0
39C0
39C0
1B80
1F00
1F00
1E00
3F00
3F00
7300
E3E0
E3E0
00E0
03C0
03C0
0300
ENDCHAR
STARTCHAR 04FD
ENCODING 1277
SWIDTH 600 0
DWIDTH 10 0
BBX 9 13 0 -4
BITMAP
7380
7700
3E00
3E00
3C00
3C00
7E00
EF80
E780
0380
0F00
0F00
0C00
ENDCHAR
STARTCHAR 04FE
ENCODING 1278
SWIDTH 600 0
DWIDTH 10 0
BBX 11 12 0 0
BITMAP
70E0
39C0
39C0
1B80
1F00
1F00
3F00
3F00
3F00
7300
E380
E380
ENDCHAR
STARTCHAR 04FF
ENCODING 1279
SWIDTH 480 0
DWIDTH 8 0
BBX 9 9 0 0
BITMAP
7380
7700
3E00
3E00
7E00
3C00
7E00
EE00
E600
ENDCHAR
STARTCHAR 0500
ENCODING 1280
SWIDTH 600 0
DWIDTH 10 0
BBX 10 12 0 0
BITMAP
00C0
00C0
01C0
01C0
1FC0
3FC0
7180
E380
E380
7380
7F80
3F80
ENDCHAR
STARTCHAR 0501
ENCODING 1281
SWIDTH 540 0
DWIDTH 9 0
BBX 10 13 0 0
BITMAP
01C0
0180
0180
0380
3F80
7F80
7380
6300
E300
E700
E700
7F00
7F00
ENDCHAR
STARTCHAR 0502
ENCODING 1282
SWIDTH 900 0
DWIDTH 15 0
BBX 14 12 1 0
BITMAP
01C0
01C0
01C0
0180
3F98
7F9C
F39C
E398
E3B8
E338
7FF0
3FE0
ENDCHAR
STARTCHAR 0503
ENCODING 1283
SWIDTH 840 0
DWIDTH 14 0
BBX 12 13 1 0
BITMAP
0380
0380
0300
0300
3F00
7F30
E730
E730
C630
C670
CE70
FFE0
77C0
ENDCHAR
STARTCHAR 0504
ENCODING 1284
SWIDTH 780 0
DWIDTH 13 0
BBX 11 12 1 0
BITMAP
7800
7E00
0E00
0600
0EE0
7CE0
F8E0
1CE0
0CE0
0CC0
0FC0
0F80
ENDCHAR
STARTCHAR 0505
ENCODING 1285
SWIDTH 600 0
DWIDTH 10 0
BBX 9 9 1 0
BITMAP
F000
F800
3800
3980
F180
F980
3B80
3B80
1F00
ENDCHAR
STARTCHAR 0506
ENCODING 1286
SWIDTH 600 0
DWIDTH 10 0
BBX 8 15 1 -3
BITMAP
78
FC
0E
0E
0E
FC
F8
1C
1C
1C
1F
1F
07
06
0C
ENDCHAR
STARTCHAR 0507
ENCODING 1287
SWIDTH 600 0
DWIDTH 10 0
BBX 8 12 1 -3
BITMAP
F8
FC
1C
0C
FC
F8
1C
1F
1E
06
06
0C
ENDCHAR
STARTCHAR 0508
ENCODING 1288
SWIDTH 960 0
DWIDTH 16 0
BBX 15 12 0 0
BITMAP
0FF0
0FF0
1C60
1CE0
1CEE
1CE6
18E6
38EE
38CE
71CE
F0FC
E0F8
ENDCHAR
STARTCHAR 0509
ENCODING 1289
SWIDTH 840 0
DWIDTH 14 0
BBX 13 9 0 0
BITMAP
1F80
3F80
3BB8
3B98
33B8
3338
7338
E3F0
C1E0
ENDCHAR
STARTCHAR 050A
ENCODING 1290
SWIDTH 960 0
DWIDTH 16 0
BBX 15 12 0 0
BITMAP
3870
3860
3060
70E0
70EE
7FE6
7FE6
70EE
60CE
E1CE
E0FC
E0F8
ENDCHAR
STARTCHAR 050B
ENCODING 1291
SWIDTH 780 0
DWIDTH 13 0
BBX 13 9 0 0
BITMAP
7380
7380
63B8
7F38
FF38
FF38
E730
E3F0
C3E0
ENDCHAR
STARTCHAR 050C
ENCODING 1292
SWIDTH 600 0
DWIDTH 10 0
BBX 10 12 0 0
BITMAP
0F80
1F80
3880
7000
7000
6000
E1C0
E1C0
E1C0
7380
7F80
3F00
ENDCHAR
STARTCHAR 050D
ENCODING 1293
SWIDTH 540 0
DWIDTH 9 0
BBX 8 9 0 0
BITMAP
1E
3E
70
60
E0
E3
67
7F
3E
ENDCHAR
STARTCHAR 050E
ENCODING 1294
SWIDTH 660 0
DWIDTH 11 0
BBX 10 12 1 0
BITMAP
FF80
FF80
1C00
1C00
1DC0
1DC0
19C0
39C0
39C0
3B80
3F80
1F00
ENDCHAR
STARTCHAR 050F
ENCODING 1295
SWIDTH 600 0
DWIDTH 10 0
BBX 9 9 1 0
BITMAP
FE00
FE00
3800
3300
3380
7380
7300
3F00
3E00
ENDCHAR
STARTCHAR 0510
ENCODING 1296
SWIDTH 600 0
DWIDTH 10 0
BBX 10 12 0 0
BITMAP
0F80
3FC0
39C0
7000
3000
3E00
3E00
7000
E000
E3C0
7F80
3F00
ENDCHAR
STARTCHAR 0511
ENCODING 1297
SWIDTH 540 0
DWIDTH 9 0
BBX 9 9 0 0
BITMAP
1E00
7F80
7380
7000
3C00
7000
E300
7F00
7E00
ENDCHAR
STARTCHAR 0512
ENCODING 1298
SWIDTH 840 0
DWIDTH 14 0
BBX 14 16 -1 -4
BITMAP
07F8
0FF8
0E30
0E70
0E70
0C70
1C70
1C60
1C60
38E0
78FC
E0F8
0018
0078
00F0
0060
ENDCHAR
STARTCHAR 0513
ENCODING 1299
SWIDTH 720 0
DWIDTH 12 0
BBX 11 13 -1 -4
BITMAP
1FC0
1FC0
19C0
1980
3980
3B80
3380
F3E0
E3E0
00E0
03E0
03C0
0100
ENDCHAR
STARTCHAR 1E00
ENCODING 7680
SWIDTH 660 0
DWIDTH 11 0
BBX 11 15 -1 -3
BITMAP
0380
0380
0780
07C0
0FC0
0DC0
1CC0
38C0
3FE0
7FE0
70E0
E0E0
0400
0A00
0E00
ENDCHAR
STARTCHAR 1E01
ENCODING 7681
SWIDTH 540 0
DWIDTH 9 0
BBX 8 12 0 -3
BITMAP
1E
7F
77
07
7F
E7
E6
FE
76
20
50
70
ENDCHAR
STARTCHAR 1E3E
ENCODING 7742
SWIDTH 840 0
DWIDTH 14 0
BBX 14 15 0 0
BITMAP
0070
00C0
0180
3C1C
3C3C
3C3C
7C7C
7C7C
7CDC
7ED8
7798
67B8
E738
E738
E638
ENDCHAR
STARTCHAR 1E3F
ENCODING 7743
SWIDTH 840 0
DWIDTH 14 0
BBX 13 13 0 0
BITMAP
0070
00E0
01C0
0000
7770
7FF8
73B8
7318
6338
6738
E738
E738
E730
ENDCHAR
STARTCHAR 1E80
ENCODING 7808
SWIDTH 840 0
DWIDTH 14 0
BBX 14 15 1 0
BITMAP
0600
0300
0300
E31C
E718
E738
E738
EFB0
6FF0
6FF0
7BE0
79E0
79E0
71C0
71C0
ENDCHAR
STARTCHAR 1E81
ENCODING 7809
SWIDTH 720 0
DWIDTH 12 0
BBX 11 13 1 0
BITMAP
0C00
0C00
0600
0000
CC60
CEE0
CEC0
DEC0
DFC0
F780
F780
E700
E700
ENDCHAR
STARTCHAR 1E82
ENCODING 7810
SWIDTH 840 0
DWIDTH 14 0
BBX 14 15 1 0
BITMAP
01C0
0180
0300
E31C
E718
E738
E738
EFB0
6FF0
6FF0
7BE0
79E0
79E0
71C0
71C0
ENDCHAR
STARTCHAR 1E83
ENCODING 7811
SWIDTH 720 0
DWIDTH 12 0
BBX 11 13 1 0
BITMAP
0380
0300
0600
0000
CC60
CEE0
CEC0
DEC0
DFC0
F780
F780
E700
E700
ENDCHAR
STARTCHAR 1E84
ENCODING 7812
SWIDTH 840 0
DWIDTH 14 0
BBX 14 15 1 0
BITMAP
0440
0EE0
0000
E31C
E718
E738
E738
EFB0
6FF0
6FF0
7BE0
79E0
79E0
71C0
71C0
ENDCHAR
STARTCHAR 1E85
ENCODING 7813
SWIDTH 720 0
DWIDTH 12 0
BBX 11 12 1 0
BITMAP
1980
1980
0000
CC60
CEE0
CEC0
DEC0
DFC0
F780
F780
E700
E700
ENDCHAR
STARTCHAR 1EA0
ENCODING 7840
SWIDTH 660 0
DWIDTH 11 0
BBX 11 15 -1 -3
BITMAP
0380
0380
0780
07C0
0FC0
0DC0
1CC0
38C0
3FE0
7FE0
70E0
E0E0
0000
0E00
0E00
ENDCHAR
STARTCHAR 1EA1
ENCODING 7841
SWIDTH 540 0
DWIDTH 9 0
BBX 8 12 0 -3
BITMAP
1E
7F
77
07
7F
E7
E6
FE
76
20
70
70
ENDCHAR
STARTCHAR 1EA2
ENCODING 7842
SWIDTH 660 0
DWIDTH 11 0
BBX 11 16 -1 0
BITMAP
01C0
00C0
01C0
0000
0380
0380
0780
07C0
0FC0
0DC0
1CC0
38C0
3FE0
7FE0
70E0
E0E0
ENDCHAR
STARTCHAR 1EA3
ENCODING 7843
SWIDTH 540 0
DWIDTH 9 0
BBX 8 14 0 0
BITMAP
0C
0F
07
0C
00
1E
7F
77
07
7F
E7
E6
FE
76
ENDCHAR
STARTCHAR 1EA4
ENCODING 7844
SWIDTH 660 0
DWIDTH 11 0
BBX 14 16 -1 0
BITMAP
000C
0018
03B0
0660
0380
0380
0780
07C0
0FC0
0DC0
1CC0
38C0
3FE0
7FE0
70E0
E0E0
ENDCHAR
STARTCHAR 1EA5
ENCODING 7845
SWIDTH 540 0
DWIDTH 9 0
BBX 11 13 0 0
BITMAP
0060
0CC0
1A00
0000
1E00
7F00
7700
0700
7F00
E700
E600
FE00
7600
ENDCHAR
STARTCHAR 1EA6
ENCODING 7846
SWIDTH 660 0
DWIDTH 11 0
BBX 11 16 -1 0
BITMAP
1800
0800
0F80
0660
0380
0380
0780
07C0
0FC0
0DC0
1CC0
38C0
3FE0
7FE0
70E0
E0E0
ENDCHAR
STARTCHAR 1EA7
ENCODING 7847
SWIDTH 540 0
DWIDTH 9 0
BBX 8 13 0 0
BITMAP
40
6C
1A
00
1E
7F
77
07
7F
E7
E6
FE
76
ENDCHAR
STARTCHAR 1EA8
ENCODING 7848
SWIDTH 660 0
DWIDTH 11 0
BBX 13 16 -1 0
BITMAP
0030
0018
03B0
0660
0380
0380
0780
07C0
0FC0
0DC0
1CC0
38C0
3FE0
7FE0
70E0
E0E0
ENDCHAR
STARTCHAR 1EA9
ENCODING 7849
SWIDTH 540 0
DWIDTH 9 0
BBX 10 14 0 0
BITMAP
0080
00C0
0D80
1A00
0000
1E00
7F00
7700
0700
7F00
E700
E600
FE00
7600
ENDCHAR
STARTCHAR 1EAA
ENCODING 7850
SWIDTH 660 0
DWIDTH 11 0
BBX 11 16 -1 0
BITMAP
01C0
0000
0380
0660
0380
0380
0780
07C0
0FC0
0DC0
1CC0
38C0
3FE0
7FE0
70E0
E0E0
ENDCHAR
STARTCHAR 1EAB
ENCODING 7851
SWIDTH 540 0
DWIDTH 9 0
BBX 8 14 0 0
BITMAP
08
0E
0C
1A
00
1E
7F
77
07
7F
E7
E6
FE
76
ENDCHAR
STARTCHAR 1EAC
ENCODING 7852
SWIDTH 660 0
DWIDTH 11 0
BBX 11 18 -1 -3
BITMAP
0180
07E0
0000
0380
0380
0780
07C0
0FC0
0DC0
1CC0
38C0
3FE0
7FE0
70E0
E0E0
0000
0E00
0E00
ENDCHAR
STARTCHAR 1EAD
ENCODING 7853
SWIDTH 540 0
DWIDTH 9 0
BBX 8 16 0 -3
BITMAP
04
1E
33
00
1E
7F
77
07
7F
E7
E6
FE
76
20
70
70
ENDCHAR
STARTCHAR 1EAE
ENCODING 7854
SWIDTH 660 0
DWIDTH 11 0
BBX 11 16 -1 0
BITMAP
00C0
0180
03E0
0180
0380
0380
0780
07C0
0FC0
0DC0
1CC0
38C0
3FE0
7FE0
70E0
E0E0
ENDCHAR
STARTCHAR 1EAF
ENCODING 7855
SWIDTH 540 0
DWIDTH 9 0
BBX 8 13 0 0
BITMAP
06
13
1F
00
1E
7F
77
07
7F
E7
E6
FE
76
ENDCHAR
STARTCHAR 1EB0
ENCODING 7856
SWIDTH 660 0
DWIDTH 11 0
BBX 11 16 -1 0
BITMAP
0100
0080
03E0
0080
0380
0380
0780
07C0
0FC0
0DC0
1CC0
38C0
3FE0
7FE0
70E0
E0E0
ENDCHAR
STARTCHAR 1EB1
ENCODING 7857
SWIDTH 540 0
DWIDTH 9 0
BBX 8 13 0 0
BITMAP
0C
13
1E
00
1E
7F
77
07
7F
E7
E6
FE
76
ENDCHAR
STARTCHAR 1EB2
ENCODING 7858
SWIDTH 660 0
DWIDTH 11 0
BBX 11 17 -1 0
BITMAP
01C0
00C0
0100
0660
0180
0380
0380
0780
07C0
0FC0
0DC0
1CC0
38C0
3FE0
7FE0
70E0
E0E0
ENDCHAR
STARTCHAR 1EB3
ENCODING 7859
SWIDTH 540 0
DWIDTH 9 0
BBX 8 15 0 0
BITMAP
04
03
0E
31
1F
00
1E
7F
77
07
7F
E7
E6
FE
76
ENDCHAR
STARTCHAR 1EB4
ENCODING 7860
SWIDTH 660 0
DWIDTH 11 0
BBX 11 17 -1 0
BITMAP
0120
02C0
0000
0660
0180
0380
0380
0780
07C0
0FC0
0DC0
1CC0
38C0
3FE0
7FE0
70E0
E0E0
ENDCHAR
STARTCHAR 1EB5
ENCODING 7861
SWIDTH 540 0
DWIDTH 9 0
BBX 8 14 0 0
BITMAP
1F
00
33
1F
00
1E
7F
77
07
7F
E7
E6
FE
76
ENDCHAR
STARTCHAR 1EB6
ENCODING 7862
SWIDTH 660 0
DWIDTH 11 0
BBX 11 18 -1 -3
BITMAP
0660
03C0
0000
0380
0380
0780
07C0
0FC0
0DC0
1CC0
38C0
3FE0
7FE0
70E0
E0E0
0000
0E00
0E00
ENDCHAR
STARTCHAR 1EB7
ENCODING 7863
SWIDTH 540 0
DWIDTH 9 0
BBX 8 16 0 -3
BITMAP
11
1B
0E
00
1E
7F
77
07
7F
E7
E6
FE
76
20
70
70
ENDCHAR
STARTCHAR 1EB8
ENCODING 7864
SWIDTH 540 0
DWIDTH 9 0
BBX 10 15 0 -3
BITMAP
3FC0
3FC0
3000
7000
7000
7F00
7F00
7000
6000
E000
FF00
FF00
0000
1800
1800
ENDCHAR
STARTCHAR 1EB9
ENCODING 7865
SWIDTH 540 0
DWIDTH 9 0
BBX 8 12 0 -3
BITMAP
1E
3F
73
63
FF
E0
62
7F
3E
00
38
38
ENDCHAR
STARTCHAR 1EBA
ENCODING 7866
SWIDTH 540 0
DWIDTH 9 0
BBX 10 16 0 0
BITMAP
0300
0180
0700
0000
3FC0
3FC0
3000
7000
7000
7F00
7F00
7000
6000
E000
FF00
FF00
ENDCHAR
STARTCHAR 1EBB
ENCODING 7867
SWIDTH 540 0
DWIDTH 9 0
BBX 8 14 0 0
BITMAP
0C
0E
06
0C
00
1E
3F
73
63
FF
E0
62
7F
3E
ENDCHAR
STARTCHAR 1EBC
ENCODING 7868
SWIDTH 540 0
DWIDTH 9 0
BBX 10 15 0 0
BITMAP
0EC0
0F80
0000
3FC0
3FC0
3000
7000
7000
7F00
7F00
7000
6000
E000
FF00
FF00
ENDCHAR
STARTCHAR 1EBD
ENCODING 7869
SWIDTH 540 0
DWIDTH 9 0
BBX 8 13 0 0
BITMAP
01
3F
32
00
1E
3F
73
63
FF
E0
62
7F
3E
ENDCHAR
STARTCHAR 1EBE
ENCODING 7870
SWIDTH 540 0
DWIDTH 9 0
BBX 12 16 0 0
BITMAP
0030
0020
0740
1880
3FC0
3FC0
3000
7000
7000
7F00
7F00
7000
6000
E000
FF00
FF00
ENDCHAR
STARTCHAR 1EBF
ENCODING 7871
SWIDTH 540 0
DWIDTH 9 0
BBX 11 13 0 0
BITMAP
0060
0CC0
1A00
0000
1E00
3F00
7300
6300
FF00
E000
6200
7F00
3E00
ENDCHAR
STARTCHAR 1EC0
ENCODING 7872
SWIDTH 540 0
DWIDTH 9 0
BBX 10 16 0 0
BITMAP
2000
3000
1700
1880
3FC0
3FC0
3000
7000
7000
7F00
7F00
7000
6000
E000
FF00
FF00
ENDCHAR
STARTCHAR 1EC1
ENCODING 7873
SWIDTH 540 0
DWIDTH 9 0
BBX 8 13 0 0
BITMAP
C0
6C
1A
00
1E
3F
73
63
FF
E0
62
7F
3E
ENDCHAR
STARTCHAR 1EC2
ENCODING 7874
SWIDTH 540 0
DWIDTH 9 0
BBX 11 16 0 0
BITMAP
0060
0060
0740
1880
3FC0
3FC0
3000
7000
7000
7F00
7F00
7000
6000
E000
FF00
FF00
ENDCHAR
STARTCHAR 1EC3
ENCODING 7875
SWIDTH 540 0
DWIDTH 9 0
BBX 10 14 0 0
BITMAP
0080
00C0
0D80
1A00
0000
1E00
3F00
7300
6300
FF00
E000
6200
7F00
3E00
ENDCHAR
STARTCHAR 1EC4
ENCODING 7876
SWIDTH 540 0
DWIDTH 9 0
BBX 10 16 0 0
BITMAP
0780
0000
0700
1880
3FC0
3FC0
3000
7000
7000
7F00
7F00
7000
6000
E000
FF00
FF00
ENDCHAR
STARTCHAR 1EC5
ENCODING 7877
SWIDTH 540 0
DWIDTH 9 0
BBX 8 14 0 0
BITMAP
08
0E
0C
1A
00
1E
3F
73
63
FF
E0
62
7F
3E
ENDCHAR
STARTCHAR 1EC6
ENCODING 7878
SWIDTH 540 0
DWIDTH 9 0
BBX 10 18 0 -3
BITMAP
0700
0D80
0000
3FC0
3FC0
3000
7000
7000
7F00
7F00
7000
6000
E000
FF00
FF00
0000
1800
1800
ENDCHAR
STARTCHAR 1EC7
ENCODING 7879
SWIDTH 540 0
DWIDTH 9 0
BBX 8 16 0 -3
BITMAP
04
1E
33
00
1E
3F
73
63
FF
E0
62
7F
3E
00
38
38
ENDCHAR
STARTCHAR 1EC8
ENCODING 7880
SWIDTH 300 0
DWIDTH 5 0
BBX 6 16 0 0
BITMAP
1C
0C
1C
00
38
38
38
30
70
70
70
70
70
60
E0
E0
ENDCHAR
STARTCHAR 1EC9
ENCODING 7881
SWIDTH 300 0
DWIDTH 5 0
BBX 6 13 0 0
BITMAP
3C
1C
30
00
30
70
70
70
70
60
60
E0
E0
ENDCHAR
STARTCHAR 1ECA
ENCODING 7882
SWIDTH 300 0
DWIDTH 5 0
BBX 5 15 0 -3
BITMAP
38
38
38
30
70
70
70
70
70
60
E0
E0
00
E0
E0
ENDCHAR
STARTCHAR 1ECB
ENCODING 7883
SWIDTH 300 0
DWIDTH 5 0
BBX 5 15 0 -3
BITMAP
38
38
00
30
70
70
70
70
60
E0
E0
E0
00
E0
C0
ENDCHAR
STARTCHAR 1ECC
ENCODING 7884
SWIDTH 660 0
DWIDTH 11 0
BBX 10 15 1 -3
BITMAP
1F00
3F80
7380
E1C0
E1C0
E1C0
E1C0
C1C0
E380
E780
7F00
3E00
0000
3800
3800
ENDCHAR
STARTCHAR 1ECD
ENCODING 7885
SWIDTH 540 0
DWIDTH 9 0
BBX 9 12 0 -3
BITMAP
1E00
3F00
7300
6380
E380
E300
E700
7F00
3C00
0000
3800
3800
ENDCHAR
STARTCHAR 1ECE
ENCODING 7886
SWIDTH 660 0
DWIDTH 11 0
BBX 10 16 1 0
BITMAP
0700
0300
0700
0000
1F00
3F80
7380
E1C0
E1C0
E1C0
E1C0
C1C0
E380
E780
7F00
3E00
ENDCHAR
STARTCHAR 1ECF
ENCODING 7887
SWIDTH 540 0
DWIDTH 9 0
BBX 9 14 0 0
BITMAP
0400
0700
0700
0E00
0000
1E00
3F00
7300
6380
E380
E300
E700
7F00
3C00
ENDCHAR
STARTCHAR 1ED0
ENCODING 7888
SWIDTH 660 0
DWIDTH 11 0
BBX 12 16 1 0
BITMAP
0030
0060
0EC0
1980
1F00
3F80
7380
E1C0
E1C0
E1C0
E1C0
C1C0
E380
E780
7F00
3E00
ENDCHAR
STARTCHAR 1ED1
ENCODING 7889
SWIDTH 540 0
DWIDTH 9 0
BBX 11 13 0 0
BITMAP
0060
04C0
1A00
0100
1E00
3F00
7300
6380
E380
E300
E700
7F00
3C00
ENDCHAR
STARTCHAR 1ED2
ENCODING 7890
SWIDTH 660 0
DWIDTH 11 0
BBX 10 16 1 0
BITMAP
6000
2000
3F00
1980
1F00
3F80
7380
E1C0
E1C0
E1C0
E1C0
C1C0
E380
E780
7F00
3E00
ENDCHAR
STARTCHAR 1ED3
ENCODING 7891
SWIDTH 540 0
DWIDTH 9 0
BBX 9 13 0 0
BITMAP
4000
6400
1A00
0100
1E00
3F00
7300
6380
E380
E300
E700
7F00
3C00
ENDCHAR
STARTCHAR 1ED4
ENCODING 7892
SWIDTH 660 0
DWIDTH 11 0
BBX 11 16 1 0
BITMAP
00C0
0060
0EC0
1980
1F00
3F80
7380
E1C0
E1C0
E1C0
E1C0
C1C0
E380
E780
7F00
3E00
ENDCHAR
STARTCHAR 1ED5
ENCODING 7893
SWIDTH 540 0
DWIDTH 9 0
BBX 10 14 0 0
BITMAP
0080
0040
04C0
1A00
0100
1E00
3F00
7300
6380
E380
E300
E700
7F00
3C00
ENDCHAR
STARTCHAR 1ED6
ENCODING 7894
SWIDTH 660 0
DWIDTH 11 0
BBX 10 16 1 0
BITMAP
0700
0000
0F00
1980
1F00
3F80
7380
E1C0
E1C0
E1C0
E1C0
C1C0
E380
E780
7F00
3E00
ENDCHAR
STARTCHAR 1ED7
ENCODING 7895
SWIDTH 540 0
DWIDTH 9 0
BBX 9 14 0 0
BITMAP
0100
0F00
0400
1A00
0100
1E00
3F00
7300
6380
E380
E300
E700
7F00
3C00
ENDCHAR
STARTCHAR 1ED8
ENCODING 7896
SWIDTH 660 0
DWIDTH 11 0
BBX 10 18 1 -3
BITMAP
0700
1F80
0000
1F00
3F80
7380
E1C0
E1C0
E1C0
E1C0
C1C0
E380
E780
7F00
3E00
0000
3800
3800
ENDCHAR
STARTCHAR 1ED9
ENCODING 7897
SWIDTH 540 0
DWIDTH 9 0
BBX 9 16 0 -3
BITMAP
0400
0E00
3B00
0000
1E00
3F00
7300
6380
E380
E300
E700
7F00
3C00
0000
3800
3800
ENDCHAR
STARTCHAR 1EDA
ENCODING 7898
SWIDTH 720 0
DWIDTH 12 0
BBX 12 15 1 0
BITMAP
0380
0700
0030
1F30
3FE0
73E0
E1C0
E1C0
E1C0
E1C0
C1C0
E380
E780
7F00
3E00
ENDCHAR
STARTCHAR 1EDB
ENCODING 7899
SWIDTH 600 0
DWIDTH 10 0
BBX 10 13 0 0
BITMAP
0380
0700
0600
0040
1E40
3FC0
7380
6380
E380
E300
E700
7E00
3C00
ENDCHAR
STARTCHAR 1EDC
ENCODING 7900
SWIDTH 720 0
DWIDTH 12 0
BBX 12 15 1 0
BITMAP
0C00
0E00
0030
1F30
3FE0
73E0
E1C0
E1C0
E1C0
E1C0
C1C0
E380
E780
7F00
3E00
ENDCHAR
STARTCHAR 1EDD
ENCODING 7901
SWIDTH 600 0
DWIDTH 10 0
BBX 10 13 0 0
BITMAP
0800
1C00
0C00
0040
1E40
3FC0
7380
6380
E380
E300
E700
7E00
3C00
ENDCHAR
STARTCHAR 1EDE
ENCODING 7902
SWIDTH 720 0
DWIDTH 12 0
BBX 12 16 1 0
BITMAP
0700
0300
0700
0030
1F30
3FE0
73E0
E1C0
E1C0
E1C0
E1C0
C1C0
E380
E780
7F00
3E00
ENDCHAR
STARTCHAR 1EDF
ENCODING 7903
SWIDTH 600 0
DWIDTH 10 0
BBX 10 14 0 0
BITMAP
0400
0700
0700
0E00
0040
1E40
3FC0
7380
6380
E380
E300
E700
7E00
3C00
ENDCHAR
STARTCHAR 1EE0
ENCODING 7904
SWIDTH 720 0
DWIDTH 12 0
BBX 12 15 1 0
BITMAP
0D80
1F80
0030
1F30
3FE0
73E0
E1C0
E1C0
E1C0
E1C0
C1C0
E380
E780
7F00
3E00
ENDCHAR
STARTCHAR 1EE1
ENCODING 7905
SWIDTH 600 0
DWIDTH 10 0
BBX 10 13 0 0
BITMAP
0100
1F80
3300
0040
1E40
3FC0
7380
6380
E380
E300
E700
7E00
3C00
ENDCHAR
STARTCHAR 1EE2
ENCODING 7906
SWIDTH 720 0
DWIDTH 12 0
BBX 12 16 1 -3
BITMAP
0030
1F30
3FE0
73E0
E1C0
E1C0
E1C0
E1C0
C1C0
E380
E780
7F00
3E00
0000
3800
3800
ENDCHAR
STARTCHAR 1EE3
ENCODING 7907
SWIDTH 600 0
DWIDTH 10 0
BBX 10 13 0 -3
BITMAP
0040
1E40
3FC0
7380
6380
E380
E300
E700
7E00
3C00
0000
3800
3800
ENDCHAR
STARTCHAR 1EE4
ENCODING 7908
SWIDTH 660 0
DWIDTH 11 0
BBX 10 15 1 -3
BITMAP
71C0
71C0
61C0
E1C0
E180
E380
E380
E380
E380
E700
FF00
7E00
0000
3800
3000
ENDCHAR
STARTCHAR 1EE5
ENCODING 7909
SWIDTH 540 0
DWIDTH 9 0
BBX 9 12 0 -3
BITMAP
7380
7380
7380
7380
6300
6300
E700
7F00
7F00
0000
7000
7000
ENDCHAR
STARTCHAR 1EE6
ENCODING 7910
SWIDTH 660 0
DWIDTH 11 0
BBX 10 16 1 0
BITMAP
0700
0300
0600
0000
71C0
71C0
61C0
E1C0
E180
E380
E380
E380
E380
E700
FF00
7E00
ENDCHAR
STARTCHAR 1EE7
ENCODING 7911
SWIDTH 540 0
DWIDTH 9 0
BBX 9 14 0 0
BITMAP
0400
0700
0700
0E00
0000
7380
7380
7380
7380
6300
6300
E700
7F00
7F00
ENDCHAR
STARTCHAR 1EE8
ENCODING 7912
SWIDTH 720 0
DWIDTH 12 0
BBX 13 15 1 0
BITMAP
0380
0700
0008
71C8
71D8
71F0
61C0
E1C0
E180
E380
E380
E380
E700
FF00
7E00
ENDCHAR
STARTCHAR 1EE9
ENCODING 7913
SWIDTH 600 0
DWIDTH 10 0
BBX 11 12 0 0
BITMAP
0780
0600
0020
73A0
73E0
7380
7380
6300
6300
E700
7F00
7F00
ENDCHAR
STARTCHAR 1EEA
ENCODING 7914
SWIDTH 720 0
DWIDTH 12 0
BBX 13 15 1 0
BITMAP
0C00
0600
0008
71C8
71D8
71F0
61C0
E1C0
E180
E380
E380
E380
E700
FF00
7E00
ENDCHAR
STARTCHAR 1EEB
ENCODING 7915
SWIDTH 600 0
DWIDTH 10 0
BBX 11 12 0 0
BITMAP
1C00
0C00
0020
73A0
73E0
7380
7380
6300
6300
E700
7F00
7F00
ENDCHAR
STARTCHAR 1EEC
ENCODING 7916
SWIDTH 720 0
DWIDTH 12 0
BBX 13 16 1 0
BITMAP
0700
0380
0700
0008
71C8
71D8
71F0
61C0
E1C0
E180
E380
E380
E380
E700
FF00
7E00
ENDCHAR
STARTCHAR 1EED
ENCODING 7917
SWIDTH 600 0
DWIDTH 10 0
BBX 11 13 0 0
BITMAP
0700
0700
0E00
0020
73A0
73E0
7380
7380
6300
6300
E700
7F00
7F00
ENDCHAR
STARTCHAR 1EEE
ENCODING 7918
SWIDTH 720 0
DWIDTH 12 0
BBX 13 15 1 0
BITMAP
0E80
1B80
0008
71C8
71D8
71F0
61C0
E1C0
E180
E380
E380
E380
E700
FF00
7E00
ENDCHAR
STARTCHAR 1EEF
ENCODING 7919
SWIDTH 600 0
DWIDTH 10 0
BBX 11 12 0 0
BITMAP
1F80
3300
0020
73A0
73E0
7380
7380
6300
6300
E700
7F00
7F00
ENDCHAR
STARTCHAR 1EF0
ENCODING 7920
SWIDTH 720 0
DWIDTH 12 0
BBX 13 16 1 -3
BITMAP
0008
71C8
71D8
71F0
61C0
E1C0
E180
E380
E380
E380
E700
FF00
7E00
0000
3800
3800
ENDCHAR
STARTCHAR 1EF1
ENCODING 7921
SWIDTH 600 0
DWIDTH 10 0
BBX 11 13 0 -3
BITMAP
0020
73A0
73E0
7380
7380
6300
6300
E700
7F00
7F00
0000
3800
3800
ENDCHAR
STARTCHAR 1EF2
ENCODING 7922
SWIDTH 600 0
DWIDTH 10 0
BBX 10 15 1 0
BITMAP
1C00
0C00
0600
E1C0
61C0
7380
7700
3700
3E00
3C00
1C00
3800
3800
3800
3800
ENDCHAR
STARTCHAR 1EF3
ENCODING 7923
SWIDTH 480 0
DWIDTH 8 0
BBX 9 17 0 -4
BITMAP
0800
1C00
0C00
0000
6380
7380
7700
7600
7E00
3C00
3C00
3800
3800
3000
F000
E000
C000
ENDCHAR
STARTCHAR 1EF4
ENCODING 7924
SWIDTH 600 0
DWIDTH 10 0
BBX 10 15 1 -3
BITMAP
E1C0
61C0
7380
7700
3700
3E00
3C00
1C00
3800
3800
3800
3800
3000
7000
3000
ENDCHAR
STARTCHAR 1EF5
ENCODING 7925
SWIDTH 480 0
DWIDTH 8 0
BBX 9 13 0 -4
BITMAP
6380
7380
7700
7600
7E00
3C00
3C00
3800
3800
3000
F400
EE00
CC00
ENDCHAR
STARTCHAR 1EF6
ENCODING 7926
SWIDTH 600 0
DWIDTH 10 0
BBX 10 16 1 0
BITMAP
0600
0300
0E00
0000
E1C0
61C0
7380
7700
3700
3E00
3C00
1C00
3800
3800
3800
3800
ENDCHAR
STARTCHAR 1EF7
ENCODING 7927
SWIDTH 480 0
DWIDTH 8 0
BBX 9 18 0 -4
BITMAP
0C00
0E00
0600
0C00
0000
6380
7380
7700
7600
7E00
3C00
3C00
3800
3800
3000
F000
E000
C000
ENDCHAR
STARTCHAR 1EF8
ENCODING 7928
SWIDTH 600 0
DWIDTH 10 0
BBX 10 15 1 0
BITMAP
1D80
1F00
0000
E1C0
61C0
7380
7700
3700
3E00
3C00
1C00
3800
3800
3800
3800
ENDCHAR
STARTCHAR 1EF9
ENCODING 7929
SWIDTH 480 0
DWIDTH 8 0
BBX 9 17 0 -4
BITMAP
0100
3F00
3200
0000
6380
7380
7700
7600
7E00
3C00
3C00
3800
3800
3000
F000
E000
C000
ENDCHAR
STARTCHAR 1F4D
ENCODING 8013
SWIDTH 720 0
DWIDTH 12 0
BBX 14 12 -3 0
BITMAP
D8F0
D3F8
239C
070C
060C
0E0C
0E1C
0E1C
0E1C
0738
07F0
03E0
ENDCHAR
STARTCHAR 2000
ENCODING 8192
SWIDTH 480 0
DWIDTH 8 0
BBX 0 0 0 0
BITMAP
ENDCHAR
STARTCHAR 2001
ENCODING 8193
SWIDTH 1020 0
DWIDTH 17 0
BBX 0 0 0 0
BITMAP
ENDCHAR
STARTCHAR 2002
ENCODING 8194
SWIDTH 480 0
DWIDTH 8 0
BBX 0 0 0 0
BITMAP
ENDCHAR
STARTCHAR 2003
ENCODING 8195
SWIDTH 1020 0
DWIDTH 17 0
BBX 0 0 0 0
BITMAP
ENDCHAR
STARTCHAR 2004
ENCODING 8196
SWIDTH 360 0
DWIDTH 6 0
BBX 0 0 0 0
BITMAP
ENDCHAR
STARTCHAR 2005
ENCODING 8197
SWIDTH 240 0
DWIDTH 4 0
BBX 0 0 0 0
BITMAP
ENDCHAR
STARTCHAR 2006
ENCODING 8198
SWIDTH 180 0
DWIDTH 3 0
BBX 0 0 0 0
BITMAP
ENDCHAR
STARTCHAR 2007
ENCODING 8199
SWIDTH 540 0
DWIDTH 9 0
BBX 0 0 0 0
BITMAP
ENDCHAR
STARTCHAR 2008
ENCODING 8200
SWIDTH 300 0
DWIDTH 5 0
BBX 0 0 0 0
BITMAP
ENDCHAR
STARTCHAR 2009
ENCODING 8201
SWIDTH 180 0
DWIDTH 3 0
BBX 0 0 0 0
BITMAP
ENDCHAR
STARTCHAR 200A
ENCODING 8202
SWIDTH 120 0
DWIDTH 2 0
BBX 0 0 0 0
BITMAP
ENDCHAR
STARTCHAR 200B
ENCODING 8203
SWIDTH 0 0
DWIDTH 0 0
BBX 0 0 0 0
BITMAP
ENDCHAR
STARTCHAR 2010
ENCODING 8208
SWIDTH 420 0
DWIDTH 7 0
BBX 5 2 1 4
BITMAP
F8
F8
ENDCHAR
STARTCHAR 2011
ENCODING 8209
SWIDTH 420 0
DWIDTH 7 0
BBX 5 2 1 4
BITMAP
F8
F8
ENDCHAR
STARTCHAR 2013
ENCODING 8211
SWIDTH 600 0
DWIDTH 10 0
BBX 9 2 1 5
BITMAP
FF80
FF80
ENDCHAR
STARTCHAR 2014
ENCODING 8212
SWIDTH 720 0
DWIDTH 12 0
BBX 11 2 1 5
BITMAP
FFE0
FFE0
ENDCHAR
STARTCHAR 2015
ENCODING 8213
SWIDTH 720 0
DWIDTH 12 0
BBX 11 2 1 5
BITMAP
FFE0
FFE0
ENDCHAR
STARTCHAR 2017
ENCODING 8215
SWIDTH 420 0
DWIDTH 7 0
BBX 7 3 -1 -3
BITMAP
FE
00
FE
ENDCHAR
STARTCHAR 2018
ENCODING 8216
SWIDTH 240 0
DWIDTH 4 0
BBX 3 5 1 8
BITMAP
20
60
60
60
C0
ENDCHAR
STARTCHAR 2019
ENCODING 8217
SWIDTH 240 0
DWIDTH 4 0
BBX 2 5 2 8
BITMAP
C0
C0
C0
C0
80
ENDCHAR
STARTCHAR 201A
ENCODING 8218
SWIDTH 240 0
DWIDTH 4 0
BBX 3 4 0 -3
BITMAP
60
E0
C0
C0
ENDCHAR
STARTCHAR 201B
ENCODING 8219
SWIDTH 240 0
DWIDTH 4 0
BBX 2 5 2 8
BITMAP
C0
C0
C0
C0
80
ENDCHAR
STARTCHAR 201C
ENCODING 8220
SWIDTH 420 0
DWIDTH 7 0
BBX 5 5 2 8
BITMAP
48
D8
D8
F0
B0
ENDCHAR
STARTCHAR 201D
ENCODING 8221
SWIDTH 420 0
DWIDTH 7 0
BBX 5 5 2 8
BITMAP
78
D8
D8
D8
90
ENDCHAR
STARTCHAR 201E
ENCODING 8222
SWIDTH 420 0
DWIDTH 7 0
BBX 6 5 0 -3
BITMAP
6C
F8
D8
D8
90
ENDCHAR
STARTCHAR 2020
ENCODING 8224
SWIDTH 540 0
DWIDTH 9 0
BBX 8 12 1 0
BITMAP
1C
1C
18
FF
FF
38
38
38
30
30
70
70
ENDCHAR
STARTCHAR 2021
ENCODING 8225
SWIDTH 600 0
DWIDTH 10 0
BBX 9 15 0 -3
BITMAP
0E00
0E00
0E00
7F80
7F80
0C00
1C00
1C00
1C00
1C00
FF00
FF00
1800
3800
3800
ENDCHAR
STARTCHAR 2022
ENCODING 8226
SWIDTH 360 0
DWIDTH 6 0
BBX 4 4 1 4
BITMAP
70
F0
F0
70
ENDCHAR
STARTCHAR 2025
ENCODING 8229
SWIDTH 540 0
DWIDTH 9 0
BBX 7 3 0 0
BITMAP
64
EE
6E
ENDCHAR
STARTCHAR 2026
ENCODING 8230
SWIDTH 780 0
DWIDTH 13 0
BBX 11 3 0 0
BITMAP
6440
EEE0
6EE0
ENDCHAR
STARTCHAR 2027
ENCODING 8231
SWIDTH 300 0
DWIDTH 5 0
BBX 3 2 1 4
BITMAP
E0
E0
ENDCHAR
STARTCHAR 2030
ENCODING 8240
SWIDTH 960 0
DWIDTH 16 0
BBX 13 12 2 0
BITMAP
7000
F100
9B00
9600
F400
0C00
1800
37F0
2DD8
6D98
CDD8
07F0
ENDCHAR
STARTCHAR 2032
ENCODING 8242
SWIDTH 180 0
DWIDTH 3 0
BBX 2 5 1 8
BITMAP
40
C0
C0
C0
C0
ENDCHAR
STARTCHAR 2033
ENCODING 8243
SWIDTH 300 0
DWIDTH 5 0
BBX 5 5 1 8
BITMAP
D8
D8
D8
D0
90
ENDCHAR
STARTCHAR 2039
ENCODING 8249
SWIDTH 300 0
DWIDTH 5 0
BBX 4 6 1 1
BITMAP
30
60
C0
C0
40
60
ENDCHAR
STARTCHAR 203A
ENCODING 8250
SWIDTH 300 0
DWIDTH 5 0
BBX 4 6 0 1
BITMAP
60
30
30
30
60
C0
ENDCHAR
STARTCHAR 203C
ENCODING 8252
SWIDTH 540 0
DWIDTH 9 0
BBX 9 12 0 0
BITMAP
3980
3B80
3380
3380
3380
7300
7300
6300
0000
4200
E700
E600
ENDCHAR
STARTCHAR 2044
ENCODING 8260
SWIDTH 420 0
DWIDTH 7 0
BBX 7 10 0 1
BITMAP
02
02
06
0C
18
10
30
60
C0
80
ENDCHAR
STARTCHAR 2074
ENCODING 8308
SWIDTH 360 0
DWIDTH 6 0
BBX 5 7 1 5
BITMAP
18
38
78
D8
F8
30
30
ENDCHAR
STARTCHAR 207F
ENCODING 8319
SWIDTH 420 0
DWIDTH 7 0
BBX 6 7 1 5
BITMAP
58
7C
CC
CC
CC
C8
98
ENDCHAR
STARTCHAR 20A3
ENCODING 8355
SWIDTH 540 0
DWIDTH 9 0
BBX 11 12 -1 0
BITMAP
1FE0
1FE0
1800
3800
3800
3F80
3F80
3800
3000
FC00
7000
7000
ENDCHAR
STARTCHAR 20A4
ENCODING 8356
SWIDTH 600 0
DWIDTH 10 0
BBX 10 12 0 0
BITMAP
0F80
1FC0
1DC0
1800
3800
7E00
3800
7E00
3800
3000
FF80
FF80
ENDCHAR
STARTCHAR 20A6
ENCODING 8358
SWIDTH 780 0
DWIDTH 13 0
BBX 13 12 0 0
BITMAP
1C38
1C30
1E70
3E70
7FF8
3F70
3B70
FFF8
31E0
71E0
71E0
70E0
ENDCHAR
STARTCHAR 20A7
ENCODING 8359
SWIDTH 840 0
DWIDTH 14 0
BBX 14 12 0 0
BITMAP
3E00
3FB8
3FB8
39FC
73FC
77B0
7F70
7E70
7070
6070
E078
E078
ENDCHAR
STARTCHAR 20A8
ENCODING 8360
SWIDTH 1080 0
DWIDTH 18 0
BBX 17 12 0 0
BITMAP
3F0000
3FC000
31C000
70CF00
71DF80
73F980
7FB800
7F1F00
670780
E3F380
E3BF80
E39F00
ENDCHAR
STARTCHAR 20A9
ENCODING 8361
SWIDTH 840 0
DWIDTH 14 0
BBX 13 12 1 0
BITMAP
7338
7770
FFF8
7770
FFF8
FFF8
7FC0
7FC0
7BC0
7B80
7B80
7380
ENDCHAR
STARTCHAR 20AA
ENCODING 8362
SWIDTH 900 0
DWIDTH 15 0
BBX 15 9 0 0
BITMAP
7F8E
7FCE
70EC
7EEC
6EDC
6EDC
EE1C
EFF8
EFE0
ENDCHAR
STARTCHAR 20AB
ENCODING 8363
SWIDTH 540 0
DWIDTH 9 0
BBX 10 16 0 -3
BITMAP
01C0
0180
07C0
0380
3F80
7F80
7380
6300
E300
E700
E700
7F00
7F00
0000
FE00
FE00
ENDCHAR
STARTCHAR 20AC
ENCODING 8364
SWIDTH 540 0
DWIDTH 9 0
BBX 9 12 1 0
BITMAP
0F80
1F80
3C00
3800
FE00
FE00
7000
FC00
7000
7000
7E00
1E00
ENDCHAR
STARTCHAR 20B1
ENCODING 8369
SWIDTH 720 0
DWIDTH 12 0
BBX 11 12 1 0
BITMAP
3F00
3F80
71C0
FFE0
FFE0
FFE0
7F80
FF00
E000
E000
E000
E000
ENDCHAR
STARTCHAR 20B9
ENCODING 8377
SWIDTH 540 0
DWIDTH 9 0
BBX 8 12 1 0
BITMAP
7F
FF
1C
FF
FE
1C
F8
F0
E0
70
70
38
ENDCHAR
STARTCHAR 20BA
ENCODING 8378
SWIDTH 600 0
DWIDTH 10 0
BBX 9 12 0 0
BITMAP
1800
3E00
7C00
7800
3C00
7C00
F180
7380
7380
7700
7F00
7C00
ENDCHAR
STARTCHAR 20BC
ENCODING 8380
SWIDTH 660 0
DWIDTH 11 0
BBX 10 9 0 0
BITMAP
0700
0600
1F00
3F80
7FC0
EFC0
EEC0
EDC0
CDC0
ENDCHAR
STARTCHAR 20BD
ENCODING 8381
SWIDTH 720 0
DWIDTH 12 0
BBX 12 12 0 0
BITMAP
1F80
1FE0
1CE0
1870
1870
38E0
7FE0
FF80
FE00
FE00
FE00
7000
ENDCHAR
STARTCHAR 2105
ENCODING 8453
SWIDTH 720 0
DWIDTH 12 0
BBX 10 12 1 0
BITMAP
7800
7800
C180
DB00
7E00
0400
0C00
1BC0
36C0
26C0
66C0
0780
ENDCHAR
STARTCHAR 2113
ENCODING 8467
SWIDTH 480 0
DWIDTH 8 0
BBX 8 12 0 0
BITMAP
0E
1F
3B
3B
3F
3E
3C
F0
70
78
38
18
ENDCHAR
STARTCHAR 2116
ENCODING 8470
SWIDTH 960 0
DWIDTH 16 0
BBX 16 12 0 0
BITMAP
38CE
39DB
39D1
7DD1
7DD3
7D9E
7D80
77BE
67BE
E780
E780
E700
ENDCHAR
STARTCHAR 2122
ENCODING 8482
SWIDTH 600 0
DWIDTH 10 0
BBX 8 5 2 7
BITMAP
E9
4F
4F
5D
D5
ENDCHAR
STARTCHAR 2126
ENCODING 8486
SWIDTH 660 0
DWIDTH 11 0
BBX 10 12 0 0
BITMAP
0F00
1FC0
39C0
79C0
71C0
71C0
71C0
71C0
3380
3300
F780
F780
ENDCHAR
STARTCHAR 212E
ENCODING 8494
SWIDTH 600 0
DWIDTH 10 0
BBX 8 9 1 0
BITMAP
1C
22
41
C1
FF
C0
C0
42
3C
ENDCHAR
STARTCHAR 215B
ENCODING 8539
SWIDTH 780 0
DWIDTH 13 0
BBX 10 12 2 0
BITMAP
2000
E100
E300
6600
4C00
C900
DFC0
36C0
6380
4780
C5C0
0780
ENDCHAR
STARTCHAR 215C
ENCODING 8540
SWIDTH 840 0
DWIDTH 14 0
BBX 12 12 1 0
BITMAP
7800
7840
18C0
3180
1900
FB40
76F0
0DB0
18E0
11B0
31B0
01E0
ENDCHAR
STARTCHAR 215D
ENCODING 8541
SWIDTH 840 0
DWIDTH 14 0
BBX 12 12 1 0
BITMAP
7800
7800
70C0
7980
1B00
FA40
77F0
0DB0
18E0
31A0
3170
01E0
ENDCHAR
STARTCHAR 215E
ENCODING 8542
SWIDTH 840 0
DWIDTH 14 0
BBX 11 12 2 0
BITMAP
F800
F900
3300
2200
6600
CC80
DBC0
1360
33C0
67C0
C6C0
03C0
ENDCHAR
STARTCHAR 2202
ENCODING 8706
SWIDTH 540 0
DWIDTH 9 0
BBX 8 13 1 0
BITMAP
08
3E
3F
03
03
7F
FF
E7
C7
C7
C6
FE
78
ENDCHAR
STARTCHAR 2206
ENCODING 8710
SWIDTH 720 0
DWIDTH 12 0
BBX 12 12 -1 0
BITMAP
03C0
03C0
07C0
07C0
0EE0
0EE0
1CE0
1C60
3860
3870
7FF0
FFF0
ENDCHAR
STARTCHAR 220F
ENCODING 8719
SWIDTH 660 0
DWIDTH 11 0
BBX 11 14 0 -2
BITMAP
3FE0
3FE0
38E0
38E0
30C0
30C0
71C0
71C0
71C0
71C0
6180
6180
E380
E380
ENDCHAR
STARTCHAR 2211
ENCODING 8721
SWIDTH 660 0
DWIDTH 11 0
BBX 12 14 -1 -2
BITMAP
1FF0
1FF0
1C00
0E00
0E00
0700
0700
0700
0E00
1E00
1C00
3800
7FC0
FFC0
ENDCHAR
STARTCHAR 2212
ENCODING 8722
SWIDTH 540 0
DWIDTH 9 0
BBX 7 2 1 5
BITMAP
FE
FE
ENDCHAR
STARTCHAR 221A
ENCODING 8730
SWIDTH 540 0
DWIDTH 9 0
BBX 10 12 0 0
BITMAP
00C0
0180
0180
0180
0300
0300
7600
F600
3600
3C00
1C00
1800
ENDCHAR
STARTCHAR 221E
ENCODING 8734
SWIDTH 1020 0
DWIDTH 17 0
BBX 15 9 1 0
BITMAP
3C3C
7E7E
E7CE
E386
C386
C386
E7CE
FEFC
7C78
ENDCHAR
STARTCHAR 222B
ENCODING 8747
SWIDTH 300 0
DWIDTH 5 0
BBX 9 17 -2 -4
BITMAP
0380
0F80
0E00
0C00
0C00
1C00
1C00
1C00
1C00
1800
1800
3800
3800
3800
F800
F000
C000
ENDCHAR
STARTCHAR 2248
ENCODING 8776
SWIDTH 600 0
DWIDTH 10 0
BBX 9 6 0 2
BITMAP
7C80
7F80
0300
7000
FF00
8F00
ENDCHAR
STARTCHAR 2260
ENCODING 8800
SWIDTH 600 0
DWIDTH 10 0
BBX 8 8 1 2
BITMAP
06
FF
FF
18
10
FE
FE
40
ENDCHAR
STARTCHAR 2264
ENCODING 8804
SWIDTH 480 0
DWIDTH 8 0
BBX 8 10 0 0
BITMAP
01
0F
3F
70
78
3E
06
FE
FE
FE
ENDCHAR
STARTCHAR 2265
ENCODING 8805
SWIDTH 480 0
DWIDTH 8 0
BBX 8 10 0 0
BITMAP
20
38
3E
07
1F
7C
60
FE
FE
FE
ENDCHAR
STARTCHAR 25CA
ENCODING 9674
SWIDTH 480 0
DWIDTH 8 0
BBX 7 12 1 0
BITMAP
1C
3C
3C
7C
EE
C6
CE
CC
FC
F8
78
70
ENDCHAR
STARTCHAR EE01
ENCODING 60929
SWIDTH 300 0
DWIDTH 5 0
BBX 4 9 1 1
BITMAP
60
70
60
00
00
00
00
C0
C0
ENDCHAR
STARTCHAR EE02
ENCODING 60930
SWIDTH 300 0
DWIDTH 5 0
BBX 4 4 1 5
BITMAP
D0
90
B0
B0
ENDCHAR
STARTCHAR F6C3
ENCODING 63171
SWIDTH 240 0
DWIDTH 4 0
BBX 3 3 -1 -1
BITMAP
60
60
C0
ENDCHAR
STARTCHAR FB01
ENCODING 64257
SWIDTH 600 0
DWIDTH 10 0
BBX 9 13 1 0
BITMAP
0E00
3F00
7F00
7000
FB80
FB80
6380
E380
E300
E700
E700
C700
C700
ENDCHAR
STARTCHAR FB02
ENCODING 64258
SWIDTH 600 0
DWIDTH 10 0
BBX 10 13 1 0
BITMAP
0FC0
3F80
7980
7180
FB80
FB80
6380
E300
E300
E700
E700
C700
C700
ENDCHAR
STARTCHAR FB03
ENCODING 64259
SWIDTH 960 0
DWIDTH 16 0
BBX 14 13 1 0
BITMAP
1C70
3CFC
79F8
7380
FFEC
FFEC
639C
E31C
E31C
E71C
E718
C738
C738
ENDCHAR
STARTCHAR FB04
ENCODING 64260
SWIDTH 960 0
DWIDTH 16 0
BBX 15 13 1 0
BITMAP
1C7E
3DFE
79CE
738C
FFEC
FFCC
639C
E31C
E31C
E718
E718
C738
C738
ENDCHAR
STARTCHAR FEFF
ENCODING 65279
SWIDTH 0 0
DWIDTH 0 0
BBX 0 0 0 0
BITMAP
ENDCHAR
STARTCHAR FFFC
ENCODING 65532
SWIDTH 1020 0
DWIDTH 17 0
BBX 18 15 -1 -3
BITMAP
1B76C0
100040
000000
200040
200080
24C280
0AA200
32E280
52A280
0EEC00
400100
400100
000000
800100
EDB700
ENDCHAR
STARTCHAR FFFD
ENCODING 65533
SWIDTH 1020 0
DWIDTH 17 0
BBX 15 16 1 0
BITMAP
0100
0380
07C0
0FE0
1C70
3838
7F3C
FF3E
FE7E
7EFC
3FF8
1EF0
0FE0
07C0
0380
0100
ENDCHAR
ENDFONT
